<?xml version="1.0" encoding="utf-8"?>
<!-- Generator: Adobe Illustrator 17.0.2, SVG Export Plug-In . SVG Version: 6.00 Build 0)  -->
<!DOCTYPE svg PUBLIC "-//W3C//DTD SVG 1.1 Tiny//EN" "http://www.w3.org/Graphics/SVG/1.1/DTD/svg11-tiny.dtd">
<svg version="1.1" baseProfile="tiny" id="Layer_1" xmlns="http://www.w3.org/2000/svg" xmlns:xlink="http://www.w3.org/1999/xlink"
	 x="0px" y="0px" width="250px" height="250px" viewBox="0 0 250 250" xml:space="preserve">
<g>
	<g>
		<path fill="#FF6B42" d="M5.76,243.289l54.39-32.987l3.199,20.741l38.282-55.383c-9.267-9.267-18.534-18.424-27.691-27.691
			L5.76,197.063l21.844,1.214L5.76,243.289z"/>
		<path fill="#D8DEE6" d="M244.942,5.541c4.634,33.318-3.31,74.579-22.065,93.224c-0.552,0.552-0.993,0.993-1.545,1.434
			c-29.456,27.029-68.511,62.002-97.857,89.031l-63.546-63.546c27.03-29.457,61.892-68.622,88.921-98.078
			c0.441-0.552,0.993-0.993,1.434-1.545C168.818,7.196,210.08-0.637,243.397,3.996C244.06,4.107,244.942,4.989,244.942,5.541z"/>
		<path fill="#9EA7B3" d="M244.942,5.541c4.634,33.318-3.31,74.579-22.065,93.224c-0.552,0.552-0.993,0.993-1.545,1.434
			c-29.456,27.029-68.511,62.002-97.857,89.031l-30.56-30.56C210.742,82.878,233.027,43.934,244.501,4.658
			C244.722,4.989,244.942,5.32,244.942,5.541z"/>
		<polygon fill="#DD4839" points="21.868,225.968 70.851,193.423 73.499,205.227 94.792,177.536 78.905,181.618 84.973,172.13 
			67.321,179.963 77.471,163.966 65.666,168.931 72.506,155.361 36.651,183.273 47.904,185.81 		"/>
		<path fill="#5E6D81" d="M62.136,123.477l-38.062-8.936c-0.441-0.11-0.772-0.441-0.993-0.883c-0.11-0.441,0-0.883,0.331-1.214
			c14.232-14.783,27.581-26.918,36.186-31.441c10.26-5.516,28.133-8.936,50.197-9.929l-30.118,33.097L62.136,123.477L62.136,123.477
			z M125.793,187.245l8.936,38.062c0.11,0.441,0.441,0.772,0.883,0.993c0.441,0.221,0.883,0,1.214-0.331
			c14.673-14.232,26.809-27.691,31.442-36.186c5.516-10.26,8.936-28.243,9.929-50.197L125.793,187.245z"/>
	</g>
</g>
<circle fill="#9EA7B3" cx="188.236" cy="59.269" r="16.438"/>
<image display="none" width="500" height="500" xlink:href="../../../../../../Dropbox (myhub)/Myhub/Design/Branding/Bowtie/PNGs/bowtie_outline.png"  transform="matrix(0.0119 0 0 0.0119 83.0404 10.7422)">
</image>
</svg>
