<?xml version="1.0" standalone="no"?>
<!DOCTYPE svg PUBLIC "-//W3C//DTD SVG 1.1//EN" "http://www.w3.org/Graphics/SVG/1.1/DTD/svg11.dtd" >
<svg xmlns="http://www.w3.org/2000/svg">
<metadata>Generated by IcoMoon</metadata>
<defs>
<font id="myhub-icomoon" horiz-adv-x="512">
<font-face units-per-em="512" ascent="480" descent="-32" />
<missing-glyph horiz-adv-x="512" />
<glyph unicode="&#x20;" d="" horiz-adv-x="256" />
<glyph unicode="&#xe600;" d="M278.158 5.759c-8.751 0-16.337 6.069-18.243 14.639l-69.476 312.72-41.733-163.002c-2.113-8.272-9.564-14.062-18.099-14.062h-78.317c-10.34 0-18.695 8.363-18.695 18.695 0 10.322 8.363 18.676 18.695 18.676h63.796l57.528 224.712c2.131 8.381 9.718 14.45 18.397 14.062 8.661-0.145 16.066-6.214 17.954-14.639l67.218-302.505 34.309 171.907c1.572 7.884 8.029 13.881 15.994 14.883 8.010 1.038 15.678-3.179 19.173-10.422l41.2-85.569h71.843c10.341 0 18.695-8.363 18.695-18.695 0-10.322-8.363-18.676-18.695-18.676h-83.592c-7.18 0-13.728 4.109-16.825 10.584l-22.063 45.787-40.73-204.049c-1.725-8.679-9.275-14.938-18.135-15.046-0.045 0-0.108 0-0.199 0v0z" />
<glyph unicode="&#xe601;" d="M120.93 103.63c-0.88 3.167-71.294 34.103-73.79 36.599-0.256 0.256-19.899 7.71-27.401 0.224-7.534-7.502-0.4-26.777 0.208-27.385 2.576-2.575 40.438-66.192 43.717-67.023 6.398-1.663 13.436-0.016 18.395 4.943 5.038 5.007 40.662 46.149 38.87 52.643zM172.453 14.981c-2.495 2.512-33.464 72.894-36.631 73.757-6.478 1.776-47.652-33.8-52.691-38.839-4.975-4.959-6.591-11.997-4.943-18.395 0.848-3.279 64.48-41.11 67.071-43.685 0.592-0.608 19.883-7.71 27.401-0.208 7.502 7.486 0.048 27.129-0.208 27.369z" />
<glyph unicode="&#xe602;" d="M276.075 296.734c-1.279 2.623-225.976 173.125-228.151 175.3-10.797 10.798-28.505 10.59-39.526-0.432s-11.229-28.729-0.432-39.526c2.287-2.288 172.677-227.239 175.428-228.535 10.35-4.895 50.9 24.746 59.617 33.464 8.798 8.798 38.166 49.315 33.063 59.729zM504.242 16.004c-2.192 2.175-172.613 226.935-175.236 228.231-10.397 5.071-51.011-24.378-59.825-33.192-8.75-8.734-38.454-49.347-33.591-59.697 1.311-2.767 226.327-173.092 228.599-175.38 10.813-10.798 28.521-10.573 39.59 0.48 11.053 11.037 11.261 28.761 0.464 39.558z" />
<glyph unicode="&#xe603;" d="M300.229 218.065l194.224-247.906c3.375 1.408 6.558 3.503 9.325 6.271 11.053 11.037 11.261 28.777 0.464 39.574-1.632 1.615-96.424 126.496-145.899 190.817l-21.93 27.225-36.183-15.98zM254.369 263.942l15.948 36.183-40.614 32.872c-66.239 50.883-180.227 137.486-181.779 139.037-4.799 4.799-10.974 7.294-17.308 7.758h-4.255c-6.511-0.512-12.941-3.167-17.963-8.19-2.736-2.752-4.799-5.903-6.207-9.262l252.177-198.399z" />
<glyph unicode="&#xe604;" d="M172.677-12.389c7.502 7.502 0.032 27.129-0.224 27.369-2.383 2.399-30.68 66.56-35.975 73.086l-56.162-56.162 8.062-8.062c18.284-12.109 54.947-34.103 56.898-36.039 0.592-0.608 19.883-7.71 27.401-0.192z" />
<glyph unicode="&#xe605;" d="M451.471 419.279c27.129-27.161 7.15-91.177-19.307-117.666s-370.995-327.374-398.108-300.213c-27.129 27.145 273.42 372.051 299.893 398.541 26.457 26.474 90.409 46.484 117.522 19.339z" />
<glyph unicode="&#xe606;" d="M314.065 281.874c10.43-10.446 7.262-30.553-7.086-44.917-14.365-14.365-34.471-17.548-44.933-7.086-10.429 10.446-7.246 30.536 7.086 44.917 14.38 14.348 34.488 17.531 44.933 7.086z" />
<glyph unicode="&#xe607;" d="M451.471 419.279c-21.259 21.291-65.103 13.533-95.832-3.551l2.8-0.064c17.611-10.093 34.231-22.618 49.3-37.686 15.052-15.052 27.593-31.688 37.671-49.3l2-6.318c17.452 30.808 25.562 75.405 4.063 96.92z" />
<glyph unicode="&#xe608;" d="M512 224c0-141.385-114.615-256-256-256s-256 114.615-256 256c0 141.385 114.615 256 256 256s256-114.615 256-256z" />
<glyph unicode="&#xe609;" d="M407.5 252.1c-4.2 20.1-41 10.6-61.5 5.4l-2-16.5 63.5 11.1z" />
<glyph unicode="&#xe60a;" d="M406.1 251.9l1.4 0.2c-4.2 20.1-41 10.6-61.5 5.4l-0.1-0.9c20.3 5.2 55.1 13.8 60.2-4.7z" />
<glyph unicode="&#xe60b;" d="M439.7 177.8c-3.3-3.3-7.5-5.5-12.1-6.3v0c0 0-6.7-1.3-14.5-2.7 0.5 0.7 1.1 1.5 1.6 2.4 6.8 11.7 10.2 40.6 12.1 64.4l24.6 5.4c0 0 2.3-13 2.4-13.4 3.7-19.2-2.1-37.8-14.1-49.8z" />
<glyph unicode="&#xe60c;" d="M420 171.3c-1.8-1.8-3.3 0.8-5.5-0.2 6.8 11.7 10.2 40.6 12.1 64.4l5.9 1.3c0.6-3.6 2-11.3 2.1-11.7 3.9-19.1-2.6-41.7-14.6-53.8z" />
<glyph unicode="&#xe60d;" d="M451 239.7c-0.6-0.3-1.2-0.5-1.8-0.6l-22.4-4.2-0.3-0.1-4.9 25.9 6.8 1.3 15.9 3c0.4 0.1 0.7 0.1 1.1 0.1 3.2 0.2 6-1.7 6.5-4.4l2.8-14.8c0.3-2.6-1.2-5-3.7-6.2z" />
<glyph unicode="&#xe60e;" d="M454.3 247.1c-0.4-1.7-1.7-3.1-3.5-4-0.6-0.3-1.2-0.5-1.8-0.6l-22.8-4.3 0.1-3.5 22.8 4.3c0.7 0.1 1.3 0.3 1.8 0.6 2.5 1.2 4.1 3.7 3.6 6.2l-0.2 1.3z" />
<glyph unicode="&#xe60f;" d="M452.207 252.981l-28.448-6.129-0.779 3.617 28.448 6.128 0.779-3.617z" />
<glyph unicode="&#xe610;" d="M445.9 305.7l6.7-45.5 3 0.6 2.9 0.7z" />
<glyph unicode="&#xe611;" d="M457.5 251.7l-2.9-0.6 12.7-44.7-6.8 45.9z" />
<glyph unicode="&#xe612;" d="M457.3 262c-1.9-0.4-3.7-0.8-5.6-1.2-0.3-0.1-0.4-0.4-0.4-0.7 0.3-1.6 0.7-3.2 1-4.8l11 2.4c-0.4 2.6-2.7 5-6 4.3z" />
<glyph unicode="&#xe613;" d="M452.4 255.2c0.3-1.5 0.6-3.1 1-4.6 0-0.2 0.1-0.3 0.2-0.4s0.2-0.1 0.4-0.1c1.9 0.4 3.7 0.8 5.5 1.2 3.3 0.7 4.4 3.7 3.9 6.3l-11-2.4z" />
<glyph unicode="&#xe614;" d="M346 257.5c-23.3 7-60.1-7.7-93.6-25.7l3.6-9.8 88.9 20.7 1.1 14.8z" />
<glyph unicode="&#xe615;" d="M345.6 252l0.4 5.6c-23.3 7-60.1-7.7-93.6-25.7l0.2-0.6c33.8 15.5 70 27.2 93 20.7z" />
<glyph unicode="&#xe616;" d="M430.8 221.4l-292.2-73.1c-16.1-0.5-30.2-0.5-41.5-0.4-8.3 0.1-15.1 0.3-20.2 0.4-5.6 0.2-10.3 4.2-11.4 9.7-0.1 0.4-0.1 0.8-0.2 1.1l-1.7 18.1-19 40.9 134.9-13.8c51.8 14.5 161.3 38.5 161.3 38.5 30.2 9.7 68.6 18.9 81.2 18.1l8.5-38.1c0.2-0.5 0.3-1 0.3-1.4z" />
<glyph unicode="&#xe617;" d="M411 166.8c-2.1-0.5-4.2-1-6.3-1.3 0 0-26.4-5.1-35.3-6-11.1-1.2-25.5-2.3-41.9-3.3-20.4-1.3-44-2.5-68.5-3.5-41.1-1.8-84.8-3.2-120.4-4.3l292.2 73c4.4-21.9-4-43.2-19.8-54.6z" />
<glyph unicode="&#xe618;" d="M418.1 179.1c0 0-28-6.8-37.5-8.4-11.8-1.9-27.2-4-44.7-6.1-21.8-2.6-47-5.4-73.2-8.1-21.5-2.2-43.7-4.4-65.2-6.4 20.3 0.7 41.2 1.5 61.4 2.4 24.5 1.1 48.1 2.2 68.5 3.5 16.4 1.1 30.8 2.1 41.9 3.3 8.9 0.9 35.3 6 35.3 6 2.1 0.3 4.2 0.8 6.3 1.3 5.1 3.7 9.4 8.4 12.8 13.8-1.8-0.4-3.7-0.9-5.6-1.3z" />
<glyph unicode="&#xe619;" d="M241.9 191.1l-37.2-12.1-2.2 6.7c-0.6 1.9-0.1 4.1 1.3 6.1 1.5 2 3.8 3.6 6.5 4.5l27 8.8 4.6-14z" />
<glyph unicode="&#xe61a;" d="M203.8 177.3l-2.6 8c-0.8 2.3-0.2 5 1.5 7.3 1.7 2.2 4.2 4 7.2 5l28.3 9.2 5.4-16.5-39.8-13zM236.5 203.3l-25.7-8.3c-2.4-0.8-4.6-2.2-5.9-4-1.2-1.6-1.6-3.3-1.1-4.8l1.7-5.4 34.6 11.2-3.6 11.3z" />
<glyph unicode="&#xe61b;" d="M297.9 209.3l-35.8-11.6-2.2 6.7c-0.6 1.9-0.1 4.1 1.3 6.1 1.5 2 3.8 3.6 6.5 4.5l25.6 8.3 4.6-14z" />
<glyph unicode="&#xe61c;" d="M261.2 195.9l-2.6 8c-0.8 2.3-0.2 5 1.5 7.3 1.7 2.2 4.2 4 7.2 5l26.9 8.8 5.4-16.5-38.4-12.6zM292.5 221.5l-24.3-7.9c-2.4-0.8-4.6-2.2-5.9-4-1.2-1.6-1.6-3.3-1.1-4.8l1.7-5.4 33.2 10.8-3.6 11.3z" />
<glyph unicode="&#xe61d;" d="M256.3 215.8l-132.4-35.2c-0.9-0.3-1.9 0.1-2.6 0.8-0.6 0.7-0.8 1.8-0.4 2.7 1 2.3 3 4 5.4 4.7l57.5 16.7 72 18 0.5-7.7z" />
<glyph unicode="&#xe61e;" d="M44.7 218.1l92.1-26.3 22.1 6.5-112.3 19.6z" />
<glyph unicode="&#xe61f;" d="M46.6 217.9l112.3-19.6 23.5 7z" />
<glyph unicode="&#xe620;" d="M344.8 245.1l-0.2-1.2-9-46.3-8.1-41.5c-20.4-1.3-44-2.5-68.5-3.5l-3 70.9 88.8 21.6z" />
<glyph unicode="&#xe621;" d="M379.2 207.9l4.7-21.4 4.6 1.3-5.9 21.1z" />
<glyph unicode="&#xe622;" d="M386.3 209.9l-3.7-1 5.9-21.1 4.8 1.3z" />
<glyph unicode="&#xe623;" d="M418 166.1c0.6-13.4-9.8-24.7-23.2-25.2-13.4-0.6-24.7 9.8-25.2 23.2-0.6 13.4 9.8 24.7 23.2 25.2 13.3 0.5 24.6-9.8 25.2-23.2z" />
<glyph unicode="&#xe624;" d="M373 160.8c-0.6 0-1 0.4-1.1 1-0.5 12.7 8.8 23.5 20.8 24 0.6 0 1-0.4 1.1-1 0-0.6-0.4-1-1-1.1-10.9-0.5-19.3-10.3-18.8-21.9 0-0.5-0.4-1-1-1z" />
<glyph unicode="&#xe625;" d="M394.5 148.7c-9-0.4-16.7 6.6-17 15.6-0.4 9 6.6 16.7 15.6 17 9 0.4 16.7-6.6 17-15.6 0.4-8.9-6.6-16.6-15.6-17zM393.3 176.8c-6.5-0.3-11.5-5.8-11.2-12.2 0.3-6.5 5.8-11.5 12.2-11.2 6.5 0.3 11.5 5.8 11.2 12.2-0.2 6.4-5.7 11.5-12.2 11.2z" />
<glyph unicode="&#xe626;" d="M407.8 165.5c0 0.1 0 0.1 0 0.2-0.3 7.7-6.9 13.8-14.6 13.5l0.6-14.3 14 0.6z" />
<glyph unicode="&#xe627;" d="M393.8 164.8v0-0.1z" />
<glyph unicode="&#xe628;" d="M383.3 174.4l10.5-9.6h0.1l-0.6 14.3c0 0 0 0 0 0-4-0.2-7.5-2-10-4.7z" />
<glyph unicode="&#xe629;" d="M383.3 174.4c-2.3-2.6-3.7-6.1-3.6-9.9 0-0.1 0-0.2 0-0.4l14 0.7-10.4 9.6z" />
<glyph unicode="&#xe62a;" d="M393.8 164.8v0 0l-14-0.7c0.5-7.6 7-13.4 14.6-13.1 0 0 0 0 0 0 3.8 0.2 7.2 1.8 9.6 4.4 2.5 2.6 4 6.2 3.9 10l-14.1-0.6z" />
<glyph unicode="&#xe62b;" d="M395.7 164.9c0-1-0.8-1.9-1.8-2-1 0-1.9 0.8-2 1.8 0 1 0.8 1.9 1.8 2 1.1 0 2-0.8 2-1.8z" />
<glyph unicode="&#xe62c;" d="M111 179.1l-14-31.2c-8.3 0.1-15.1 0.3-20.2 0.4-5.6 0.2-10.3 4.2-11.4 9.7l3.9 9.8 41.7 11.3z" />
<glyph unicode="&#xe62d;" d="M111 179.1c0.1-2.5-41.5-11.2-41.6-11.3s5.6 8.4 18 11.9c12.4 3.4 23.6 1.8 23.6-0.6z" />
<glyph unicode="&#xe62e;" d="M332.8 89.1c1.6 0.1 3.1 0.1 4.4 0-0.3 0.2-0.5 0.4-0.5 0.6-0.1 1.4 7.4 2.1 16.6 2.4 5.7 0.2 12.2 0.9 15.5 0.7-1.1 0.3-2.3 0.6-2.1 1 1 1.6 10.9 2.8 25.9 3.4 4.5 0.2 8.7 0.2 12.4 0.2 11.6 0.7 21.8 0.2 27-1 1.4 0.4 3.1 0.7 4.9 0.8 4.6 0.3 8.4-0.7 8.5-2.2s-3.6-3-8.1-3.2c-1.1-0.1-2.2-0.1-3.2 0 0.2-0.2 0.4-0.5 0.4-0.7 0.1-1.7-5.3-2.5-12-2.9-4.2-0.3-8.8-1.1-11.3-0.9 0.8-0.3 1.7-0.8 1.6-1.2-0.7-1.9-7.8-3.4-18.8-4-11-0.7-19.9 0.4-20.1 2.3 0 0 0 0 0 0.1-14.8-0.5-27.6-0.1-34.3 0.9-1.9-0.4-4.2-0.6-6.8-0.7-6.3-0.2-11.5 0.6-11.5 1.8 0.1 1.1 5.2 2.3 11.5 2.6z" />
<glyph unicode="&#xe62f;" d="M384.6 105.6c0.5-7.5 7.1-13.2 14.8-12.7s13.6 6.9 13.1 14.4c-0.4 7.5-7.1 13.2-14.8 12.7s-13.6-7-13.1-14.4z" />
<glyph unicode="&#xe630;" d="M364.2 98c0.4-6.6 6.2-11.6 13-11.1 6.8 0.4 11.9 6 11.5 12.6s-6.2 11.6-13 11.2c-6.7-0.5-11.9-6.2-11.5-12.7z" />
<glyph unicode="&#xe631;" d="M384.2 95.1c-0.4 6.2-5.3 11-11 10.7-4.2-0.2-7.6-3.2-9-7.3-0.1 6.3 5 11.6 11.5 12 6.8 0.4 12.6-4.6 13-11.2 0.3-4.6-2.2-8.8-6.1-11 1.1 2.1 1.7 4.4 1.6 6.8z" />
<glyph unicode="&#xe632;" d="M406.7 100.5c0.3-4.8 4.5-8.5 9.5-8.2s8.8 4.4 8.5 9.3c-0.3 4.8-4.5 8.5-9.5 8.2s-8.8-4.5-8.5-9.3z" />
<glyph unicode="&#xe633;" d="M420.5 96.6c-0.3 4.4-3.8 7.7-8 7.5-1.8-0.1-3.4-0.9-4.6-2.1 0.4 4.2 3.6 7.6 7.8 7.8 4.6 0.3 8.6-3.4 8.9-8.2 0.2-3.6-1.7-6.8-4.6-8.3 0.4 1 0.6 2.1 0.5 3.3z" />
<glyph unicode="&#xe634;" d="M351.5 94c0.2-4.2 3.9-7.3 8.2-7.1 4.3 0.3 7.6 3.8 7.3 8-0.2 4.2-3.9 7.3-8.2 7.1s-7.6-3.8-7.3-8z" />
<glyph unicode="&#xe635;" d="M363.5 92.8c-0.2 3.4-3.2 5.9-6.6 5.7-2.4-0.1-4.5-1.6-5.4-3.7 0.2 3.8 3.3 7 7.3 7.2 4.3 0.3 8-2.9 8.2-7.1 0.2-4-2.8-7.5-6.9-8 2.1 1.2 3.5 3.4 3.4 5.9z" />
<glyph unicode="&#xe636;" d="M407.5 98.1c1.7 7.3-2.6 14.5-9.6 16.1-5.1 1.2-10.2-1-13.2-5.1 0 0.1 0 0.2 0 0.3 1.7 7.3 9.1 11.8 16.6 10.1s12.3-9 10.6-16.3c-0.8-3.4-2.8-6.1-5.4-8 0.4 0.9 0.8 1.9 1 2.9z" />
<glyph unicode="&#xe637;" d="M240 79c-2 0.1-3.9 0.1-5.7 0.1 0.4 0.2 0.6 0.5 0.6 0.7 0.1 1.9-9.4 2.7-21.3 3.3-7.4 0.4-15.6 1.3-20 1.2 1.4 0.3 3 0.8 2.7 1.2-1.3 2.1-14 3.8-33.4 4.7-5.8 0.3-11.2 0.4-16 0.4-15 1-28.1 0.6-34.8-0.9-1.7 0.6-3.9 1-6.3 1.1-5.9 0.4-10.8-0.8-10.9-2.8-0.1-1.9 4.5-3.8 10.4-4.3 1.5-0.1 2.9-0.1 4.1 0-0.3-0.3-0.5-0.6-0.5-0.9-0.2-2.2 6.8-3.2 15.4-3.9 5.4-0.4 11.3-1.5 14.5-1.3-1-0.4-2.2-0.9-2.1-1.5 0.8-2.5 10-4.5 24.1-5.4 14.1-1 25.7 0.2 25.9 2.7 0 0 0 0.1 0 0.1 19.1-0.8 35.6-0.5 44.2 0.6 2.4-0.5 5.4-0.8 8.7-1 8.1-0.4 14.8 0.6 14.9 2.2 0.2 1.6-6.3 3.3-14.5 3.7z" />
<glyph unicode="&#xe638;" d="M173.5 100.9c-0.7-9.6-9.3-16.9-19.2-16.2s-17.4 9.1-16.7 18.7c0.7 9.6 9.3 16.9 19.2 16.2s17.4-9 16.7-18.7z" />
<glyph unicode="&#xe639;" d="M199.6 90.9c-0.6-8.4-8.1-14.8-16.8-14.2s-15.3 8-14.7 16.4c0.6 8.5 8.1 14.8 16.8 14.2 8.8-0.6 15.3-8 14.7-16.4z" />
<glyph unicode="&#xe63a;" d="M173.9 87.5c0.6 8 6.9 14.1 14.3 13.6 5.4-0.4 9.8-4.3 11.5-9.5 0.2 8.1-6.2 15.1-14.7 15.7-8.7 0.6-16.2-5.7-16.8-14.2-0.4-6 2.7-11.3 7.7-14.2-1.5 2.5-2.2 5.5-2 8.6z" />
<glyph unicode="&#xe63b;" d="M145 94.8c-0.4-6.2-6-10.9-12.4-10.4s-11.2 5.8-10.8 12.1c0.4 6.2 6 10.9 12.4 10.4s11.2-5.9 10.8-12.1z" />
<glyph unicode="&#xe63c;" d="M127.2 89.9c0.4 5.6 5 9.9 10.3 9.5 2.3-0.2 4.4-1.2 5.9-2.7-0.4 5.4-4.6 9.8-10 10.2-6 0.4-11.1-4.3-11.6-10.5-0.3-4.6 2.1-8.8 5.9-10.8-0.4 1.3-0.6 2.8-0.5 4.3z" />
<glyph unicode="&#xe63d;" d="M216 85.7c-0.4-5.4-5.2-9.4-10.7-9s-9.7 5-9.3 10.4c0.4 5.3 5.2 9.4 10.7 9s9.7-5.1 9.3-10.4z" />
<glyph unicode="&#xe63e;" d="M200.6 84.2c0.3 4.3 4.2 7.6 8.6 7.2 3.1-0.2 5.7-2.2 6.9-4.8-0.2 4.9-4.1 9-9.3 9.4-5.5 0.4-10.3-3.6-10.7-9-0.4-5.2 3.5-9.7 8.8-10.3-2.8 1.4-4.5 4.3-4.3 7.5z" />
<glyph unicode="&#xe63f;" d="M143.9 91.6c-2 9.4 3.6 18.7 12.6 20.6 6.6 1.4 13.1-1.4 17-6.7 0 0.1 0 0.3-0.1 0.4-2 9.4-11.6 15.4-21.3 13.3s-15.9-11.5-13.9-20.9c0.9-4.3 3.5-7.9 6.9-10.3-0.5 1.1-0.9 2.3-1.2 3.6z" />
<glyph unicode="&#xe640;" d="M357.7 308.7c-3.6-0.1-7-0.5-10.1-1.1 0.7 0.8 1 1.6 1 2.4-0.1 5.6-17.1 6.2-38.3 5.4-13.2-0.5-28 0.6-35.6-0.7 2.4 1.3 5.2 2.9 4.7 4.1-2.6 5.9-25.3 8.3-59.9 7-10.3-0.4-20-1.2-28.5-2.3-26.7 0-50-4.1-61.8-10.1-3.2 1.3-7.1 2.1-11.3 2.1-10.5 0-19.1-4.7-19.1-10.5s8.5-10.5 19.1-10.5c2.6 0 5.1 0.3 7.4 0.8-0.5-0.9-0.8-1.8-0.8-2.8 0-6.7 12.4-8.3 27.8-8.3 9.6 0 20.3-2 25.9-0.8-1.8-1.4-3.8-3.3-3.5-4.8 1.8-7.3 18.3-11.2 43.5-11.2s45.6 6 45.6 13.5c0 0.1 0 0.2 0 0.2 34.1 1.6 63.3 6 78.5 11.2 4.4-0.9 9.8-1.4 15.6-1.1 14.5 0.5 26.2 4.8 26.1 9.6 0 5-11.8 8.4-26.3 7.9z" />
<glyph unicode="&#xe641;" d="M281 289c0-0.1 0-0.2 0-0.3-0.1-2.5-2-4.7-5.1-6.6 25.6 1.8 47.5 5 61.5 9-16.5-1.6-35.7-2.3-56.4-2.1z" />
<glyph unicode="&#xe642;" d="M224.4 274.7c-30.7 1.8-50.5 8-52.1 17.5-0.3 2 2.3 4.2 4.6 5.9-6.9-1.2-19.8 2.2-31.5 2.9-18.8 1.1-33.7 4-33.2 12.6 0 0.5 0.2 1.1 0.3 1.6-8-1.3-13.8-5.3-13.8-10.1 0-5.8 8.5-10.5 19.1-10.5 2.6 0 5.1 0.3 7.4 0.8-0.5-0.9-0.8-1.8-0.8-2.8 0-6.7 12.4-8.3 27.8-8.3 9.6 0 20.3-2 25.9-0.8-1.8-1.4-3.8-3.3-3.5-4.8 1.8-7.3 18.3-11.2 43.5-11.2 20.3 0 37.4 3.9 43.4 9.3-9.9-2-22.9-2.9-37.1-2.1z" />
<glyph unicode="&#xe643;" d="M377.4 297.5c-7.8-2.3-18.5-4.2-31.3-5.7 3.6-0.5 7.6-0.7 11.9-0.5 9.9 0.4 18.5 2.5 22.9 5.3-1.3 0.3-2.4 0.6-3.5 0.9z" />
<glyph unicode="&#xe644;" d="M236.7 346.5c0-17.2-14.4-31.1-32.1-31.1s-32.1 13.9-32.1 31.1 14.4 31.1 32.1 31.1c17.8 0 32.1-13.9 32.1-31.1z" />
<glyph unicode="&#xe645;" d="M284.4 331.9c0-15.077-12.581-27.3-28.1-27.3s-28.1 12.222-28.1 27.3c0 15.078 12.581 27.3 28.1 27.3s28.1-12.223 28.1-27.3z" />
<glyph unicode="&#xe646;" d="M239.1 322.7c0 14.4 10.6 26 23.6 26 9.6 0 17.9-6.3 21.6-15.4-0.7 14.5-13 26-28.1 26-15.5 0-28.1-12.2-28.1-27.3 0-10.6 6.3-19.8 15.4-24.3-2.8 4.1-4.4 9.3-4.4 15z" />
<glyph unicode="&#xe647;" d="M186.8 331.9c0-11.1-9.2-20.1-20.7-20.1-11.4 0-20.7 9-20.7 20.1s9.3 20.1 20.7 20.1c11.5 0 20.7-9 20.7-20.1z" />
<glyph unicode="&#xe648;" d="M155.7 321c0 10.1 7.7 18.2 17.2 18.2 4.1 0 7.9-1.6 10.9-4.1-1.5 9.6-9.4 16.9-19 16.9-10.6 0-19.3-9-19.3-20.1 0-8.3 4.9-15.4 11.8-18.5-1 2.3-1.6 4.9-1.6 7.6z" />
<glyph unicode="&#xe649;" d="M314.2 324.6c0-9.6-8-17.3-17.8-17.3s-17.8 7.8-17.8 17.3c0 9.6 8 17.3 17.8 17.3s17.8-7.7 17.8-17.3z" />
<glyph unicode="&#xe64a;" d="M286.9 320.1c0 7.7 6.4 14 14.4 14 5.6 0 10.5-3.1 12.8-7.7-0.9 8.7-8.5 15.6-17.8 15.6-9.9 0-17.8-7.8-17.8-17.3 0-9.3 7.5-16.8 16.9-17.3-5 2.1-8.5 7-8.5 12.7z" />
<glyph unicode="&#xe64b;" d="M185.3 326.2c-4.8 16.5 4.1 33.6 19.9 38.2 11.5 3.4 23.5-0.9 31-9.8-0.1 0.2-0.1 0.4-0.2 0.7-4.8 16.5-22.5 25.9-39.5 20.9s-26.9-22.4-22-38.9c2.2-7.6 7.2-13.6 13.5-17.5-1.1 2.1-2 4.2-2.7 6.4z" />
<glyph unicode="&#xe64c;" d="M471.144 93.947l-175.185 308.638c-8.534 15.046-24.483 24.32-41.769 24.32-17.303 0-33.252-9.275-41.787-24.32l-175.185-308.638c-8.444-14.865-8.335-33.108 0.262-47.892 8.597-14.766 24.42-23.869 41.516-23.869h350.361c17.105 0 32.909 9.103 41.516 23.869 8.606 14.784 8.706 33.026 0.271 47.892zM278.113 78.902c-5.87-5.22-12.842-7.866-20.7-7.866-7.957 0-14.992 2.61-20.934 7.757-6.069 5.274-9.157 12.661-9.157 21.964 0 8.164 2.908 15.209 8.643 20.925 5.726 5.726 12.824 8.634 21.097 8.634 8.255 0 15.407-2.89 21.259-8.606 5.861-5.735 8.841-12.788 8.841-20.952-0.009-9.175-3.053-16.518-9.049-21.856zM285.889 277.631l-7.632-87.403c-0.858-10.882-2.7-19.082-5.627-25.053-3.224-6.584-8.851-10.079-16.283-10.079-7.577 0-13.159 3.423-16.148 9.889-2.655 5.762-4.48 14.115-5.59 25.576l-5.69 85.064c-1.075 16.807-1.607 28.538-1.607 35.863 0 10.584 2.881 19.029 8.561 25.098 5.734 6.123 13.348 9.239 22.596 9.239 11.416 0 19.218-4.146 23.21-12.31 3.666-7.532 5.455-17.936 5.455-31.798 0.018-7.857-0.406-15.949-1.247-24.086z" />
<glyph unicode="&#xe64d;" d="M512 224c0-141.385-114.615-256-256-256s-256 114.615-256 256c0 141.385 114.615 256 256 256s256-114.615 256-256z" />
<glyph unicode="&#xe64e;" d="M312.286 169.471v41.941h35.837v-12.813h-21.559v-1.848h21.028v-12.626h-21.028v-2.434h21.559v-12.22z" />
<glyph unicode="&#xe64f;" d="M346.123 209.412v-8.814h-21.559v-5.847h21.028v-8.626h-21.028v-6.433h21.559v-8.221h-31.837v37.941h31.837zM350.123 213.412h-39.837v-45.941h39.837v16.221h-0.531v12.906h0.531v16.814z" />
<glyph unicode="&#xe650;" d="M273.386 275.149h14.278v-42.136h-14.278v42.136z" />
<glyph unicode="&#xe651;" d="M285.664 273.149v-38.136h-10.278v38.136h10.278zM289.664 277.149h-18.278v-46.136h18.278v46.136z" />
<glyph unicode="&#xe652;" d="M258.413 233.146v9.298c-0.081 0.747-0.671 3.885-4.801 3.885h-7.938v-13.183h-14.204v42.004h26.674c0.217 0.020 0.684 0.054 1.321 0.054 6.622 0 13.697-3.462 13.697-13.177 0-4.528-2.24-7.369-4.182-8.981 1.646-1.605 3.428-4.312 3.428-8.513v-11.386l-13.995-0.001zM254.226 259.267c2.186 0 3.581 1.051 3.581 1.601 0 0.552-1.395 1.607-3.581 1.607h-8.551v-3.208h8.551z" />
<glyph unicode="&#xe653;" d="M259.466 273.203c3.223 0 11.697-0.971 11.697-11.177 0-6.56-5.715-8.869-5.715-8.869s4.961-2.191 4.961-8.625v-9.386h-9.997v7.39c0 0-0.414 5.793-6.8 5.793h-9.938v-13.183h-10.204v38.004h24.771c0.001-0.001 0.468 0.053 1.225 0.053zM243.675 257.266h10.551c3.055 0 5.581 1.612 5.581 3.601 0 1.996-2.525 3.607-5.581 3.607h-10.551v-7.208zM259.466 277.203c-0.63 0-1.119-0.030-1.407-0.053h-28.588v-46.004h18.204v13.183h5.938c0.621 0 2.484 0 2.8-2.035v-11.148h17.997v13.386c0 3.581-1.163 6.359-2.667 8.389 1.888 2.115 3.42 5.125 3.42 9.105 0 11.202-8.456 15.177-15.697 15.177v0z" />
<glyph unicode="&#xe654;" d="M194.318 233.146v42.003h35.845v-12.869h-21.575v-1.856h21.028v-12.616h-21.028v-2.435h21.575v-12.227z" />
<glyph unicode="&#xe655;" d="M228.162 273.149v-8.869h-21.574v-5.855h21.028v-8.617h-21.028v-6.435h21.574v-8.228h-31.844v38.004h31.844zM232.162 277.149h-39.844v-46.004h39.844v16.228h-0.546v12.907h0.546v16.869z" />
<glyph unicode="&#xe656;" d="M379.751 233.146l-13.086 20.54v-20.54h-23.3l-3.604 7.976h-16.059l-3.545-7.976h-17.426l-0.134 0.018c-0.155 0.021-15.465 2.302-15.465 19.923 0 20.038 13.574 22.187 17.734 22.368l0.073 0.003 0.104 0.025 14.796-0.386v-7.812l3.509 7.863h16.893l11.998-27.031v27.031h17.522l12.896-20.175v20.175h14.276v-42.004l-17.182 0.002zM307.527 262.475c-0.511-0.011-4.976-0.285-5.594-6.502-0.082-0.874-0.124-1.699-0.124-2.439 0.023-6.651 3.4-7.421 5.938-7.421 1.093 0 2.107 0.184 2.8 0.351l7.201 16.136-10.221-0.125zM333.651 254.829l-1.882 4.343-1.932-4.343h3.814z" />
<glyph unicode="&#xe657;" d="M305.259 273.478l12.582-0.328v-8.549l-10.337-0.125c0 0-6.733 0-7.56-8.303-0.088-0.949-0.134-1.829-0.134-2.638 0.028-7.859 4.432-9.421 7.938-9.421 2.229 0 4.095 0.631 4.244 0.677l12.656 28.36h14.294l15.299-34.466v34.466h14.426l15.992-25.017v25.017h10.277v-38.004h-14.087l-16.183 25.401v-25.401h-20.010l-3.603 7.976h-18.65l-3.545-7.976h-15.991c0 0-13.734 1.863-13.734 17.941 0.001 21.094 15.58 20.257 16.126 20.39zM326.759 252.829h9.938l-4.903 11.319-5.035-11.319zM304.831 277.49l-0.176-0.043c-4.75-0.239-19.521-2.741-19.521-24.36 0-15.481 11.248-21.098 17.196-21.905l0.268-0.036h18.861l3.545 7.975h13.468l3.603-7.976h26.592v15.679l9.989-15.679h20.281v46.004h-18.277v-15.333l-9.802 15.334h-20.618v-19.595l-8.698 19.595h-19.49l-0.211-0.474v0.371l-17.010 0.443zM307.748 248.112c-1.561 0-3.919 0-3.938 5.435 0 0.662 0.039 1.424 0.116 2.253 0.452 4.543 3.259 4.675 3.577 4.675l7.146 0.087-5.506-12.339c-0.424-0.065-0.901-0.111-1.395-0.111v0z" />
<glyph unicode="&#xe658;" d="M297.313 169.4v9.307c-0.081 0.747-0.672 3.884-4.807 3.884h-7.924v-13.19h-14.22v42.012h26.683c0.217 0.020 0.683 0.054 1.32 0.054 6.622 0 13.697-3.464 13.697-13.184 0-4.537-2.25-7.384-4.193-8.996 1.627-1.603 3.382-4.302 3.382-8.492v-11.395h-13.938zM293.127 195.522c2.187 0 3.581 1.051 3.581 1.601s-1.395 1.601-3.581 1.601h-8.544v-3.201l8.544-0.001z" />
<glyph unicode="&#xe659;" d="M298.366 209.465c3.222 0 11.697-0.971 11.697-11.183 0-6.56-5.715-8.876-5.715-8.876s4.903-2.178 4.903-8.612v-9.393h-9.938v7.398c0 0-0.414 5.792-6.807 5.792h-9.923v-13.19h-10.22v38.011h24.779c0.001 0 0.468 0.053 1.224 0.053zM282.583 193.523h10.543c3.057 0 5.582 1.605 5.582 3.601s-2.525 3.601-5.582 3.601h-10.543v-7.202zM298.366 213.465c-0.629 0-1.118-0.030-1.407-0.053h-28.596v-46.011h18.22v13.19h5.923c0.622 0 2.49 0 2.807-2.034v-11.155h17.938v13.393c0 3.567-1.145 6.334-2.627 8.359 1.897 2.118 3.439 5.136 3.439 9.129 0.001 11.206-8.455 15.182-15.697 15.182v0z" />
<glyph unicode="&#xe65a;" d="M221.506 169.471l-9.97 10.369-10.040-10.369h-40.818v42.067h40l10.87-11.227 10.919 11.163h6.667l2 0.063h24.675c0.194 0.016 0.604 0.043 1.167 0.043 6.698 0 13.856-3.476 13.856-13.229 0-12.307-5.101-16.668-19.49-16.668h-8.006v-12.213l-21.83 0.001zM193.604 181.691l8.146 8.478-5.833 6.038v-12.082h-20.961v-2.434h18.648zM229.136 181.916v16.473l-7.886-8.219 7.886-8.254zM251.89 195.592c2.183 0 3.575 1.052 3.575 1.602s-1.392 1.601-3.575 1.601h-8.551v-3.202l8.551-0.001zM195.392 196.751l-1.785 1.848h-18.652v-1.848h20.437z" />
<glyph unicode="&#xe65b;" d="M256.979 209.581c3.108 0 11.857-0.916 11.857-11.229 0-11.193-4.298-14.668-17.49-14.668h-10.006v-12.212h-18.981l-10.816 11.248-10.891-11.248h-37.971v38.067h37.152l11.71-12.094 11.768 12.030h7.826v0.063h24.763c0 0 0.408 0.043 1.079 0.043zM231.136 176.928v26.434l-12.655-13.189 12.655-13.245zM241.339 193.592h10.551c3.064 0 5.575 1.605 5.575 3.601s-2.511 3.601-5.575 3.601h-10.551v-7.202zM172.955 194.751h20.962v-8.626h-20.962v-6.433h21.501l10.071 10.481-10.071 10.425h-21.501v-5.847zM256.979 213.581c-0.556 0-0.987-0.024-1.245-0.043h-28.598v-0.063h-5.509l-10.071-10.295-10.030 10.358h-42.847v-46.067h43.666l9.187 9.488 9.123-9.488h24.684v12.212h6.006c12.899 0 21.49 3.175 21.49 18.668 0 11.241-8.541 15.23-15.856 15.23v0zM224.018 190.167l3.117 3.249v-6.511l-3.117 3.262zM197.917 189.067v2.191l1.055-1.093-1.055-1.098z" />
<glyph unicode="&#xe65c;" d="M406.149 169.485c-0.653 0-1.111 0.027-1.305 0.042h-20.098v12.75l18.080-0.012c0.034-0.004 0.328-0.031 0.748-0.031 0.471 0 2.819 0.051 2.819 1.058-0.25 0.356-2.359 1.159-6.212 1.159-0.159 0-0.272-0.002-0.329-0.003-0.141-0.010-0.501-0.030-1.025-0.030-7.328 0-15.159 3.507-15.159 13.349 0 10.123 7.725 13.716 14.339 13.716 0.201 0 0.345-0.005 0.422-0.008h21.489v-12.876h-17.915l-0.185 0.035c0 0-0.532 0.096-1.2 0.096-1.682 0-1.844-0.463-1.859-0.753 0.337-0.291 1.739-0.801 4.482-0.801 0.469 0 0.779 0.017 0.81 0.018-0.001 0 0.444 0.031 1.183 0.031 3.482 0 11.939-0.674 15.24-6.914 0.846-1.599 1.274-3.438 1.274-5.469 0-2.518-0.398-4.79-1.186-6.755-3.109-7.764-11.115-8.602-14.413-8.602z" />
<glyph unicode="&#xe65d;" d="M398.008 209.482c0.241 0 0.376-0.008 0.376-0.008h19.536v-8.876h-15.727c0 0-0.688 0.131-1.574 0.131-1.605 0-3.86-0.429-3.86-2.838 0-2.445 4.493-2.715 6.483-2.715 0.566 0 0.93 0.022 0.93 0.022s0.396 0.028 1.063 0.028c2.852 0 10.646-0.506 13.473-5.85 0.654-1.236 1.042-2.728 1.042-4.534 0-2.412-0.392-4.387-1.042-6.011-2.659-6.637-9.698-7.345-12.557-7.345-0.767 0-1.225 0.042-1.225 0.042h-18.178v8.751h15.86c0 0 0.391-0.043 0.969-0.043 1.648 0 4.818 0.352 4.818 3.058 0 2.96-6.473 3.159-8.212 3.159-0.27 0-0.426-0.005-0.426-0.005s-0.345-0.028-0.928-0.028c-3.139 0-13.16 0.824-13.16 11.348 0 11.141 10.234 11.714 12.339 11.714zM398.008 213.482v0c-1.471 0-5.28-0.211-8.871-2.166-3.407-1.855-7.467-5.711-7.467-13.55 0-7.091 3.621-11.318 8.272-13.488h-7.194v-16.751h22.028c0.263-0.018 0.739-0.042 1.375-0.042 7.715 0 13.797 3.685 16.27 9.858 0.882 2.202 1.329 4.725 1.329 7.499 0 2.36-0.507 4.515-1.506 6.404-1.3 2.457-3.245 4.167-5.397 5.352h5.073v16.876h-23.45c-0.102 0.004-0.258 0.008-0.462 0.008v0 0z" />
<glyph unicode="&#xe65e;" d="M178.327 233.146v19.57l-9.547-19.57h-10.86l-9.617 19.521v-19.521h-23.442l-3.537 7.976h-16.051l-3.611-7.976h-16.83l20.068 42.004h16.914l12.22-27.495v27.495h19.389l9.954-20.934 9.901 20.934h19.393v-42.004h-14.344zM115.209 254.829l-1.904 4.343-1.909-4.343h3.813z" />
<glyph unicode="&#xe65f;" d="M190.67 273.149v-38.004h-10.343v26.232l-12.796-26.232h-8.366l-12.861 26.106v-26.106h-20.141l-3.537 7.976h-18.642l-3.611-7.976h-12.369l18.157 38.004h14.353l15.52-34.919v34.919h16.125l11.223-23.601 11.163 23.601h16.125zM108.332 252.829h9.938l-4.961 11.319-4.977-11.319zM194.67 277.149h-22.659l-8.64-18.267-8.686 18.266h-22.652v-20.070l-8.92 20.070h-19.475l-21.978-46.002h21.292l3.611 7.976h13.46l3.537-7.976h26.743v12.935l6.373-12.935h13.353l6.297 12.908v-12.908h18.343v46.003h0.001z" />
<glyph unicode="&#xe660;" d="M370.163 169.485c-0.657 0-1.124 0.028-1.317 0.042h-20.085v12.75l18.141-0.013c0.034-0.004 0.322-0.030 0.733-0.030 0.646 0 2.758 0.076 2.758 1.058-0.25 0.356-2.358 1.159-6.211 1.159-0.159 0-0.272-0.002-0.329-0.003-0.141-0.010-0.501-0.030-1.025-0.030-7.329 0-15.161 3.507-15.161 13.349 0 10.123 7.732 13.716 14.354 13.716 0.201 0 0.345-0.005 0.422-0.008h21.549v-12.876h-17.972l-0.185 0.035c0 0-0.535 0.096-1.206 0.096-1.691 0-1.854-0.463-1.87-0.753 0.337-0.291 1.739-0.801 4.482-0.801 0.469 0 0.779 0.017 0.81 0.018 0 0.001 0.446 0.031 1.186 0.031 7.99 0 16.527-3.253 16.527-12.383 0-11.322-8.059-15.357-15.601-15.357z" />
<glyph unicode="&#xe661;" d="M362.020 209.482c0.242 0 0.376-0.008 0.376-0.008h19.595v-8.876h-15.785c0 0-0.69 0.131-1.578 0.131-1.609 0-3.871-0.429-3.871-2.838 0-2.445 4.493-2.715 6.483-2.715 0.566 0 0.93 0.022 0.93 0.022s0.398 0.028 1.067 0.028c3.518 0 14.526-0.769 14.526-10.384 0-12.268-10.041-13.356-13.6-13.356-0.768 0-1.24 0.042-1.24 0.042h-18.163v8.751h15.918c0 0 0.386-0.043 0.957-0.043 1.627 0 4.758 0.352 4.758 3.058 0 2.96-6.473 3.159-8.212 3.159-0.27 0-0.426-0.005-0.426-0.005s-0.345-0.028-0.928-0.028c-3.139 0-13.16 0.824-13.16 11.348 0 11.141 10.246 11.714 12.353 11.714zM362.020 213.482v0c-1.472 0-5.284-0.211-8.878-2.165-3.41-1.854-7.475-5.711-7.475-13.551 0-7.091 3.621-11.318 8.272-13.488h-7.179v-16.751h22.016c0.263-0.018 0.745-0.042 1.387-0.042 8.508 0 17.6 4.56 17.6 17.356 0 5.238-2.474 9.304-6.852 11.757h5.080v16.876h-23.509c-0.101 0.004-0.257 0.008-0.462 0.008v0 0z" />
<glyph unicode="&#xe662;" d="M473.6 384c-25.6 0-296.637 0-448 0-12.8 0-25.6-12.8-25.6-25.6v-256c0-25.6 12.8-38.4 38.4-38.4 142.793 0 409.6 0 435.2 0s38.4 12.8 38.4 38.4v243.2c0 25.6-12.8 38.4-38.4 38.4z" />
<glyph unicode="&#xe663;" d="M43.264 266.8l-9.917 24.163-9.859-24.163h19.776zM261.715 276.419c-1.99-1.209-4.346-1.248-7.168-1.248h-17.6v13.462h17.84c2.525 0 5.159-0.112 6.87-1.095 1.878-0.883 3.043-2.761 3.043-5.36 0-2.646-1.107-4.777-2.986-5.76 0 0 1.878 0.983 0 0v0 0zM387.271 266.8l-10.026 24.163-9.971-24.163h19.997zM153.226 240.647h-14.851l-0.054 47.472-21.008-47.472h-12.72l-21.063 47.513v-47.513h-29.465l-5.568 13.52h-30.166l-5.625-13.52h-15.735l25.942 60.611h21.527l24.64-57.386v57.386h23.645l18.96-41.117 17.417 41.117h24.121l0.003-60.611zM212.419 240.647h-48.397v60.611h48.397v-12.621h-33.907v-10.925h33.094v-12.426h-33.094v-12.105h33.911v-12.535h-0.003zM280.659 284.931c0-9.664-6.451-14.656-10.208-16.157 3.171-1.207 5.878-3.337 7.168-5.104 2.045-3.014 2.4-5.709 2.4-11.12v-11.907h-14.611l-0.055 7.645c0 3.648 0.349 8.893-2.288 11.808-2.118 2.131-5.344 2.595-10.56 2.595h-15.552v-22.045h-14.489v60.611h33.322c7.405 0 12.861-0.195 17.543-2.903 4.582-2.71 7.331-6.662 7.331-13.424 0 0 0 6.762 0 0v0 0zM303.843 240.647h-14.784v60.611h14.784v-60.611zM475.344 240.647h-20.531l-27.462 45.491v-45.491h-29.504l-5.639 13.52h-30.096l-5.469-13.52h-16.954c-7.043 0-15.959 1.559-21.008 6.704-5.091 5.145-7.741 12.119-7.741 23.139 0 8.989 1.584 17.207 7.811 23.699 4.685 4.839 12.019 7.069 22.003 7.069h14.026v-12.989h-13.731c-5.286 0-8.272-0.787-11.149-3.591-2.471-2.553-4.163-7.376-4.163-13.731 0-6.493 1.289-11.174 3.984-14.233 2.231-2.4 6.285-3.127 10.096-3.127h6.505l20.419 47.667h21.709l24.528-57.331v57.331h22.058l25.466-42.214v42.214h14.839v-60.608h0.003zM-3.197 228.739h24.755l5.581 13.463h12.496l5.568-13.463h48.704v10.291l4.349-10.336h25.283l4.349 10.489v-10.445h121.040l-0.058 22.099h2.343c1.638-0.058 2.119-0.208 2.119-2.915v-19.184h62.601v5.145c5.050-2.707 12.902-5.145 23.238-5.145h26.336l5.635 13.463h12.496l5.51-13.463h50.752v12.787l7.687-12.787h40.669v84.534h-40.25v-9.984l-5.635 9.984h-41.299v-9.984l-5.175 9.984h-55.789c-9.337 0-17.546-1.303-24.179-4.938v4.938h-38.496v-4.938c-4.221 3.744-9.968 4.938-16.361 4.938h-140.649l-9.437-21.834-9.693 21.834h-44.301v-9.984l-4.867 9.984h-37.779l-17.546-40.192 0.003-44.343zM512.128 184.106h-26.403c-2.637 0-4.387-0.099-5.863-1.094-1.529-0.983-2.118-2.438-2.118-4.361 0-2.288 1.289-3.843 3.168-4.515 1.529-0.531 3.171-0.688 5.584-0.688l7.853-0.211c7.923-0.195 13.213-1.558 16.438-4.88 0.586-0.464 0.941-0.983 1.344-1.501v17.251zM512.128 144.137c-3.52-5.146-10.377-7.757-19.661-7.757h-27.978v13.002h27.865c2.765 0 4.697 0.365 5.863 1.501 1.008 0.938 1.712 2.301 1.712 3.955 0 1.767-0.704 3.168-1.769 4.010-1.053 0.925-2.582 1.344-5.104 1.344-13.603 0.464-30.576-0.419-30.576 18.765 0 8.793 5.584 18.051 20.787 18.051h28.858v12.061h-26.813c-8.093 0-13.968-1.939-18.131-4.95v4.95h-39.661c-6.342 0-13.786-1.571-17.309-4.95v4.95h-70.819v-4.95c-5.635 4.067-15.146 4.95-19.536 4.95h-46.714v-4.95c-4.457 4.317-14.375 4.95-20.419 4.95h-52.279l-11.965-12.947-11.207 12.947h-78.096v-84.595h76.627l12.327 13.152 11.613-13.152 47.232-0.041v19.901h4.643c6.265-0.096 13.658 0.157 20.179 2.976v-22.832h38.96v22.048h1.882c2.4 0 2.634-0.099 2.634-2.496v-19.552h118.349c7.514 0 15.366 1.923 19.719 5.414v-5.414h37.539c7.811 0 15.44 1.094 21.245 3.901v15.76h0.003zM454.336 168.355c2.822-2.918 4.333-6.605 4.333-12.845 0-13.043-8.147-19.13-22.759-19.13h-28.218v13.002h28.106c2.749 0 4.697 0.365 5.917 1.501 0.995 0.938 1.712 2.301 1.712 3.955 0 1.767-0.774 3.168-1.767 4.010-1.107 0.925-2.637 1.344-5.159 1.344-13.549 0.464-30.515-0.419-30.515 18.765 0 8.793 5.526 18.051 20.714 18.051h29.043v-12.902h-26.576c-2.634 0-4.349-0.099-5.805-1.094-1.587-0.983-2.176-2.438-2.176-4.361 0-2.288 1.347-3.843 3.171-4.515 1.529-0.531 3.171-0.688 5.639-0.688l7.798-0.211c7.859-0.195 13.257-1.555 16.541-4.88 0 0-3.283 3.325 0 0v0 0zM323.606 172.099c-1.939-1.149-4.336-1.248-7.155-1.248h-17.6v13.616h17.84c2.579 0 5.161-0.055 6.915-1.094 1.878-0.983 3.002-2.861 3.002-5.453-0.003-2.595-1.127-4.685-3.002-5.821 0 0 1.875 1.136 0 0v0 0zM332.355 164.557c3.226-1.19 5.863-3.325 7.098-5.091 2.045-2.96 2.342-5.721 2.4-11.065v-12.019h-14.544v7.584c0 3.648 0.352 9.046-2.342 11.865-2.118 2.173-5.344 2.691-10.63 2.691h-15.481v-22.144h-14.557v60.63h33.45c7.334 0 12.675-0.323 17.43-2.861 4.573-2.762 7.45-6.547 7.45-13.462-0.007-9.677-6.457-14.615-10.272-16.128 0 0 3.815 1.514 0 0v0 0zM350.656 197.008h48.355v-12.538h-33.926v-11.021h33.097v-12.368h-33.097v-12.064l33.926-0.055v-12.579h-48.355v60.624zM252.909 169.031h-18.723v15.44h18.889c5.232 0 8.861-2.131 8.861-7.433 0.003-5.245-3.459-8.007-9.027-8.007v0 0 0zM219.757 141.894l-22.243 24.695 22.243 23.911v-48.605zM162.314 149.014h-35.619v12.064h31.808v12.368h-31.808v11.021h36.323l15.846-17.667-16.55-17.786zM277.495 177.034c0-16.841-12.567-20.32-25.229-20.32h-18.077v-20.336h-28.16l-17.84 20.070-18.541-20.070h-57.386v60.63h58.269l17.824-19.872 18.429 19.872h46.294c11.497 0 24.416-3.184 24.416-19.974 0 0 0 16.791 0 0v0 0z" />
<glyph unicode="&#xe664;" d="M482.722 376.802c13.854 0 25.126-11.271 25.126-25.126v-257.9c0-13.854-11.271-25.126-25.126-25.126h-451.732c-13.854 0-25.126 11.271-25.126 25.126v257.9c0 13.854 11.271 25.126 25.126 25.126h451.732zM482.722 381.802h-451.732c-16.638 0-30.126-13.488-30.126-30.126v-257.9c0-16.639 13.488-30.126 30.126-30.126h451.732c16.639 0 30.126 13.487 30.126 30.126v257.9c0 16.638-13.488 30.126-30.126 30.126v0z" />
<glyph unicode="&#xe665;" d="M263.488 238.974v10.115c0 0-0.535 7.92-8.802 7.92h-12.852v-18.035h-13.193v51.994h32.030c0 0 16.717 2.024 16.717-15.218 0-8.975-7.39-12.139-7.39-12.139s6.416-2.997 6.416-11.795v-12.841h-12.926zM241.835 269.238h13.643c3.962 0 7.219 2.201 7.219 4.926 0 2.73-3.257 4.93-7.219 4.93h-13.643v-9.856z" />
<glyph unicode="&#xe666;" d="M419.223 238.974l-20.938 34.752v-34.752h-25.864l-4.668 10.908h-24.106l-4.583-10.908h-20.679c0 0-17.768 2.549-17.768 24.545 0 28.862 20.154 27.716 20.851 27.893l16.278-0.444v-11.7l-13.367-0.172c0 0-8.715 0-9.776-11.355-0.124-1.303-0.18-2.501-0.171-3.614 0.047-17.577 15.257-12.12 15.754-11.958l16.364 38.799h18.472l19.792-47.159v47.159h18.655l20.679-34.227v34.227h13.29v-51.994h-18.215zM349.279 263.166h12.84l-6.329 15.486-6.511-15.486z" />
<glyph unicode="&#xe667;" d="M159.92 238.974v35.893l-16.536-35.893h-10.821l-16.631 35.72v-35.72h-26.044l-4.573 10.908h-24.107l-4.664-10.908h-14.43l21.906 51.994h18.569l20.058-47.774v47.774h20.852l14.521-32.289 14.436 32.289h20.851v-51.994h-13.387zM66.836 263.166h12.845l-6.42 15.486-6.425-15.486z" />
<glyph unicode="&#xe668;" d="M180.6 238.974v51.993h41.186v-12.139h-27.896v-8.005h27.19v-11.791h-27.19v-8.802h27.896v-11.256h-41.186z" />
<glyph unicode="&#xe669;" d="M282.85 238.797v52.17h13.28v-52.17h-13.28z" />
<glyph unicode="&#xe66a;" d="M314.432 150.811v10.12c0 0-0.534 7.914-8.802 7.914h-12.842v-18.034h-13.204v51.998h32.030c0 0 16.718 2.023 16.718-15.223 0-8.974-7.389-12.145-7.389-12.145s6.34-2.988 6.34-11.78v-12.851h-12.851zM292.788 181.075h13.644c3.952 0 7.208 2.195 7.208 4.926 0 2.729-3.256 4.927-7.208 4.927h-13.644v-9.853z" />
<glyph unicode="&#xe66b;" d="M226.445 150.896h-11.533l-13.977 15.401-14.091-15.401h-49.092v52.086h48.042l15.142-16.542 15.219 16.456h10.119v0.086h32.022c0 0 16.718 1.851 16.718-15.301 0-15.313-5.548-20.067-22.619-20.067h-12.926v-16.718h-13.024zM209.909 176.492l16.363-18.12v36.165l-16.363-18.045zM151.042 162.151h27.801l13.023 14.341-13.023 14.264h-27.801v-8.001h27.095v-11.801h-27.095v-8.803zM239.468 181.17h13.633c3.962 0 7.218 2.196 7.218 4.926 0 2.721-3.256 4.927-7.218 4.927h-13.633v-9.853z" />
<glyph unicode="&#xe66c;" d="M404.441 150.982h-23.496v11.973h20.595c0 0 7.39-0.88 7.39 4.123 0 4.679-11.17 4.316-11.17 4.316s-18.216-1.586-18.216 15.485c0 16.984 16.449 16.016 16.449 16.016h25.347v-12.14h-20.41c0 0-7.046 1.412-7.046-3.705 0-4.296 9.585-3.685 9.585-3.685s20.153 1.489 20.153-14.167c0-16.794-12.984-18.283-17.585-18.283-0.993 0.001-1.596 0.067-1.596 0.067z" />
<glyph unicode="&#xe66d;" d="M333.794 150.896v51.913h41.168v-12.053h-27.889v-8.001h27.191v-11.801h-27.191v-8.803h27.889v-11.255h-41.168z" />
<glyph unicode="&#xe66e;" d="M450.984 150.982h-23.495v11.973h20.507c0 0 7.477-0.88 7.477 4.123 0 4.679-11.169 4.316-11.169 4.316s-18.218-1.586-18.218 15.485c0 16.984 16.449 16.016 16.449 16.016h25.262v-12.14h-20.334c0 0-7.038 1.412-7.038-3.705 0-4.296 9.596-3.685 9.596-3.685s20.144 1.489 20.144-14.167c0-16.794-12.983-18.283-17.584-18.283-0.995 0.001-1.597 0.067-1.597 0.067z" />
<glyph unicode="&#xe66f;" d="M466.647 360.5c0 6.439-5.218 11.657-11.655 11.657h-391.185c-6.438 0-11.657-5.219-11.657-11.657v-257.766h414.498v257.766h-0.001z" />
<glyph unicode="&#xe670;" d="M63.806 76.714h391.185c-32.622 0 11.655 3.262 11.655 7.288v20.238h-414.498v-20.238c0-4.024 5.219-7.288 11.658-7.288z" />
<glyph unicode="&#xe671;" d="M71.9 352.728h374.994v-231.214h-374.993v231.214z" />
<glyph unicode="&#xe672;" d="M495.35 84.418c-6.372-4.353-6.372-4.353-12.167-6.528h-457.112c-5.213 1.863-8.111 3.727-12.167 6.528l-13.903 9.32c0 3.608 5.446 6.53 12.165 6.53h486.662c6.719 0 12.165-2.921 12.165-6.53l-15.642-9.32z" />
<glyph unicode="&#xe673;" d="M186.334 282.474l0.987 32.522c-0.332 0.004-0.656 0.025-0.987 0.025-39.471 0-72.221-28.684-78.596-66.338l31.442-11.792c0.851 25.318 21.629 45.583 47.154 45.583z" />
<glyph unicode="&#xe674;" d="M229.893 253.462l27.379 18.227c-12.863 25.009-38.547 42.324-68.378 43.266l0.931-32.626c18.106-1.324 33.374-12.851 40.068-28.867z" />
<glyph unicode="&#xe675;" d="M188.893 314.956c-0.525 0.018-1.049 0.034-1.573 0.040l-0.987-32.522c1.176 0 2.337-0.059 3.49-0.144l-0.93 32.626z" />
<glyph unicode="&#xe676;" d="M266.075 235.281c0 12.536-2.901 24.392-8.057 34.946l-27.99-17.105c2.25-5.505 3.501-11.526 3.501-17.84 0-26.065-21.131-47.192-47.194-47.192-12.931 0-24.644 5.202-33.168 13.627l-23.014-23.014c14.413-14.314 34.263-23.161 56.182-23.161 44.039-0.001 79.74 35.701 79.74 79.74z" />
<glyph unicode="&#xe677;" d="M229.893 253.462c0.048-0.112 0.088-0.229 0.135-0.34l27.991 17.105c-0.24 0.493-0.499 0.976-0.747 1.463l-27.379-18.227z" />
<glyph unicode="&#xe678;" d="M139.142 235.281c0 0.539 0.022 1.076 0.041 1.609l-1.601 0.601-30.946-0.311c-0.016-0.632-0.040-1.264-0.040-1.9 0-22.122 9.010-42.136 23.558-56.58l23.014 23.014c-8.657 8.557-14.025 20.431-14.025 33.566z" />
<glyph unicode="&#xe679;" d="M107.739 248.683c-0.636-3.752-1.008-7.593-1.103-11.502l30.946 0.311-29.842 11.191z" />
<glyph unicode="&#xe67a;" d="M226.459 303.491c0-5.391-4.37-9.762-9.762-9.762s-9.762 4.37-9.762 9.762c0 5.392 4.37 9.763 9.762 9.763s9.762-4.37 9.762-9.763z" />
<glyph unicode="&#xe67b;" d="M215.166 305.935l36.629 22.924 3.062-4.888-36.629-22.923z" />
<glyph unicode="&#xe67c;" d="M250.871 322.575v5.769h107.4v-5.769z" />
<glyph unicode="&#xe67d;" d="M285.591 278.677h56.414v-49.828h-56.414v49.827z" />
<glyph unicode="&#xe67e;" d="M351.769 272.95h68.35v-6.674h-68.35v6.674z" />
<glyph unicode="&#xe67f;" d="M351.769 259.716h68.35v-6.676h-68.35v6.676z" />
<glyph unicode="&#xe680;" d="M351.769 246.482h44.819v-6.675h-44.819v6.675z" />
<glyph unicode="&#xe681;" d="M351.769 200.159h68.35v-6.673h-68.35v6.673z" />
<glyph unicode="&#xe682;" d="M351.769 186.925h68.35v-6.672h-68.35v6.672z" />
<glyph unicode="&#xe683;" d="M351.769 173.69h25.993v-6.671h-25.993v6.671z" />
<glyph unicode="&#xe684;" d="M372.668 332.448h46.108v-10.985h-46.108v10.985z" />
<glyph unicode="&#xe685;" d="M285.591 202.749h56.414v-49.829h-56.414v49.829z" />
<glyph unicode="&#xe686;" d="M285.784 307.632h134.078v-13.427h-134.078v13.427z" />
<glyph unicode="&#xe687;" d="M159.58 222.536h-0.155c-0.573-2.406-1.464-5.968-2.715-10.683l-4.735-14.805h15.291l-4.792 14.805c-0.524 1.524-1.485 5.085-2.892 10.683zM490.068 314.96h-467.075c-10.615 0-19.21-8.567-19.21-19.122v-143.428c0-10.565 8.605-19.122 19.21-19.122h467.075c10.615 0 19.21 8.567 19.21 19.122v143.428c0 10.555-8.606 19.122-19.21 19.122zM452.878 264.575c6.859 0 9.12-5.618 9.12-10.246 0-1-0.088-1.775-0.174-2.251h-14.166c0.127-3.803 3.087-5.452 6.521-5.452 2.474 0 4.211 0.387 5.86 0.951l0.786-3.639c-1.825-0.776-4.346-1.339-7.383-1.339-6.859 0-10.906 4.192-10.906 10.633 0 5.853 3.562 11.344 10.342 11.344zM368.101 264.1l0.262-3.162h0.135c0.95 1.649 3.26 3.639 6.772 3.639 3.697 0 7.521-2.377 7.521-9.034v-12.497h-5.346v11.885c0 3.027-1.135 5.316-4.036 5.316-2.126 0-3.608-1.513-4.172-3.115-0.174-0.436-0.262-1.087-0.262-1.687v-12.409h-5.346v14.797c0 2.425-0.088 4.452-0.174 6.267h4.645zM311.993 264.575c6.859 0 9.12-5.618 9.12-10.246 0-1-0.088-1.775-0.174-2.251h-14.166c0.135-3.803 3.087-5.452 6.521-5.452 2.474 0 4.211 0.387 5.86 0.951l0.786-3.639c-1.825-0.776-4.346-1.339-7.383-1.339-6.859 0-10.906 4.192-10.906 10.633 0 5.853 3.562 11.344 10.342 11.344zM290.095 273.744h5.337v-30.698h-5.337v30.698zM247.724 260.811c-2.087 0-4.26-0.649-5.685-1.563l-1.038 3.463c1.563 0.951 4.299 1.863 7.645 1.863 6.781 0 8.732-4.279 8.732-8.907v-7.567c0-1.903 0.088-3.764 0.34-5.054h-4.821l-0.389 2.328h-0.127c-1.262-1.641-3.474-2.814-6.258-2.814-4.26 0-6.646 3.066-6.646 6.267 0 5.278 4.735 8.004 12.554 7.957v0.35c-0.008 1.386-0.579 3.676-4.307 3.676zM216.133 272.881c1.825 0 2.959-1.251 2.999-2.9 0-1.553-1.173-2.853-3.048-2.853-1.786 0-2.949 1.3-2.949 2.853 0.002 1.639 1.214 2.9 2.999 2.9zM218.774 264.1v-21.064h-5.337v21.064h5.337zM145.298 272.192h6.82l9.511-29.145h-5.774l-2.648 8.257h-9.257l-2.523-8.257h-5.522l9.392 29.145zM109.712 175.538c0-5.132-4.21-9.294-9.364-9.294h-40.118c-5.161 0-9.364 4.161-9.364 9.294v88.756c0 5.133 4.2 9.304 9.364 9.304h40.118c5.153 0 9.364-4.172 9.364-9.304v-88.756zM174.201 173.414l-5.316 16.64h-18.512l-5.075-16.64h-9.459l18.317 56.699h11.332l18.436-56.699h-9.722zM176.278 243.047h-5.26l-7.858 21.064h5.784l3.424-10.683c0.611-1.863 1.048-3.541 1.435-5.278h0.135c0.389 1.726 0.864 3.377 1.435 5.278l3.386 10.683h5.607l-8.089-21.064zM187.28 248.838c0 5.278 4.735 8.004 12.554 7.956v0.34c0 1.387-0.563 3.676-4.299 3.676-2.087 0-4.26-0.649-5.685-1.563l-1.048 3.463c1.563 0.95 4.299 1.863 7.645 1.863 6.773 0 8.732-4.279 8.732-8.907v-7.567c0.002-1.9 0.088-3.764 0.35-5.054h-4.821l-0.389 2.328h-0.127c-1.262-1.641-3.474-2.814-6.258-2.814-4.266 0-6.654 3.076-6.654 6.277zM223.013 177.856c-3.395-3.57-7.627-5.366-12.661-5.366-5.452 0-9.353 1.932-11.72 5.812v-21.471h-9.119v44.030c0 4.377-0.117 8.849-0.35 13.437h8.035l0.504-6.482h0.155c3.055 4.86 7.674 7.297 13.875 7.297 4.841 0 8.878-1.892 12.138-5.714 3.232-3.803 4.851-8.839 4.851-15.057-0.002-6.967-1.905-12.44-5.708-16.486zM232.512 243.047h-5.337v30.698h5.337v-30.698zM268.128 177.856c-3.406-3.57-7.616-5.366-12.661-5.366-5.434 0-9.343 1.932-11.72 5.812v-21.471h-9.13v44.030c0 4.377-0.117 8.849-0.34 13.437h8.004l0.524-6.482h0.155c3.066 4.86 7.666 7.297 13.865 7.297 4.851 0 8.887-1.892 12.128-5.714 3.25-3.803 4.86-8.839 4.86-15.057 0.021-6.967-1.872-12.44-5.685-16.486zM274.397 242.561c-2.736 0-5.171 1.038-6.695 3.629h-0.088l-0.262-3.154h-4.561c0.088 1.425 0.174 3.764 0.174 5.929v24.779h5.337v-12.536h0.088c1.3 2.028 3.608 3.377 6.781 3.377 5.171 0 8.858-4.279 8.819-10.683 0.012-7.577-4.811-11.342-9.593-11.342zM320.336 177.537c-3.726-3.318-8.897-4.958-15.524-4.958-6.142 0-11.051 1.183-14.758 3.522l2.124 7.567c3.998-2.347 8.392-3.531 13.166-3.531 3.455 0 6.122 0.776 8.034 2.31 1.902 1.534 2.863 3.601 2.863 6.209 0 2.271-0.786 4.2-2.357 5.781-1.591 1.571-4.192 3.017-7.858 4.377-9.964 3.687-14.95 9.11-14.95 16.222 0 4.657 1.736 8.481 5.267 11.448 3.522 2.959 8.18 4.452 13.99 4.452 5.181 0 9.488-0.903 12.933-2.687l-2.3-7.403c-3.212 1.726-6.859 2.609-10.924 2.609-3.221 0-5.745-0.815-7.557-2.347-1.514-1.425-2.279-3.134-2.279-5.153 0-2.222 0.873-4.084 2.62-5.56 1.524-1.339 4.288-2.793 8.276-4.356 4.92-1.95 8.51-4.26 10.828-6.908 2.3-2.64 3.463-5.909 3.463-9.829-0.002-4.811-1.7-8.751-5.057-11.768zM352.51 207.487h-10.070v-19.87c0-5.044 1.786-7.549 5.337-7.549 1.63 0 2.969 0.116 4.055 0.397l0.262-6.879c-1.805-0.67-4.161-1.010-7.092-1.010-3.59 0-6.423 1.077-8.442 3.279-2.048 2.173-3.055 5.86-3.055 11.012v20.62h-5.997v6.812h5.997v7.481l8.945 2.687v-10.178h10.070v-6.801h-0.010zM347.368 242.561c-5.947 0-10.604 4.066-10.604 10.857 0 6.918 4.561 11.158 10.945 11.158 6.298 0 10.517-4.416 10.517-10.808 0-7.744-5.473-11.207-10.856-11.207zM389.959 178.7c-3.784-4.143-8.8-6.209-15.038-6.209-6.036 0-10.856 1.988-14.428 5.968s-5.356 9.013-5.356 15.057c0 6.337 1.843 11.526 5.529 15.563 3.697 4.055 8.655 6.043 14.904 6.043 6.054 0 10.885-1.97 14.553-5.976 3.483-3.853 5.228-8.858 5.228-14.961 0.002-6.296-1.792-11.438-5.392-15.485zM399.39 264.1h2.998v3.938l5.26 1.475v-5.405h5.083v-3.977h-5.083v-9.294c0-2.601 0.688-3.891 2.736-3.891 0.961 0 1.474 0.049 2.087 0.213l0.088-4.016c-0.786-0.301-2.212-0.563-3.861-0.563-1.999 0-3.608 0.649-4.608 1.726-1.173 1.213-1.698 3.154-1.698 5.929v9.885h-2.998c-0.004 0.002-0.004 3.98-0.004 3.98zM422.812 206.313c-0.903 0.166-1.863 0.233-2.872 0.233-3.212 0-5.685-1.202-7.432-3.608-1.524-2.134-2.279-4.793-2.279-8.073v-21.451h-9.13v28.029c0 4.686-0.078 8.974-0.241 12.865h7.936l0.34-7.829h0.252c0.95 2.687 2.464 4.851 4.561 6.462 2.027 1.474 4.24 2.183 6.596 2.183 0.834 0 1.601-0.049 2.271-0.156-0.002 0-0.002-8.655-0.002-8.655zM424.198 255.668v-12.632h-5.337v30.708h5.337v-12.497h0.088c0.649 0.989 1.563 1.815 2.648 2.377 1.087 0.611 2.347 0.951 3.697 0.951 3.608 0 7.383-2.378 7.383-9.12v-12.409h-5.346v11.845c0 3.027-1.135 5.366-4.084 5.366-2.087 0-3.562-1.387-4.172-2.988-0.176-0.475-0.215-1.038-0.215-1.601zM461.863 191.654h-27.39c0.106-4.036 1.435-7.113 3.977-9.236 2.3-1.911 5.288-2.863 8.956-2.863 4.065 0 7.741 0.641 11.070 1.95l1.435-6.316c-3.87-1.698-8.471-2.523-13.787-2.523-6.355 0-11.352 1.853-14.99 5.579-3.629 3.726-5.462 8.733-5.462 15.010 0 6.181 1.698 11.303 5.075 15.418 3.57 4.366 8.354 6.55 14.369 6.55 5.937 0 10.402-2.183 13.437-6.55 2.416-3.483 3.629-7.781 3.629-12.884 0.010-1.62-0.106-2.998-0.32-4.133zM56.551 254.853h47.473v-69.886h-47.472v69.886zM253.887 207.915c-2.261 0-4.279-0.738-6.121-2.222-1.833-1.503-3.037-3.455-3.601-5.87-0.28-1.127-0.418-2.048-0.418-2.775v-6.812c0-2.978 0.903-5.49 2.736-7.538 1.825-2.027 4.21-3.055 7.131-3.055 3.455 0 6.122 1.31 8.043 3.949 1.921 2.64 2.882 6.113 2.882 10.438 0 3.969-0.911 7.258-2.707 9.829-1.968 2.679-4.616 4.057-7.944 4.057zM208.75 207.915c-2.251 0-4.279-0.738-6.113-2.222-1.833-1.503-3.027-3.455-3.59-5.87-0.28-1.127-0.418-2.048-0.418-2.775v-6.812c0-2.978 0.903-5.49 2.736-7.538 1.825-2.027 4.21-3.055 7.142-3.055 3.424 0 6.121 1.31 8.035 3.949 1.911 2.64 2.863 6.113 2.863 10.438 0 3.969-0.893 7.258-2.697 9.829-1.981 2.679-4.618 4.057-7.957 4.057zM85.105 176.014c0-2.663-2.159-4.821-4.821-4.821s-4.821 2.159-4.821 4.821c0 2.663 2.159 4.821 4.821 4.821s4.821-2.159 4.821-4.821zM75.636 261.985h9.304c0.611 0 1.106 0.504 1.106 1.077 0 0.611-0.496 1.106-1.106 1.106h-9.304c-0.592 0-1.096-0.495-1.096-1.106-0.002-0.582 0.504-1.077 1.096-1.077zM452.577 260.948c-3.3 0-4.696-2.978-4.909-5.142h9.294c0.041 1.94-0.824 5.142-4.385 5.142zM311.681 260.948c-3.3 0-4.686-2.978-4.909-5.142h9.294c0.049 1.94-0.824 5.142-4.385 5.142zM273.232 260.423c-2.173 0-4.172-1.563-4.735-3.891-0.088-0.387-0.174-0.865-0.174-1.387v-3.416c0-0.436 0.049-0.864 0.135-1.251 0.563-2.162 2.435-3.715 4.735-3.715 3.346 0 5.384 2.64 5.384 6.918-0.008 3.715-1.784 6.742-5.346 6.742zM244.767 249.401c0-2.077 1.35-3.027 3.037-3.027 2.173 0 3.696 1.387 4.21 2.9 0.127 0.387 0.127 0.776 0.127 1.163v2.892c-3.767 0.049-7.375-0.735-7.375-3.928zM150.032 262.5c-0.563 1.775-1.048 3.764-1.475 5.443h-0.088c-0.426-1.688-0.911-3.715-1.387-5.443l-2.251-7.18h7.51l-2.31 7.18zM199.835 249.266c0.127 0.387 0.127 0.776 0.127 1.163v2.9c-3.774 0.039-7.383-0.738-7.383-3.93 0-2.077 1.35-3.027 3.037-3.027 2.171 0.002 3.695 1.381 4.219 2.894zM375.233 208.478c-3.647 0-6.443-1.61-8.344-4.86-1.649-2.679-2.464-5.937-2.464-9.8 0-3.764 0.805-6.965 2.464-9.654 1.95-3.24 4.714-4.86 8.286-4.86 3.474 0 6.209 1.64 8.17 4.958 1.708 2.716 2.552 5.968 2.552 9.702s-0.815 6.965-2.435 9.644c-1.952 3.259-4.67 4.87-8.229 4.87zM347.58 260.725c-3.784 0-5.298-3.676-5.298-7.181 0-4.066 2.038-7.142 5.26-7.142 3.037 0 5.171 2.939 5.171 7.219 0 3.297-1.485 7.102-5.132 7.102zM444.447 208.923c-2.978 0-5.404-1.272-7.267-3.715-1.524-1.96-2.425-4.317-2.707-7.053h19.015c0.049 2.687-0.534 4.997-1.765 6.976-1.581 2.513-4.006 3.793-7.276 3.793z" />
<glyph unicode="&#xe688;" d="M322.7 351.6l100.3-105c6-5.8 9-13.7 9-22.4s-3-16.5-9-22.4l-100.3-105.4c-11.9-12.5-31.3-12.5-43.2 0s-11.9 32.7 0 45.2l48.2 50.4h-217c-17 0-30.7 14.3-30.7 32s13.7 32 30.6 32h217l-48.2 50.4c-11.9 12.5-11.9 32.7 0 45.2 12 12.5 31.3 12.5 43.3 0z" />
<glyph unicode="&#xe689;" d="M122.713 197.167l228.727-220.276c12.614-12.146 32.689-11.767 44.837 0.848 12.147 12.611 11.77 32.685-0.844 44.832l-205.697 198.094 203.679 205.268c12.335 12.431 12.258 32.508-0.175 44.842-12.43 12.334-32.506 12.257-44.841-0.174l-223.667-225.413c-0.87-0.877-1.671-1.795-2.417-2.742-0.148-0.148-0.302-0.29-0.448-0.442-12.146-12.616-11.766-32.69 0.846-44.837z" />
<glyph unicode="&#xe68a;" d="M396.279 242.004c-0.146 0.152-0.3 0.294-0.448 0.442-0.746 0.947-1.547 1.865-2.417 2.742l-223.667 225.413c-12.335 12.431-32.411 12.508-44.841 0.174-12.433-12.334-12.51-32.411-0.175-44.842l203.679-205.268-205.697-198.094c-12.614-12.147-12.991-32.221-0.844-44.832 12.148-12.615 32.223-12.994 44.837-0.848l228.727 220.276c12.612 12.147 12.992 32.221 0.846 44.837z" />
<glyph unicode="&#xe68b;" d="M308.627 233.743c0 0 8.938-9.984 1.097-17.745-20.56-20.246-72.558-68.030-72.558-68.030l-0.036 0.044-9.516-9.64c-5.727-5.918-13.4-7.812-19.119-1.894l-11.279 12.858c-5.727 5.925-4.578 13.868 1.141 19.793l10.364 10.248c0.337 0.351 0.761 0.512 1.119 0.834l49.569 44.127-49.144 45.524c-0.358 0.307-0.775 0.461-1.119 0.804l-10.343 9.882c-5.713 5.705-6.861 13.363-1.141 19.075l11.256 12.391c5.713 5.713 13.378 3.884 19.083-1.829l9.501-9.296 0.036 0.036 71.080-66.911-0.147-0.139 0.154-0.131z" />
<glyph unicode="&#xe68c;" d="M342.908 51.36c-34.468-18.072-64.996-23.492-103.9-23.492-105.868 0-176.772 74.088-176.772 178.896 0 110.232 79.768 210.072 212.72 210.072 116.212 0 174.808-76.348 174.808-162.632 0-84.48-48.752-131.904-106.36-131.904-30.528-0.004-47.768 17.7-50.228 49.7h-1.476c-14.28-28-41.852-49.704-75.832-49.704-35.944 0-61.552 30.040-61.552 73.856 0 74.544 53.672 131.124 130.488 131.124 26.096 0 53.672-6.268 69.428-14.852l-17.728-93.936c-7.876-40.66-0.984-56.456 16.744-56.912 21.172 0 54.656 24.4 54.656 92.62 0 73.636-48.748 130.112-139.844 130.112-73.368 0-162.004-66.86-162.004-174.832 0-92.16 64.016-148.176 140.336-148.176 30.040 0 58.596 6.776 84.204 21.236l12.312-31.176zM294.656 284.92c-3.94 1.808-13.296 3.616-21.176 3.616-27.576 0-56.628-32.076-56.628-75.896 0-18.524 6.892-33.432 25.112-33.432 18.712 0 35.452 27.108 41.856 55.568l10.836 50.144z" />
<glyph unicode="&#xe68d;" d="M453.223 236.288l-9.011 5.939c-10.035 6.758-12.493 20.275-5.12 29.901l6.553 8.806c7.168 9.83 3.481 20.070-8.192 22.938l-10.445 2.458c-11.673 2.867-18.432 14.745-14.95 26.419l3.072 10.445c3.481 11.673-3.481 20.070-15.36 18.637l-10.649-1.229c-11.878-1.434-22.323 7.373-22.938 19.661l-0.615 10.854c-0.615 12.288-10.035 17.613-20.889 12.288l-9.625-4.915c-10.854-5.529-23.552-0.819-28.262 10.445l-4.301 10.035c-4.711 11.264-15.36 13.107-23.757 4.301l-7.373-7.987c-8.192-9.011-21.709-9.011-30.106 0l-7.373 7.987c-8.192 9.011-18.841 6.963-23.757-4.301l-4.301-10.035c-4.71-11.264-17.408-15.975-28.262-10.445l-9.625 4.915c-10.855 5.53-20.071 0-20.889-12.288l-0.614-10.855c-0.614-12.288-11.059-21.094-22.938-19.661l-10.65 1.229c-11.879 1.433-18.841-6.963-15.36-18.637l3.072-10.445c3.481-11.673-3.277-23.552-14.951-26.419l-10.445-2.458c-11.674-2.867-15.36-13.107-8.192-22.938l6.553-8.806c7.168-9.831 4.915-23.347-5.12-29.901l-9.011-5.939c-10.035-6.758-10.035-17.613 0-24.371l9.011-5.939c10.035-6.759 12.493-20.275 5.12-29.901l-6.553-8.807c-7.168-9.831-3.481-20.070 8.192-22.938l10.445-2.457c11.674-2.867 18.432-14.745 14.951-26.419l-3.072-10.445c-3.481-11.673 3.481-20.070 15.36-18.637l10.65 1.229c11.879 1.433 22.323-7.373 22.938-19.661l0.614-10.854c0.614-12.288 10.035-17.613 20.889-12.288l9.625 4.915c10.855 5.529 23.552 0.819 28.262-10.445l4.301-10.035c4.71-11.264 15.36-13.107 23.757-4.301l7.373 7.987c8.192 9.011 21.709 9.011 30.106 0l7.373-7.987c8.192-9.011 18.841-6.963 23.757 4.301l4.301 10.035c4.711 11.264 17.408 15.974 28.262 10.445l9.625-4.915c10.854-5.529 20.070 0 20.889 12.288l0.615 10.854c0.615 12.288 11.059 21.094 22.938 19.661l10.649-1.229c11.878-1.433 18.841 6.963 15.36 18.637l-3.072 10.445c-3.481 11.673 3.277 23.552 14.95 26.419l10.445 2.457c11.673 2.867 15.36 13.107 8.192 22.938l-6.553 8.807c-7.168 9.831-4.915 23.347 5.12 29.901l9.011 5.939c10.035 6.553 10.035 17.613 0 24.371zM256 92.109c-71.885 0-130.048 59.187-130.048 131.891s58.163 131.891 130.048 131.891 130.048-59.187 130.048-131.891-58.163-131.891-130.048-131.891zM336.691 309.197c-7.987 6.144-19.251 4.301-24.986-4.301l-83.353-121.856-45.875 49.767c-6.758 7.782-18.023 7.987-25.395 0.819-7.168-7.168-7.577-19.251-0.819-26.829 0 0 55.706-61.849 63.693-67.993s19.251-4.301 24.986 4.301l95.437 139.673c6.144 8.397 4.301 20.275-3.687 26.419z" />
<glyph unicode="&#xe68e;" d="M351 58.8c0-44.293 0-80.2 0-80.2s0 35.907 0 80.2c0 44.293 0 80.2 0 80.2s0-35.907 0-80.2z" />
<glyph unicode="&#xe68f;" d="M172.8 43.6c0-36.009 0-65.2 0-65.2s0 29.191 0 65.2c0 36.009 0 65.2 0 65.2s0-29.191 0-65.2z" />
<glyph unicode="&#xe690;" d="M272.6 256.8c0 55.8-44.8 100.6-100.6 100.6s-100.6-44.8-100.6-100.6c0-54 42.6-132.2 96.4-136.2l-3.2-14.6h17.8l-6 14.6c53.8 4.4 96.2 82.2 96.2 136.2z" />
<glyph unicode="&#xe691;" d="M107.2 302.4c-5.4 1.8-12.4-6.8-15.6-19.6-3.2-12.4-1.4-23.8 3.6-25.6s12.4 6.8 15.6 19.6c3.2 12.8 1.8 23.8-3.6 25.6zM98 249c-3.6 0-6.8-3.2-6.8-7.4s3.2-7.8 6.8-7.8c3.6 0 6.8 3.2 6.8 7.4s-2.6 7.8-6.8 7.8z" />
<glyph unicode="&#xe692;" d="M483 335.2c0 73.6-59.2 132.8-132.8 132.8s-132.8-59.2-132.8-132.8c0-71.6 56.4-174.6 127.2-179.8l-3.8-19.4h23.8l-7.6 19.4c70 5.6 126 108.6 126 179.8z" />
<glyph unicode="&#xe693;" d="M297.4 414.4c-11.4 3.4-26-13.2-32.8-37.4-6.6-23.8-3.4-46 8-49.4s26 13.2 32.8 37.4c7.2 23.8 3.4 46-8 49.4zM279 311.4c-8 0-14.2-6.2-14.2-14.2s6.2-14.2 14.2-14.2c8 0 14.2 6.2 14.2 14.2s-6.2 14.2-14.2 14.2z" />
<glyph unicode="&#xe694;" d="M344.4 155.4l-1-4.8h15.2l-1.8 4.8h-12.4z" />
<glyph unicode="&#xe695;" d="M177 120.4h-9l-1-3.6h11.4z" />
<glyph unicode="&#xe696;" d="M257.5 480c-140.556 0-254.5-113.944-254.5-254.5s113.944-254.5 254.5-254.5 254.5 113.944 254.5 254.5-113.944 254.5-254.5 254.5zM412.791 91.562c0-4.175-3.387-7.562-7.562-7.562h-297.457c-4.175 0-7.562 3.387-7.562 7.562v15.125c0 4.175 3.387 7.562 7.562 7.562h297.457c4.175 0 7.562-3.387 7.562-7.562v-15.125zM130.459 255.416v7.356c0 1.506 1.221 2.727 2.727 2.727h65.128c1.506 0 2.728-1.221 2.728-2.727v-7.356c0-5.574-4.515-10.083-10.083-10.083v-77.939c0-1.506-1.221-2.728-2.728-2.728h-44.961c-1.506 0-2.728 1.221-2.728 2.728v77.939c-5.568 0-10.083 4.509-10.083 10.083zM385.062 154.583c4.175 0 7.562-3.387 7.562-7.562v-15.125c0-4.175-3.387-7.562-7.562-7.562h-257.124c-4.175 0-7.562 3.387-7.562 7.562v15.125c0 4.175 3.387 7.562 7.562 7.562h257.124zM221.208 255.416v7.356c0 1.506 1.221 2.727 2.728 2.727h65.128c1.506 0 2.728-1.221 2.728-2.727v-7.356c0-5.574-4.515-10.083-10.083-10.083v-77.939c0-1.506-1.221-2.728-2.728-2.728h-44.961c-1.506 0-2.728 1.221-2.728 2.728v77.939c-5.569 0-10.084 4.509-10.084 10.083zM311.958 255.416v7.356c0 1.506 1.221 2.727 2.728 2.727h65.128c1.506 0 2.728-1.221 2.728-2.727v-7.356c0-5.574-4.515-10.083-10.083-10.083v-77.939c0-1.506-1.221-2.728-2.728-2.728h-44.961c-1.506 0-2.728 1.221-2.728 2.728v77.939c-5.569 0-10.084 4.509-10.084 10.083zM412.791 283.056c0-4.136-3.294-7.474-7.356-7.474h-297.87c-4.062 0-7.356 3.338-7.356 7.474v12.693c0 2.797 1.536 5.357 3.983 6.647l146.523 82.674c3.629 1.901 7.932 1.901 11.56 0l146.533-82.675c2.447-1.29 3.983-3.851 3.983-6.647v-12.692zM256.5 338.101c-9.468 0-17.143-7.671-17.143-17.143s7.676-17.143 17.143-17.143 17.143 7.671 17.143 17.143c0 9.472-7.675 17.143-17.143 17.143z" />
<glyph unicode="&#xe697;" d="M496 36v-24c0-6.625-5.375-12-12-12h-472c-6.625 0-12 5.375-12 12v24c0 6.625 5.375 12 12 12h472c6.625 0 12-5.375 12-12zM32 100v-24c0-6.625 5.375-12 12-12h408c6.625 0 12 5.375 12 12v24c0 6.625-5.375 12-12 12h-408c-6.625 0-12-5.375-12-12zM68.328 128h71.344c2.391 0 4.328 1.938 4.328 4.328v123.672c8.836 0 16 7.156 16 16v11.672c0 2.391-1.938 4.328-4.328 4.328h-103.344c-2.391 0-4.328-1.938-4.328-4.328v-11.672c0-8.844 7.164-16 16-16v-123.672c0-2.391 1.938-4.328 4.328-4.328zM212.328 128h71.344c2.391 0 4.328 1.938 4.328 4.328v123.672c8.836 0 16 7.156 16 16v11.672c0 2.391-1.938 4.328-4.328 4.328h-103.344c-2.391 0-4.328-1.938-4.328-4.328v-11.672c0-8.844 7.164-16 16-16v-123.672c0-2.391 1.938-4.328 4.328-4.328zM356.328 128h71.344c2.391 0 4.328 1.938 4.328 4.328v123.672c8.836 0 16 7.156 16 16v11.672c0 2.391-1.938 4.328-4.328 4.328h-103.344c-2.391 0-4.328-1.938-4.328-4.328v-11.672c0-8.844 7.164-16 16-16v-123.672c0-2.391 1.938-4.328 4.328-4.328zM496 336v-20.141c0-6.563-5.227-11.859-11.672-11.859h-472.656c-6.445 0-11.672 5.297-11.672 11.859v20.141c0 4.438 2.438 8.5 6.32 10.547l232.5 131.187c5.758 3.016 12.586 3.016 18.344 0l232.516-131.187c3.883-2.047 6.32-6.11 6.32-10.547zM275.203 376c0 15.031-12.18 27.203-27.203 27.203s-27.203-12.172-27.203-27.203 12.18-27.203 27.203-27.203c15.023 0 27.203 12.172 27.203 27.203z" />
<glyph unicode="&#xe698;" d="M512 224c0-141.385-114.615-256-256-256s-256 114.615-256 256c0 141.385 114.615 256 256 256s256-114.615 256-256z" />
<glyph unicode="&#xe699;" d="M150 295h201v-169h-201v169z" />
<glyph unicode="&#xe69a;" d="M150 225h201v-99h-201v99z" />
<glyph unicode="&#xe69b;" d="M116 276h60v-140h-60v140z" />
<glyph unicode="&#xe69c;" d="M146 276h30v-140h-30v140z" />
<glyph unicode="&#xe69d;" d="M324 276h60v-140h-60v140z" />
<glyph unicode="&#xe69e;" d="M354 276h30v-140h-30v140z" />
<glyph unicode="&#xe69f;" d="M220 276h60v-140h-60v140z" />
<glyph unicode="&#xe6a0;" d="M250 276h30v-140h-30v140z" />
<glyph unicode="&#xe6a1;" d="M409 125c0-5.523-4.477-10-10-10h-293c-5.523 0-10 4.477-10 10v4c0 5.523 4.477 10 10 10h293c5.523 0 10-4.477 10-10v-4z" />
<glyph unicode="&#xe6a2;" d="M428 108c0 5.523-4.477 10-10 10h-332c-5.523 0-10-4.477-10-10v-13c0-5.523 4.477-10 10-10h332c5.523 0 10 4.477 10 10v13z" />
<glyph unicode="&#xe6a3;" d="M109 276h72v-20h-72v20z" />
<glyph unicode="&#xe6a4;" d="M109 159h72v-20h-72v20z" />
<glyph unicode="&#xe6a5;" d="M109 276h72v-9h-72v9z" />
<glyph unicode="&#xe6a6;" d="M214 276h72v-20h-72v20z" />
<glyph unicode="&#xe6a7;" d="M214 159h72v-20h-72v20z" />
<glyph unicode="&#xe6a8;" d="M214 276h72v-9h-72v9z" />
<glyph unicode="&#xe6a9;" d="M73.771 275c-6.248 0-7.405 3.239-2.573 7.199l171.014 140.108c4.832 3.961 12.743 3.961 17.575 0l171.014-140.107c4.833-3.96 3.676-7.199-2.573-7.199h-354.457z" />
<glyph unicode="&#xe6aa;" d="M154.748 309c-3.436 0-4.072 1.828-1.415 4.006l92.835 76.079c2.657 2.178 7.006 2.19 9.664 0.013l92.834-76.098c2.658-2.178 2.021-4-1.415-4h-192.503z" />
<glyph unicode="&#xe6ab;" d="M179.733 309c-3.435 0-4.011 1.75-1.277 3.833l67.574 51.51c2.733 2.082 7.206 2.093 9.938 0.013l67.574-51.529c2.733-2.081 2.158-3.826-1.277-3.826h-142.532z" />
<glyph unicode="&#xe6ac;" d="M318 276h72v-20h-72v20z" />
<glyph unicode="&#xe6ad;" d="M318 159h72v-20h-72v20z" />
<glyph unicode="&#xe6ae;" d="M318 276h72v-9h-72v9z" />
<glyph unicode="&#xe6af;" d="M263.783 337.226c-0.582 1.334-1.414 2.479-2.494 3.437-1.010 0.928-1.502 1.633-2.783 2.121-1.279 0.487-2.506 1.028-4.506 1.62v10.875c2-0.712 2.924-2.158 3.5-4.336 0.506-1.85 1.283-2.773 2.994-2.773 0.906 0 1.515 0.314 2.151 0.954 0.635 0.634 0.872 1.391 0.872 2.26 0 0.787-0.254 1.649-0.682 2.591-0.43 0.943-1.057 1.855-1.84 2.747-0.992 1.163-1.509 2.039-2.843 2.611-1.334 0.577-2.153 0.958-4.153 1.153v2.824c0 1.432 0.107 2.142-1.012 2.142-1.098 0-0.988-0.729-0.988-2.194v-2.771c-2-0.312-7.686-1.432-9.592-3.348-1.906-1.917-3.525-4.375-3.525-7.375 0-2.3 0.167-4.182 1.138-5.647 0.979-1.465 3.401-2.595 4.972-3.384 1.568-0.795 5.008-1.515 7.008-2.161v-12.155c-2 0.332-3.426 0.808-4.129 1.434-0.705 0.629-1.895 1.326-2.24 2.078-0.352 0.764-1.083 1.855-1.558 3.285-0.211 0.658-0.749 1.176-1.29 1.542-0.541 0.368-1.285 0.551-2.070 0.551-0.975 0-1.83-0.339-2.482-1.007-0.656-0.67-1.007-1.428-1.007-2.263 0-1.136 0.235-2.288 0.722-3.464 0.49-1.178 1.239-2.309 2.263-3.398 1.020-1.092 3.603-2.004 5.128-2.736 1.523-0.732 4.664-1.207 6.664-1.438v-7.058c0-0.8-1.193-1.394-0.939-1.78 0.252-0.383 0.037-0.576 0.664-0.576 0.678 0 1.444 0.236 1.646 0.711 0.205 0.469 0.63 1.217 0.63 2.248v6.506c2 0.21 3.988 0.867 5.799 1.963 1.816 1.1 2.859 2.517 3.793 4.252 0.932 1.734 1.233 3.594 1.233 5.58-0.002 1.585-0.456 3.043-1.044 4.379zM252 345.369c-2 0.577-4.055 1.22-4.824 1.923-0.762 0.705-1.809 1.749-1.809 3.125 0 1.445 1.403 2.527 2.224 3.242 0.816 0.716 2.409 1.29 4.409 1.726v-10.016zM257.422 328.267c-0.955-1.061-1.422-1.766-3.422-2.115v11.453c2-0.574 2.527-1.275 3.461-2.105 0.932-0.826 1.398-1.998 1.398-3.519 0-1.411-0.478-2.65-1.437-3.714z" />
<glyph unicode="&#xe6b0;" d="M253.542 476.723c-138.445 0-250.88-112.231-250.88-250.88h501.555c0.205 138.649-112.231 250.88-250.675 250.88z" />
<glyph unicode="&#xe6b1;" d="M253.747-24.013c138.445 0 250.675 112.026 250.88 250.47h-501.351c0-52.429 16.179-101.171 43.623-141.517 45.261-65.741 121.037-108.954 206.848-108.954z" />
<glyph unicode="&#xe6b2;" d="M2.867 225.843c0-52.633 16.179-101.376 43.827-141.722-27.443 40.346-43.623 88.883-43.623 141.517h501.351c0 0 0 0.205 0 0.205h-501.555z" />
<glyph unicode="&#xe6b3;" d="M250.88 136.55c0 0-4.301 17.817-8.806 28.877-7.782 19.046-11.469 45.875-11.879 55.296-0.819 15.565 12.288 38.298 8.397 80.281-2.662 28.672-9.011 36.045-11.673 39.731-14.951 22.528-46.489 14.541-46.489 14.541-23.552-3.686-46.489-23.757-52.633-48.743-1.433-5.735-2.253-14.131-1.843-22.323 0 0 0.615-15.155 22.528-65.946 8.806-20.275 13.107-35.84 16.589-50.791 5.12-22.323 6.553-39.936 7.168-42.394 1.843-8.397 6.349-39.731 46.080-33.382 39.936 6.349 32.563 44.851 32.563 44.851z" />
<glyph unicode="&#xe6b4;" d="M182.681 173.209c0 0 8.397-8.601 2.662-15.36-5.325-6.144-14.951 4.711-14.951 4.711s-29.082 33.382-18.432 61.031c0 0.205-2.662-22.733 30.72-50.381z" />
<glyph unicode="&#xe6b5;" d="M150.938 197.99c0 0-20.275 44.441 6.144 77.824 0 0 11.469 20.48 30.515 34.611 0 0 5.734 3.891 11.059 0.205s25.395-16.589 46.285-60.006c0 0 6.553-24.371 3.072-47.719 0 0-5.12 26.010-20.685 46.285-17.408 22.528-24.781 35.225-29.491 37.683s-6.349 6.144-12.288-0.615c-6.963-7.987-14.336-20.275-19.047-28.672-6.554-12.083-21.095-34.816-15.565-59.597z" />
<glyph unicode="&#xe6b6;" d="M241.869 222.976c0 0 8.397-18.637-14.951-41.37 0 0-14.336-15.155-4.506-21.299 9.011-5.735 12.903 6.349 18.432 17.203 3.482 6.759 13.517 24.166 1.024 45.466z" />
<glyph unicode="&#xe6b7;" d="M336.486 354.663c23.552-3.687 46.49-23.757 52.634-48.743 1.433-5.734 2.253-14.131 1.843-22.323 0 0-0.615-15.155-22.528-65.945-8.806-20.275-13.107-35.84-16.589-50.791-5.12-22.323-6.553-39.936-7.168-42.394-1.843-8.397-6.349-39.731-46.080-33.382s-32.358 44.851-32.358 44.851 4.301 17.817 8.807 28.877c7.783 19.046 11.469 45.875 11.878 55.296 0.819 15.565-12.288 38.298-8.397 80.281 2.663 28.672 9.011 36.045 11.673 39.731 14.745 22.323 46.285 14.541 46.285 14.541z" />
<glyph unicode="&#xe6b8;" d="M365.363 222.976c10.649-27.648-18.432-61.031-18.432-61.031s-9.625-10.854-14.95-4.711c-5.939 6.759 2.663 15.36 2.663 15.36 33.178 27.443 30.72 50.381 30.72 50.381z" />
<glyph unicode="&#xe6b9;" d="M350.618 256.563c-4.711 8.397-12.083 20.685-19.046 28.672-5.939 6.758-7.783 3.072-12.288 0.614-4.711-2.458-12.083-15.155-29.491-37.683-15.565-20.071-20.685-46.285-20.685-46.285-3.687 23.347 3.072 47.719 3.072 47.719 20.889 43.213 40.96 56.115 46.285 60.007 5.325 3.687 11.059-0.205 11.059-0.205 19.046-14.131 30.515-34.611 30.515-34.611 26.419-33.382 6.144-77.824 6.144-77.824 5.735 24.986-9.011 47.719-15.565 59.597z" />
<glyph unicode="&#xe6ba;" d="M276.275 176.691c5.529-10.649 9.625-22.733 18.432-17.203 9.625 6.144-4.505 21.299-4.505 21.299-23.347 22.733-14.95 41.37-14.95 41.37-12.493-21.299-2.457-38.707 1.024-45.466z" />
<glyph unicode="&#xe6bb;" d="M168.345 125.901h217.907v-45.261h-217.907v45.261z" />
<glyph unicode="&#xe6bc;" d="M329.728-0.256c0.409-0.205 0.615-0.409 1.024-0.615 0 0 0 0 0 0 0.409-0.205 1.024-0.409 1.433-0.819 0.205 0 0.205-0.205 0.409-0.205 0.409-0.205 1.024-0.409 1.433-0.819 0 0 0 0 0 0s0 0 0 0c0.409-0.205 0.615-0.409 1.024-0.409 0 0 0 0 0 0s0 0 0 0 0 0 0 0c0.409-0.205 1.024-0.409 1.433-0.615 0.205 0 0.205-0.205 0.409-0.205 0.409-0.205 1.024-0.409 1.433-0.615 0 0 0 0 0 0 0.409-0.205 0.615-0.409 1.024-0.409 0 0 0 0 0 0 0.409-0.205 1.024-0.409 1.433-0.615 0.205 0 0.205 0 0.409-0.205 0.409-0.205 1.024-0.409 1.433-0.615 0 0 0 0 0 0 0.409-0.205 0.615-0.205 1.024-0.409 0 0 0 0 0.205 0 0.409-0.205 0.615-0.205 1.024-0.409 0 0 0 0 0 0s0 0 0 0 0 0 0 0c15.36 5.939 29.901 13.517 43.623 22.323-0.205 0.409-0.615 0.615-0.819 1.024 0 0 0 0 0 0-0.409 0.615-0.819 1.024-1.229 1.639 0 0 0 0 0 0s0 0 0 0.205c0 0 0 0 0 0 0 0.205-0.205 0.205-0.205 0.409 0 0 0 0.205-0.205 0.205 0 0 0 0 0 0-0.409 0.409-0.819 1.024-1.229 1.433 0 0 0 0 0 0v0c-0.205 0.205-0.409 0.409-0.615 0.615s-0.409 0.409-0.615 0.615c0 0-0.205 0.205-0.205 0.205s0 0 0 0c0 0.205-0.205 0.205-0.205 0.409 0 0-0.205 0.205-0.205 0.205s0 0-0.205 0.205c0 0-0.205 0.205-0.205 0.205s-0.205 0.205-0.205 0.205c0 0-0.205 0.205-0.205 0.205s-0.205 0.205-0.205 0.205c0 0-0.205 0.205-0.205 0.205-0.205 0.205-0.205 0.205-0.409 0.409 0 0-0.205 0.205-0.205 0.205s-0.205 0.205-0.205 0.205c0 0-0.205 0.205-0.205 0.205s-0.205 0.205-0.205 0.205-0.205 0.205-0.409 0.409c0 0 0 0-0.205 0.205 0 0 0 0.205-0.205 0.205-0.205 0.205-0.409 0.409-0.409 0.615 0 0 0 0 0 0s0 0 0 0c-0.205 0.409-0.615 0.615-0.819 1.024 0 0-0.205 0.205-0.205 0.205-0.205 0.409-0.615 0.615-0.819 1.024 0 0 0 0 0 0-0.205 0.205-0.409 0.409-0.615 0.615 0 0 0 0 0 0-0.205 0.205-0.409 0.409-0.615 0.615 0 0 0 0 0 0-0.205 0.205-0.409 0.409-0.615 0.615 0 0 0 0 0 0-0.205 0.205-0.205 0.205-0.409 0.409 0 0-0.205 0.205-0.205 0.205s0 0 0 0 0 0.205-0.205 0.205-0.205 0.409-0.409 0.409c0 0 0 0 0 0-11.469 6.349-20.685 11.469-28.262 16.793-12.902 9.011-48.538 36.045-72.089 57.959-6.553 6.144-15.155 13.517-22.528 19.661h-79.463c8.192-8.192 17.408-15.36 21.709-19.046 3.277-2.663 27.034-19.661 55.706-43.213 18.432-14.95 37.479-31.13 60.416-52.634 0.409-0.205 0.819-0.409 1.229-0.615 0 0 0 0 0.205 0 0 0 0.205 0 0.205-0.205 0.205-0.205 0.615-0.409 0.819-0.409 0 0 0 0 0.205 0 0 0 0 0 0 0 0.409-0.205 0.615-0.409 1.024-0.615 0.205 0 0.205-0.205 0.409-0.205 0.205-0.205 0.409-0.205 0.615-0.409 0.205 0 0.205-0.205 0.409-0.205 0.409-0.205 0.615-0.409 1.024-0.615 0 0 0 0 0 0 0.409-0.205 0.615-0.409 1.024-0.615 0 0 0 0 0.205 0 0.409-0.205 0.615-0.409 1.024-0.615 0.205 0 0.205-0.205 0.409-0.205 0.205-0.205 0.409-0.205 0.615-0.409 0.205 0 0.205-0.205 0.409-0.205 0.409-0.205 0.615-0.409 1.024-0.615 0 0 0 0 0 0s0 0 0 0c0.409-0.205 0.615-0.409 1.024-0.615 0 0 0 0 0 0 0.409-0.205 1.024-0.615 1.433-0.819 0.205 0 0.205-0.205 0.409-0.205 0.409-0.205 1.024-0.615 1.433-0.819 0 0 0 0 0 0 0.409-0.205 0.615-0.409 1.024-0.615 0 0 0 0 0 0s0 0 0 0c0.409-0.205 1.024-0.615 1.433-0.819 0.205 0 0.205-0.205 0.409-0.205 0.819-0.409 1.433-0.615 1.843-1.024 0 0 0 0 0 0z" />
<glyph unicode="&#xe6bd;" d="M398.95 21.453c-2.048 2.048-4.301 4.301-6.553 6.553 0 0-31.334 26.419-64.921 46.080 0 0 25.395-20.070 46.695-42.803v0c6.553-3.481 13.517-7.577 21.504-12.083 1.229 0.819 2.253 1.639 3.277 2.253z" />
<glyph unicode="&#xe6be;" d="M395.673 19.2c-7.783 4.505-14.95 8.397-21.504 12.083 0.205-0.205 0.409-0.409 0.409-0.409s0-0.205 0.205-0.205c0 0 0 0 0 0s0.205-0.205 0.205-0.205 0.205-0.205 0.409-0.409c0 0 0 0 0 0s0 0 0 0 0 0 0 0c0.205-0.205 0.409-0.409 0.615-0.615 0 0 0 0 0 0s0 0 0 0 0 0 0 0c0.205-0.205 0.409-0.409 0.615-0.615 0 0 0 0 0 0s0 0 0 0 0 0 0 0c0.205-0.205 0.409-0.409 0.615-0.615 0 0 0 0 0 0 0.205-0.409 0.615-0.615 0.819-1.024 0 0 0.205-0.205 0.205-0.205 0.205-0.409 0.615-0.615 0.819-1.024 0.205-0.205 0.409-0.409 0.409-0.615 0 0 0 0 0 0s0-0.205 0.205-0.205c0 0 0 0 0 0s0 0 0-0.205c0.205-0.205 0.409-0.409 0.409-0.615 0 0 0 0 0 0s0.205-0.205 0.205-0.205 0.205-0.409 0.409-0.409c0 0 0 0 0 0 0.205-0.205 0.205-0.205 0.409-0.409 0 0 0 0 0 0 0.205-0.205 0.205-0.409 0.409-0.409 0 0 0.205-0.205 0.205-0.205s0 0 0 0c0.205-0.205 0.205-0.409 0.409-0.615 0 0 0 0 0.205-0.205 0 0 0 0 0 0 0.205-0.205 0.409-0.409 0.615-0.615 0 0 0 0 0 0s0 0 0 0c0.205-0.205 0.409-0.615 0.819-0.819 0.205-0.205 0.409-0.409 0.615-0.615 0 0 0 0 0 0 0-0.205 0.205-0.205 0.205-0.409s0.205-0.205 0.205-0.409c0 0 0.205-0.205 0.205-0.205 0.205-0.205 0.205-0.205 0.409-0.409 0 0 0 0 0 0s0.205-0.205 0.205-0.205c0-0.205 0.205-0.205 0.205-0.409 0 0 0-0.205 0.205-0.205 0.205-0.205 0.205-0.409 0.409-0.615 0 0 0 0 0 0 0.205-0.409 0.615-0.615 0.819-1.024 0 0 0 0 0 0 0.205-0.409 0.615-0.615 0.819-1.024 3.072 1.229 5.325 2.867 7.577 4.301z" />
<glyph unicode="&#xe6bf;" d="M310.067 11.008c0.409-0.205 0.819-0.409 1.229-0.615-8.192 5.12-16.589 10.854-24.576 17.408 0 0 17.203-16.589 42.189-34.202-4.711 4.301-9.625 9.011-14.745 13.926-1.639 1.024-2.867 2.253-4.096 3.481z" />
<glyph unicode="&#xe6c0;" d="M332.39-9.267c0.205-0.205 0.409-0.409 0.615-0.409 0 0 0.205 0 0.205-0.205 0.205-0.205 0.615-0.409 0.819-0.615 0 0 0 0 0 0 0.205 0 0.205-0.205 0.409-0.205s0.205-0.205 0.409-0.205c0 0 0.205 0 0.205-0.205 0 0 0.205 0 0.205-0.205 0 0 0 0 0 0 3.277 1.229 6.553 2.253 9.831 3.687 0 0-0.205 0-0.205 0s0 0 0 0 0 0 0 0c-0.409 0.205-0.615 0.205-1.024 0.409 0 0 0 0 0 0-0.819 0.409-1.639 0.819-2.457 1.229-0.205 0-0.205 0-0.409 0.205-0.409 0.205-1.024 0.409-1.433 0.615 0 0 0 0 0 0-0.409 0.205-0.615 0.409-1.024 0.409 0 0 0 0 0 0-0.409 0.205-1.024 0.409-1.433 0.615-0.205 0-0.205 0.205-0.409 0.205-0.409 0.205-1.024 0.409-1.433 0.615 0 0 0 0 0 0s0 0 0 0 0 0 0 0v0c0 0 0 0 0 0-0.409 0.205-0.615 0.409-1.024 0.409 0 0 0 0 0 0s0 0 0 0c-0.409 0.205-1.024 0.409-1.433 0.819-0.205 0-0.205 0.205-0.409 0.205-0.615 0.205-1.024 0.615-1.639 0.819 0 0 0 0 0 0-0.409 0.205-0.615 0.409-1.024 0.615v0c-0.615 0.205-1.024 0.615-1.639 0.819-0.205 0-0.205 0.205-0.409 0.205-0.615 0.205-1.024 0.615-1.639 0.819 0 0 0 0 0 0s0 0 0 0c-0.819 0.409-1.639 0.819-2.457 1.433-0.205 0-0.205 0.205-0.409 0.205-0.819 0.409-1.843 1.024-2.867 1.433-0.409 0.205-0.615 0.409-1.024 0.615-0.205 0-0.205 0.205-0.409 0.205-0.205 0.205-0.409 0.205-0.615 0.409-0.205 0-0.205 0.205-0.409 0.205-0.409 0.205-0.615 0.409-1.024 0.615 0 0 0 0 0 0-0.409 0.205-0.819 0.409-1.229 0.819 0 0 0 0 0 0-0.409 0.205-0.615 0.409-1.024 0.615-0.205 0-0.205 0.205-0.409 0.205-0.205 0.205-0.409 0.205-0.615 0.409-0.205 0-0.205 0.205-0.409 0.205-0.409 0.205-0.615 0.409-1.024 0.615 0 0 0 0-0.205 0 0 0 0 0 0 0-0.205 0.205-0.615 0.409-0.819 0.409s-0.205 0.205-0.409 0.205c0 0 0 0 0 0s0 0 0 0c-0.409 0.205-0.819 0.409-1.229 0.615 1.229-1.229 2.457-2.457 3.891-3.481 5.325-4.915 10.24-9.625 14.745-13.926 0 0 0 0 0 0 0.615-0.409 1.024-0.819 1.639-1.229 0 0 0.205 0 0.205-0.205 0.205-0.205 0.409-0.409 0.819-0.615 0 0 0 0 0 0 1.024 0.205 1.229 0 1.639-0.409 0 0.205 0 0.205 0 0z" />
<glyph unicode="&#xe6c1;" d="M407.552 28.007c-26.419 12.902-50.381 29.082-50.381 29.082 14.95-13.312 31.334-25.395 43.623-34.202 2.457 1.639 4.711 3.277 6.759 5.12z" />
<glyph unicode="&#xe6c2;" d="M386.048 108.083c20.889-13.721 39.117-29.491 53.043-43.213 0 0 0.205 0 0.205-0.205 0.205 0 0.205-0.205 0.409-0.205s0.205-0.205 0.409-0.205c0 0 0.205-0.205 0.205-0.205 0.205-0.205 0.615-0.409 0.819-0.409s0.205-0.205 0.409-0.205c0 0 0.205 0 0.205-0.205 0.205-0.205 0.409-0.205 0.615-0.409 0.205 0 0.205-0.205 0.409-0.205 0.205-0.205 0.409-0.205 0.615-0.409 1.843 2.048 3.481 4.096 5.12 6.144-30.72 24.576-62.464 39.731-62.464 39.731z" />
<glyph unicode="&#xe6c3;" d="M274.022 106.035c-6.553 6.144-15.155 13.517-22.528 19.661h-79.463c8.192-8.192 17.408-15.36 21.709-19.046 2.662-2.048 19.456-14.336 41.779-31.949h75.161c-12.493 10.24-25.805 21.299-36.659 31.334z" />
<glyph unicode="&#xe6c4;" d="M348.57 74.906h27.648v30.925l-30.515 20.070h-79.463c8.192-5.12 36.659-23.142 44.442-27.443 11.673-6.759 25.19-15.36 37.888-23.552z" />
<glyph unicode="&#xe6c5;" d="M295.322 20.839c4.915-3.481 9.831-6.759 14.541-9.83-21.709 20.48-39.936 35.84-57.344 50.176 8.807-10.035 24.371-26.419 42.803-40.346z" />
<glyph unicode="&#xe6c6;" d="M311.705 9.984c0.205 0 0.205-0.205 0.409-0.205 0 0 0 0 0.205 0 0.205-0.205 0.615-0.409 0.819-0.409s0.409-0.205 0.409-0.205c0.409-0.205 0.819-0.409 1.024-0.615 0 0 0 0 0 0 0.205 0 0.205-0.205 0.409-0.205 0 0 0 0 0 0 0.409-0.205 0.819-0.409 1.229-0.615 0.205 0 0.409-0.205 0.409-0.205 0.205-0.205 0.615-0.409 0.819-0.409 0 0 0.205 0 0.205-0.205 1.639-0.819 3.277-1.639 4.915-2.457 0 0-32.358 19.865-58.573 63.283 0 0-8.806 12.493-20.071 15.565-10.445 2.867 1.229-12.288 1.229-12.288s2.867-3.687 7.782-9.421c17.408-14.336 35.635-29.696 57.344-50.176 0 0 0.205-0.205 0.205-0.205 0.205-0.205 0.409-0.205 0.409-0.409 0 0 0 0 0 0 0.205-0.615 0.409-0.615 0.819-0.819z" />
<glyph unicode="&#xe6c7;" d="M352.666 52.582c-12.288 11.264-22.528 19.661-24.576 21.299-16.384 11.469-30.925 17.203-37.888 20.275-1.843 0.819-3.481 1.433-5.325 2.253 6.963-5.939 14.131-12.083 21.504-17.817 26.419-9.011 42.803-22.733 46.285-26.010z" />
<glyph unicode="&#xe6c8;" d="M259.891 100.301c5.12-10.854 31.13-17.613 31.13-17.613 5.325-1.229 10.445-2.663 15.155-4.301-7.168 5.735-14.541 11.878-21.504 17.817-14.95 6.759-28.877 13.107-24.781 4.096z" />
<glyph unicode="&#xe6c9;" d="M353.485 51.968c-8.397 9.011-16.998 16.179-25.395 21.913 2.048-1.639 12.288-9.83 24.576-21.299 0.409-0.409 0.819-0.615 0.819-0.615z" />
<glyph unicode="&#xe6ca;" d="M416.768 85.146c-9.216 7.783-19.661 15.565-30.515 22.733-9.625 4.301-19.251 7.168-27.238 9.011l42.189-27.443c6.759-1.639 12.083-3.277 15.565-4.301z" />
<glyph unicode="&#xe6cb;" d="M386.253 108.083c0.409-0.205 8.192-3.891 19.661-10.649-6.349 4.301-13.107 7.783-19.661 10.649z" />
<glyph unicode="&#xe6cc;" d="M422.502 83.507c-5.12 5.325-10.649 9.83-16.589 13.926-11.469 6.553-19.251 10.445-19.661 10.649 0 0 0 0 0 0 11.059-7.168 21.299-14.95 30.515-22.733 3.687-1.229 5.735-1.843 5.735-1.843z" />
<glyph unicode="&#xe6cd;" d="M344.269 103.987c24.166-5.735 43.418-10.854 56.73-14.541l-42.189 27.443c-13.721 3.277-23.552 3.891-23.552 3.891s-18.022 6.349-12.083-2.663c6.553-9.421 21.094-14.131 21.094-14.131z" />
<glyph unicode="&#xe6ce;" d="M357.581 56.883c2.253-1.433 13.107-8.601 27.648-16.998-4.096 2.457-22.118 13.721-38.912 36.25-7.783 5.12-15.769 10.24-23.552 14.95 1.229-1.433 2.457-2.867 3.891-4.301 5.12-5.939 15.155-18.022 30.925-29.901z" />
<glyph unicode="&#xe6cf;" d="M346.522 76.135c-3.072 4.096-5.939 8.397-8.601 13.107 0 0-14.336 22.733-26.214 24.166-9.831 1.229 0.615-10.24 11.264-22.528 7.783-4.505 15.769-9.625 23.552-14.745z" />
<glyph unicode="&#xe6d0;" d="M335.257-11.111c0 0 0 0 0 0-0.205 0.205-0.409 0.205-0.615 0.409-0.205 0-0.205 0.205-0.409 0.205 0 0 0 0 0 0s0 0 0 0 0 0 0 0c-0.205 0.205-0.615 0.409-0.819 0.615 0 0 0 0 0 0s-0.205 0-0.205 0.205c0 0 0 0 0 0-0.205 0.205-0.409 0.409-0.615 0.409 0 0 0 0 0 0s-0.205 0-0.205 0.205c0 0 0 0 0 0-0.205 0.205-0.615 0.409-0.819 0.615 0 0 0 0 0 0-1.024 0.615-1.843 1.229-2.663 1.843 1.843-1.843 3.687-3.481 5.529-5.12 0.409 0.205 0.819 0.205 1.229 0.409-0.205 0.205-0.409 0.205-0.409 0.205z" />
<glyph unicode="&#xe6d1;" d="M387.687 47.462c6.349-4.915 13.312-11.059 21.299-18.432 12.288 9.625 23.552 20.48 33.997 32.358-1.229 1.229-2.253 2.253-3.481 3.481 0 0 0 0 0 0-4.301 2.663-8.601 5.529-12.697 8.192l-81.101 52.839h-79.463c8.192-5.12 36.659-23.142 44.442-27.443 27.853-15.769 64.307-41.575 77.005-50.995z" />
<glyph unicode="&#xe6d2;" d="M439.501 64.666c-0.205 0-0.205 0 0 0-0.205 0-0.205 0 0 0-0.205 0-0.205 0 0 0z" />
<glyph unicode="&#xe6d3;" d="M442.777 61.184c0.205 0.205 0.409 0.615 0.819 0.819-0.205 0.205-0.409 0.205-0.615 0.409-0.205 0-0.205 0.205-0.409 0.205 0 0 0 0 0 0-0.205 0.205-0.409 0.205-0.615 0.409-0.615 0.409-1.433 0.819-2.048 1.229-0.205 0-0.205 0.205-0.409 0.205 0 0-0.205 0-0.205 0.205 1.229-1.024 2.253-2.253 3.481-3.481z" />
<glyph unicode="&#xe6d4;" d="M442.777 62.413c-0.205 0-0.205 0.205-0.409 0.205 0.205 0 0.409 0 0.409-0.205 0.205 0 0.205 0 0 0z" />
<glyph unicode="&#xe6d5;" d="M440.729 63.846c0.205-0.205 0.615-0.409 0.819-0.409s0.205-0.205 0.409-0.205c0 0 0.205 0 0.205-0.205-0.615 0.409-1.433 0.819-2.048 1.229 0.205 0 0.205-0.205 0.409-0.205 0 0 0 0 0.205-0.205z" />
<glyph unicode="&#xe6d6;" d="M492.973 224c0-130.879-106.098-236.977-236.977-236.977s-236.977 106.098-236.977 236.977c0 130.879 106.098 236.977 236.977 236.977s236.977-106.098 236.977-236.977z" />
<glyph unicode="&#xe6d7;" d="M322.337 368.694c-1.793 6.544-128.272 6.555-131.758 0-3.488-6.552-6.309-9.179-6.309-55.73s21.017-147.934 21.017-172.787-11.196-102.666-9.601-106.513c1.601-3.843 24.475-8.281 61.952-8.281 37.485 0 56.748 4.438 59.591 8.281 2.844 3.846-9.601 87.576-9.601 106.513 0 29.586 21.025 133.341 21.025 172.787-0.003 39.449-4.527 49.189-6.316 55.73z" />
<glyph unicode="&#xe6d8;" d="M321.575 366.225h-130.236c0 0-7.068-50.896-3.128-80.209 0-22.406 19.88-122.636 19.88-145.050s-7.857-87.299-6.424-90.772c1.44-3.469 22.061-7.469 55.864-7.469 33.792 0 51.157 4 53.721 7.469 2.56 3.473-6.425 73.694-6.425 90.772 0 26.678 19.091 121.416 19.091 145.962 3.147 38.787-2.342 79.296-2.342 79.296z" />
<glyph unicode="&#xe6d9;" d="M321.575 366.225c0 0-121.346-312.553-119.912-316.026 1.44-3.469 22.061-7.469 55.864-7.469 33.792 0 51.157 4 53.721 7.469 2.56 3.473-6.425 73.694-6.425 90.772 0 26.678 19.091 121.416 19.091 145.963 3.151 38.784-2.339 79.291-2.339 79.291z" />
<glyph unicode="&#xe6da;" d="M322.929 352.409c0 0-26.675-3.547-67.452-3.547-40.785 0-64.699 2.369-64.699 2.369s0 7.887 0 18.541c0 16.565 130.333 18.435 130.333 0.296 1.175-5.029 1.818-17.658 1.818-17.658z" />
<glyph unicode="&#xe6db;" d="M176.548 365.562c0 0-7.697-17.908 4.247-30.911 11.947-12.995 24.161 3.195 31.053 10.406 30.678 32.060 110.15 14.001 110.15 14.001 1.534 15.12-1.849 32.512-27.734 37.496-22.084 4.262-36.25-3.996-43.921-2.997-7.682 1.003-28.194 7.996-40.531 3.993-20.044-6.492-29.859-23.988-33.264-31.988z" />
<glyph unicode="&#xe6dc;" d="M176.371 367.159c0 0-7.723-17.904 4.277-30.903s24.276 3.196 31.207 10.402c30.825 32.059 110.674 14.001 110.674 14.001 1.534 15.124-1.863 32.512-27.865 37.496-22.196 4.255-36.423-3.996-44.142-2.997-7.712 1.003-28.325 7.992-40.721 3.993-20.142-6.492-30.001-23.992-33.429-31.992z" />
<glyph unicode="&#xe6dd;" d="M294.522 301.219c0-4.359 3.772-7.892-0.591-7.892l-38.507 1.137-38.806-1.141c-4.356 0-0.591 3.532-0.591 7.892v0c0 4.356-3.764 7.887 0.591 7.887 0 0 25.19 1.138 39.105 1.138 13.9 0 38.207-1.138 38.207-1.138 4.363 0.004 0.591-3.529 0.591-7.884v0z" />
<glyph unicode="&#xe6de;" d="M293.93 292.856h-0.015l-38.507 1.137-38.776-1.137c-1.194 0-1.923 0.247-2.301 0.782-0.569 0.8-0.184 1.938 0.31 3.371 0.43 1.254 0.917 2.672 0.917 4.206 0 1.53-0.487 2.952-0.917 4.202-0.494 1.437-0.88 2.574-0.31 3.371 0.381 0.535 1.107 0.782 2.286 0.782 0.232 0.011 25.339 1.137 39.105 1.137 13.751 0 37.982-1.126 38.23-1.137h0.003c1.16 0 1.886-0.25 2.264-0.782 0.568-0.8 0.183-1.935-0.315-3.371-0.426-1.25-0.916-2.672-0.916-4.202 0-1.534 0.49-2.952 0.916-4.206 0.498-1.437 0.883-2.575 0.315-3.371-0.382-0.532-1.111-0.782-2.29-0.782zM255.723 309.776c-13.747 0-38.832-1.127-39.083-1.137-0.838 0-1.365-0.135-1.549-0.389-0.288-0.408 0.064-1.437 0.434-2.525 0.43-1.254 0.969-2.817 0.969-4.505s-0.539-3.252-0.969-4.509c-0.374-1.089-0.722-2.118-0.434-2.525 0.184-0.255 0.711-0.389 1.526-0.389l38.791 1.137 38.529-1.137c0.815 0 1.339 0.138 1.523 0.389 0.288 0.408-0.063 1.437-0.438 2.525-0.43 1.257-0.969 2.822-0.969 4.509s0.539 3.251 0.969 4.505c0.378 1.089 0.726 2.118 0.438 2.525-0.183 0.255-0.711 0.389-1.531 0.389-0.265 0.011-24.478 1.138-38.207 1.138z" />
<glyph unicode="&#xe6df;" d="M255.869 330.839l2.799-5.657 6.241-0.906-4.524-4.408 1.067-6.219-5.583 2.938-5.583-2.938 1.066 6.219-4.524 4.408 6.249 0.906z" />
<glyph unicode="&#xe6e0;" d="M231.603 280.818c-1.344 0-2.5 1.011-2.645 2.376-0.161 1.467 0.891 2.78 2.353 2.945 0.535 0.060 13.264 1.459 23.962 1.459 10.69 0 23.424-1.399 23.955-1.459 1.471-0.164 2.522-1.481 2.361-2.945s-1.463-2.503-2.952-2.358c-0.123 0.015-12.98 1.433-23.363 1.433-10.406 0-23.248-1.418-23.371-1.433-0.101-0.011-0.202-0.018-0.299-0.018z" />
<glyph unicode="&#xe6e1;" d="M225.358 297.877c-1.702 0-3.158 1.205-3.352 2.844-0.198 1.748 1.126 3.327 2.982 3.518 0.673 0.075 20.149 0.827 30.293 0.827 10.137 0 29.613-0.752 30.286-0.827 1.856-0.195 3.188-1.774 2.982-3.518-0.206-1.755-1.841-2.994-3.727-2.822-0.161 0.019-19.689 0.782-29.541 0.782-9.867 0-29.388-0.764-29.545-0.782-0.131-0.015-0.262-0.022-0.378-0.022z" />
<glyph unicode="&#xe6e2;" d="M164.898 140.136c-1.571-2.019-3.254-3.949-5.061-5.76-11.166-11.149-26.479-18.014-43.497-18.019-17.019 0.005-32.329 6.87-43.495 18.019-11.147 11.165-18.012 26.477-18.018 43.495 0.006 17.021 6.87 32.331 18.018 43.495 11.166 11.149 26.477 18.014 43.495 18.018 0.997 0 1.985-0.028 2.97-0.075l10.902 20.113c-4.513 0.762-9.143 1.182-13.872 1.182-45.694-0.005-82.726-37.035-82.734-82.732 0.009-45.695 37.037-82.728 82.734-82.732 30.937 0.003 57.885 16.99 72.078 42.134-6.012 0.729-12.198 1.482-18.318 2.229-1.742 0.211-3.477 0.424-5.202 0.633zM395.692 260.606c-3.771 0-7.473-0.276-11.108-0.765 0.668-2.137 1.275-4.076 1.808-5.765 0.966-3.075 1.749-5.504 2.040-6.387 0.051-0.134 0.102-0.268 0.149-0.403 1.009-2.792 2.038-5.472 3.075-8.050 1.336 0.087 2.678 0.146 4.036 0.146 17.018-0.004 32.332-6.867 43.495-18.015 11.149-11.166 18.013-26.476 18.017-43.495-0.004-17.020-6.867-32.33-18.017-43.497-11.163-11.147-26.478-18.010-43.495-18.015-17.019 0.005-32.329 6.868-43.493 18.015-11.148 11.167-18.012 26.477-18.018 43.497 0.005 12.938 3.98 24.883 10.782 34.776-2.141 4.953-4.263 10.239-6.316 15.875-0.024 0.060-0.046 0.118-0.068 0.173-0.217 0.56-0.306 0.827-0.405 1.104-0.18 0.521-0.324 0.951-0.496 1.478-0.337 1.028-0.757 2.34-1.282 3.988-0.021 0.063-0.044 0.135-0.063 0.2-14.453-14.895-23.366-35.197-23.37-57.595 0.009-45.697 37.036-82.728 82.73-82.736 45.694 0.008 82.728 37.039 82.736 82.736-0.009 45.696-37.042 82.727-82.737 82.735zM332.781 246.781l13.146 12.030c1.14-3.702 2.194-7.117 3.129-10.134 0.22-0.705 0.429-1.381 0.634-2.041 0.994-3.207 1.828-5.882 2.458-7.869 0.378-1.2 0.682-2.146 0.917-2.859 0.116-0.36 0.215-0.652 0.324-0.958 0.057-0.16 0.108-0.311 0.219-0.586 0.012-0.032 0.025-0.064 0.040-0.1 1.083-2.981 2.188-5.85 3.304-8.627 14.145-35.257 30.125-54.007 30.693-54.678 2.1-2.443 5.067-3.696 8.054-3.696 2.447-0.001 4.906 0.841 6.908 2.56 4.448 3.821 4.956 10.519 1.135 14.966v-0.001c-0.556 0.654-15.292 18.348-28.085 51.245-0.733 1.884-1.462 3.81-2.179 5.794-0.046 0.126-0.094 0.25-0.145 0.375-0.222 0.657-0.938 2.893-1.864 5.858-0.698 2.236-1.548 4.973-2.516 8.1-4.146 13.403-10.457 33.984-16.34 53.113-3.625 11.797-7.095 23.049-9.798 31.754-1.354 4.351-2.516 8.065-3.416 10.909-0.919 2.884-1.506 4.712-1.94 5.917-1.337 3.747-3.918 7.157-7.092 9.635-4.8 3.749-10.609 5.848-17.774 7.288-7.195 1.412-15.91 2.089-26.845 2.095-5.86 0-10.611-4.75-10.611-10.611s4.751-10.612 10.611-10.612c13.354 0.025 22.293-1.219 27.145-2.796 2.432-0.764 3.773-1.575 4.301-2 0.214-0.17 0.312-0.279 0.35-0.325 0.211-0.588 1.039-3.128 2.113-6.545 2.082-6.6 5.332-17.101 9.006-29.025h-136.612l-6.601 14.747c1.223 0.332 2.427 0.662 3.614 0.987 7.61 2.089 14.434 4.020 19.48 5.571 10.813 3.303 9.719 14.66 0 14.66h-63.511c-18.324 0-1.208-32.315 16.286-27.678 1.118 0.297 2.243 0.594 3.371 0.895l0.711-1.591 7.824-17.48-66.214-122.137c-0.063-0.12-0.108-0.247-0.169-0.368-0.962-1.807-1.517-3.867-1.517-6.147 0-7.423 5.379-12.693 13.117-13.863 0 0 7.18-0.884 17.99-2.212 10.194-1.251 23.617-2.895 37.317-4.564 7.259-0.885 14.593-1.776 21.562-2.62 19.089-2.311 35.445-4.261 40.021-4.724 15.537-1.567 30.416 12.435 30.416 27.983 0 2.789-0.412 5.45-1.168 7.952l68.201 62.413zM196.022 200.12c-6.922-0.84-14.188-1.734-21.378-2.628-6.359-0.791-12.652-1.581-18.593-2.329-7.251-0.915-13.968-1.769-19.619-2.491l47.71 88.002 34.838-77.847c-6.626-0.75-14.532-1.687-22.958-2.707zM263.713 212.34l-12.666-11.592c-2.864 1.573-6.028 2.709-9.381 3.333l-40.12 89.652h133.643c1.285-4.185 2.572-8.371 3.832-12.475l-75.308-68.918z" />
<glyph unicode="&#xe6e3;" d="M473.6 384c-25.6 0-296.637 0-448 0-12.8 0-25.6-12.8-25.6-25.6v-256c0-25.6 12.8-38.4 38.4-38.4 142.793 0 409.6 0 435.2 0s38.4 12.8 38.4 38.4v243.2c0 25.6-12.8 38.4-38.4 38.4z" />
<glyph unicode="&#xe6e4;" d="M125.097 215.401c-6.659-27.008-33.721-43.443-60.439-36.707-26.707 6.733-42.967 34.087-36.304 61.094 6.659 27.011 33.718 43.447 60.429 36.714 26.717-6.733 42.976-34.093 36.314-61.101 0 0 6.662 27.008 0 0zM98.707 234.778c0.992 6.707-4.061 10.314-10.969 12.72l2.24 9.088-5.472 1.379-2.183-8.848c-1.44 0.362-2.915 0.704-4.384 1.043l2.198 8.905-5.469 1.379-2.243-9.085c-1.191 0.275-2.359 0.544-3.495 0.829l0.007 0.029-7.545 1.904-1.456-5.907c0 0 4.061-0.941 3.974-0.999 2.218-0.56 2.618-2.042 2.55-3.216l-2.553-10.352c0.153-0.038 0.352-0.096 0.57-0.185-0.183 0.045-0.377 0.096-0.579 0.144l-3.578-14.502c-0.272-0.682-0.96-1.702-2.509-1.315 0.054-0.080-3.977 1.005-3.977 1.005l-2.717-6.333 7.12-1.795c1.325-0.336 2.624-0.688 3.901-1.017l-2.266-9.19 5.466-1.379 2.243 9.094c1.495-0.409 2.941-0.787 4.362-1.142l-2.234-9.050 5.472-1.379 2.266 9.175c9.331-1.786 16.346-1.065 19.299 7.466 2.381 6.867-0.118 10.832-5.027 13.415 3.578 0.835 6.269 3.213 6.989 8.121 0 0-0.72-4.909 0 0v0zM86.205 217.059c-1.689-6.867-13.133-3.155-16.841-2.224l3.005 12.176c3.709-0.938 15.603-2.791 13.837-9.952 0 0 1.766 7.161 0 0v0zM87.897 234.88c-1.543-6.246-11.066-3.072-14.153-2.294l2.723 11.043c3.088-0.781 13.037-2.233 11.43-8.749 0 0 1.606 6.515 0 0v0z" />
<glyph unicode="&#xe6e5;" d="M169.798 247.501c4.045 0 7.539-0.733 10.474-2.169 2.951-1.453 5.386-3.408 7.338-5.869 1.927-2.474 3.36-5.363 4.285-8.679 0.918-3.321 1.379-6.893 1.379-10.717 0-5.872-1.065-11.421-3.213-16.653-2.15-5.238-5.065-9.783-8.774-13.658-3.706-3.872-8.083-6.921-13.13-9.178-5.040-2.256-10.515-3.382-16.397-3.382-0.762 0-2.099 0.022-3.987 0.061s-4.061 0.237-6.489 0.57c-2.448 0.346-5.034 0.854-7.767 1.539-2.73 0.672-5.325 1.613-7.766 2.807l21.837 92.752 19.559 3.065-7.817-32.915c1.673 0.762 3.36 1.353 5.043 1.782 1.686 0.423 3.494 0.643 5.427 0.643 0 0-1.933 0 0 0v0 0zM153.392 192.883c2.944 0 5.721 0.733 8.329 2.17 2.614 1.44 4.87 3.382 6.762 5.805 1.891 2.432 3.386 5.171 4.477 8.233s1.642 6.253 1.642 9.577c0 4.083-0.675 7.267-2.019 9.568-1.344 2.291-3.833 3.446-7.446 3.446-1.184 0-2.71-0.227-4.601-0.637-1.898-0.432-3.597-1.331-5.12-2.685l-8.327-34.954c0.502-0.089 0.947-0.176 1.325-0.256 0.371-0.087 0.781-0.147 1.19-0.192 0.432-0.048 0.925-0.074 1.523-0.074 0.595-0.003 1.344-0.003 2.266-0.003 0 0-0.922 0 0 0v0zM210.365 178.979h-18.681l15.776 67.107h18.809l-15.904-67.107zM219.456 254.262c-2.608 0-4.973 0.784-7.069 2.355-2.115 1.562-3.161 3.968-3.161 7.21 0 1.782 0.358 3.456 1.069 5.034 0.72 1.574 1.664 2.931 2.845 4.087 1.181 1.142 2.547 2.058 4.099 2.745 1.561 0.678 3.222 1.017 4.992 1.017 2.605 0 4.957-0.784 7.063-2.355 2.099-1.581 3.152-3.987 3.152-7.21 0-1.789-0.358-3.469-1.075-5.043-0.714-1.574-1.655-2.931-2.835-4.087-1.171-1.145-2.55-2.054-4.099-2.739-1.561-0.688-3.216-1.014-4.979-1.014v0zM239.437 262.803l19.565 3.065-4.803-19.779h20.954l-3.783-15.561h-20.829l-5.549-23.472c-0.512-1.955-0.8-3.786-0.883-5.481-0.093-1.705 0.121-3.171 0.627-4.403 0.502-1.235 1.405-2.189 2.714-2.864 1.303-0.685 3.168-1.031 5.616-1.031 2.016 0 3.978 0.195 5.878 0.579 1.888 0.377 3.798 0.906 5.735 1.594l1.392-14.55c-2.525-0.935-5.257-1.741-8.205-2.419-2.951-0.688-6.441-1.017-10.48-1.017-5.805 0-10.304 0.87-13.507 2.605-3.2 1.747-5.463 4.135-6.819 7.155-1.334 3.011-1.933 6.48-1.767 10.39 0.173 3.92 0.758 8.038 1.767 12.377l12.377 52.813zM274.329 205.769c0 5.779 0.925 11.232 2.774 16.333 1.846 5.107 4.505 9.575 7.959 13.408 3.44 3.815 7.629 6.835 12.563 9.053 4.909 2.205 10.406 3.319 16.464 3.319 3.792 0 7.178-0.362 10.157-1.088 2.992-0.733 5.699-1.68 8.147-2.867l-6.442-14.81c-1.683 0.691-3.43 1.299-5.235 1.85-1.808 0.563-4.016 0.832-6.624 0.832-6.237 0-11.165-2.173-14.832-6.502-3.654-4.333-5.495-10.167-5.495-17.485 0-4.336 0.925-7.843 2.784-10.528 1.849-2.682 5.264-4.016 10.221-4.016 2.448 0 4.806 0.259 7.069 0.762 2.279 0.512 4.291 1.152 6.061 1.913l1.395-15.181c-2.361-0.925-4.969-1.763-7.827-2.496-2.864-0.707-6.275-1.075-10.227-1.075-5.219 0-9.639 0.771-13.251 2.291-3.616 1.543-6.601 3.594-8.957 6.189-2.365 2.601-4.064 5.642-5.113 9.13-1.056 3.488-1.591 7.149-1.591 10.969 0 0 0-3.821 0 0v0zM354.112 177.197c-4.457 0-8.333 0.688-11.616 2.048-3.277 1.36-5.99 3.267-8.135 5.741-2.151 2.461-3.757 5.376-4.861 8.736-1.101 3.36-1.632 7.079-1.632 11.155 0 5.113 0.813 10.224 2.454 15.318 1.632 5.107 4.058 9.696 7.264 13.776 3.181 4.087 7.107 7.424 11.731 10.029 4.618 2.585 9.93 3.888 15.894 3.888 4.377 0 8.231-0.688 11.562-2.048 3.315-1.357 6.045-3.28 8.205-5.741 2.135-2.474 3.757-5.376 4.848-8.743 1.098-3.353 1.642-7.082 1.642-11.161 0-5.098-0.8-10.208-2.39-15.318-1.591-5.088-3.952-9.687-7.069-13.776-3.111-4.080-7.002-7.418-11.673-10.010-4.669-2.595-10.080-3.894-16.224-3.894v0zM363.45 231.802c-2.768 0-5.219-0.813-7.315-2.419-2.103-1.625-3.872-3.667-5.296-6.128-1.44-2.474-2.509-5.171-3.229-8.103-0.717-2.938-1.065-5.715-1.065-8.355 0-4.259 0.678-7.575 2.016-9.962 1.353-2.375 3.786-3.568 7.322-3.568 2.777 0 5.216 0.807 7.322 2.429 2.093 1.613 3.859 3.654 5.296 6.122 1.43 2.461 2.509 5.165 3.229 8.103 0.707 2.928 1.065 5.721 1.065 8.355 0 4.247-0.675 7.571-2.026 9.955-1.341 2.377-3.786 3.571-7.318 3.571v0zM408.627 178.979h-18.697l15.776 67.107h18.819l-15.897-67.107zM417.705 254.262c-2.605 0-4.969 0.784-7.063 2.355-2.103 1.562-3.161 3.968-3.161 7.21 0 1.782 0.361 3.456 1.075 5.034 0.714 1.574 1.661 2.931 2.841 4.087 1.175 1.142 2.553 2.058 4.103 2.745 1.552 0.678 3.213 1.017 4.979 1.017 2.611 0 4.973-0.784 7.072-2.355 2.103-1.581 3.165-3.987 3.165-7.21 0-1.789-0.377-3.469-1.082-5.043-0.707-1.574-1.654-2.931-2.832-4.087-1.184-1.145-2.547-2.054-4.099-2.739-1.568-0.688-3.226-1.014-4.998-1.014v0zM431.581 243.030c1.418 0.419 3.002 0.922 4.723 1.472 1.728 0.547 3.661 1.059 5.817 1.52 2.135 0.474 4.541 0.857 7.19 1.155 2.647 0.304 5.664 0.451 9.017 0.451 9.853 0 16.643-2.899 20.394-8.685 3.747-5.782 4.394-13.699 1.965-23.731l-8.592-36.233h-18.803l8.329 35.472c0.509 2.214 0.906 4.355 1.2 6.448 0.298 2.074 0.281 3.901-0.067 5.482-0.333 1.561-1.113 2.841-2.329 3.833-1.232 0.976-3.094 1.465-5.623 1.465-2.435 0-4.915-0.266-7.443-0.774l-12.243-51.923h-18.813l15.277 64.048z" />
<glyph unicode="&#xe6e6;" d="M486.539 417.5c3.851 0 6.961 3.605 6.961 7.455v1c0 3.85-3.111 6.545-6.961 6.545h-224.039v16.455c0 3.85-2.19 6.545-6.039 6.545h-1c-3.85 0-7.961-2.695-7.961-6.545v-16.455h-222.039c-3.85 0-7.961-2.695-7.961-6.545v-1c0-3.85 4.11-7.455 7.961-7.455h16.039v-283h-16.039c-3.85 0-7.961-2.695-7.961-6.545v-1c0-3.85 4.11-7.455 7.961-7.455h461.078c3.851 0 6.961 3.605 6.961 7.455v1c0 3.85-3.111 6.545-6.961 6.545h-17.039v283h17.039zM454.5 134.5h-398v283h398v-283z" />
<glyph unicode="&#xe6e7;" d="M486.539 104.5h-461.078c-3.85 0-7.961-2.695-7.961-6.545v-1c0-3.85 4.11-7.455 7.961-7.455h165.181l-80.446-80.446c-2.929-2.93-2.929-7.678 0-10.607 1.465-1.464 3.385-2.196 5.304-2.196s3.839 0.732 5.304 2.196l91.053 91.053h90.036l91.053-91.053c1.465-1.464 3.385-2.196 5.304-2.196s3.839 0.732 5.304 2.196c2.929 2.93 2.929 7.678 0 10.607l-80.446 80.446h163.431c3.851 0 6.961 3.605 6.961 7.455v1c0 3.85-3.111 6.545-6.961 6.545z" />
<glyph unicode="&#xe6e8;" d="M422.347 293.268c-11.732-4.036-24.56 2.224-28.596 13.956-1.085 3.152-1.419 6.382-1.111 9.501l-70.984 35.035c-2.366-2.414-5.309-4.332-8.717-5.505-5.842-2.010-11.721-1.465-16.885 1.036v0l-67.554-73.963c0-0.73 0.418-1.483 0.686-2.263 4.036-11.732-2.342-24.56-14.074-28.596s-24.619 2.224-28.655 13.956c-0.973 2.828-1.371 5.719-1.215 8.536v0l-71.553 31.483c-2.47-2.747-5.654-4.926-9.389-6.211-11.732-4.036-24.564 2.224-28.6 13.956s2.222 24.56 13.954 28.596 24.559-2.224 28.595-13.956c0.973-2.828 1.342-5.719 1.186-8.536v0l71.538-31.483c2.47 2.747 5.647 4.926 9.382 6.211 5.842 2.010 12.074 1.465 17.238-1.036v0l67.907 73.963c-1 0.73-0.771 1.483-1.039 2.263-4.036 11.732 2.165 24.56 13.897 28.596s24.53-2.224 28.566-13.956c1.084-3.152 1.404-6.382 1.096-9.501l70.977-35.035c2.366 2.414 5.305 4.332 8.713 5.505 11.732 4.036 24.558-2.224 28.594-13.956 4.038-11.732-2.225-24.559-13.957-28.596zM94.534 318.602c-3.911-1.345-5.998-5.621-4.652-9.532s5.621-5.998 9.532-4.652 5.998 5.621 4.652 9.532-5.621 5.998-9.532 4.652zM205.236 270.837c-3.911-1.345-5.998-5.621-4.652-9.532 1.345-3.911 5.621-5.998 9.532-4.652 3.911 1.345 5.998 5.621 4.652 9.532s-5.621 5.998-9.532 4.652zM303.18 374.624c-3.911-1.345-5.998-5.621-4.652-9.532s5.621-5.998 9.532-4.652 5.998 5.621 4.652 9.532c-1.346 3.911-5.621 5.998-9.532 4.652zM412.588 321.636c-3.911-1.345-5.998-5.621-4.652-9.532s5.621-5.998 9.532-4.652c3.911 1.345 5.998 5.621 4.652 9.532s-5.622 5.998-9.532 4.652z" />
<glyph unicode="&#xe6e9;" d="M170.5 211.5h171v-15h-171v15z" />
<glyph unicode="&#xe6ea;" d="M170.5 181.5h171v-15h-171v15z" />
<glyph unicode="&#xe6eb;" d="M390.2 474.122c-3.774 3.784-8.832 5.878-14.147 5.878h-254.044c-11.008 0-19.978-8.955-19.978-19.978l0.020-467.753c-0.020-8.043 4.874-15.344 12.319-18.452 7.454-3.098 16.041-1.392 21.765 4.327l112.906 112.702 112.896-112.691c5.714-5.724 14.29-7.454 21.765-4.337 2.462 1.034 4.664 2.503 6.482 4.337 3.671 3.671 5.847 8.709 5.837 14.137l0.010 467.733c0.021 5.289-2.099 10.358-5.832 14.101z" />
<glyph unicode="&#xe6ec;" d="M255.914 478.666c-141.187 0-255.642-114.008-255.642-254.642s114.454-254.642 255.643-254.642 255.643 114.007 255.643 254.642-114.457 254.642-255.643 254.642zM96.647 126.957c-41.171-7.327-41.426 168.982-21.286 168.474 20.145-0.524 96.153-23.709 128.617-47.425-1.247-46.041 8.744-62.759 8.744-62.759 0.262 0.269-81.982-53.115-116.075-58.289zM288.481 188.058c-14.681-5.682-49.060-5.967-62.592 0.149-6.501 8.405-9.863 28.547-9.113 60.113 0 0 36.239 17.144 78.881 0.21 3.071-23.806-1.553-49.855-7.176-60.472zM416.512 126.809c-34.063 5.175-116.262 58.512-115.992 58.228 0 0 9.983 16.718 8.736 62.7 32.456 23.679 108.411 46.857 128.542 47.373 20.125 0.509 19.885-175.598-21.286-168.3z" />
<glyph unicode="&#xe6ed;" d="M512 224c0-141.385-114.615-256-256-256s-256 114.615-256 256c0 141.385 114.615 256 256 256s256-114.615 256-256z" />
<glyph unicode="&#xe6ee;" d="M111.411 239.975l46.489-8.192 60.621 68.813c0.41 0.409 0.614 1.229 0.205 1.843-0.205 0.615-0.819 1.024-1.434 1.024-49.767 1.024-61.44-13.517-106.701-60.416-0.409-0.41-0.615-1.024-0.409-1.638 0.205-1.024 0.615-1.434 1.229-1.434z" />
<glyph unicode="&#xe6ef;" d="M198.042 151.705l-32.768-15.565 14.541 35.021-0.205 0.205v-0.205l-18.841-10.24 9.625 22.733-77.21-58.368 29.696-1.843-29.696-61.44 74.138 45.056 4.506-28.262 42.394 61.031-26.624-10.854z" />
<glyph unicode="&#xe6f0;" d="M332.8 188.365c-0.615 0.205-1.229 0.205-1.843-0.205l-69.222-60.416 9.421-47.514c0.205-0.615 0.615-1.024 1.229-1.229s1.229 0 1.639 0.409c47.309 45.056 60.621 57.959 59.801 107.52 0 0.615-0.409 1.229-1.024 1.433z" />
<glyph unicode="&#xe6f1;" d="M419.021 386.406c-0.205 0.819-0.615 1.229-1.433 1.433-44.851 6.759-104.858-4.71-129.434-31.744-36.864-40.141-84.377-93.594-121.242-133.735 11.059-31.744 53.657-74.342 85.607-85.401 40.346 36.454 94.003 83.968 134.553 120.423 27.034 24.576 38.502 82.534 31.949 129.024z" />
<glyph unicode="&#xe6f2;" d="M344 464v-176c0-17.672 14.328-32 32-32s32 14.328 32 32v176h-64z" />
<glyph unicode="&#xe6f3;" d="M184 288c0-17.672 14.328-32 32-32s32 14.328 32 32v176h-64v-176z" />
<glyph unicode="&#xe6f4;" d="M24 448v-160c0-17.672 14.328-32 32-32s32 14.328 32 32v176h-48c-8.832 0-16-7.16-16-16z" />
<glyph unicode="&#xe6f5;" d="M464 0c0-8.832-7.168-16-16-16h-240v200c0 4.128-3.576 8-8 8h-112c-4.424 0-8-3.576-8-8v-200h-16c-8.832 0-16 7.168-16 16v240.72c2.608-0.44 5.264-0.72 8-0.72 16.704 0 31.408 8.544 40 21.504 8.592-12.96 23.296-21.504 40-21.504s31.408 8.544 40 21.504c8.592-12.96 23.296-21.504 40-21.504s31.408 8.544 40 21.504c8.592-12.96 23.296-21.504 40-21.504s31.408 8.544 40 21.504c8.592-12.96 23.296-21.504 40-21.504s31.408 8.544 40 21.504c8.592-12.96 23.296-21.504 40-21.504 2.736 0 5.392 0.28 8 0.72v-240.72z" />
<glyph unicode="&#xe6f6;" d="M264 288c0-17.672 14.328-32 32-32s32 14.328 32 32v176h-64v-176z" />
<glyph unicode="&#xe6f7;" d="M104 288c0-17.672 14.328-32 32-32s32 14.328 32 32v176h-64v-176z" />
<glyph unicode="&#xe6f8;" d="M472 464h-48v-176c0-17.672 14.328-32 32-32s32 14.328 32 32v160c0 8.84-7.168 16-16 16z" />
<glyph unicode="&#xe6f9;" d="M472 480h-432c-17.688 0-32-14.312-32-32v-160c0-17.752 9.664-33.216 24-41.512v-246.488c0-17.688 14.312-32 32-32h384c17.688 0 32 14.312 32 32v246.488c14.336 8.296 24 23.768 24 41.512v160c0 17.688-14.312 32-32 32zM408 464v-176c0-17.672-14.328-32-32-32s-32 14.328-32 32v176h64zM328 464v-176c0-17.672-14.328-32-32-32s-32 14.328-32 32v176h64zM248 464v-176c0-17.672-14.328-32-32-32s-32 14.328-32 32v176h64zM168 464v-176c0-17.672-14.328-32-32-32s-32 14.328-32 32v176h64zM24 448c0 8.84 7.168 16 16 16h48v-176c0-17.672-14.328-32-32-32s-32 14.328-32 32v160zM96-16v192h96v-80h-8c-4.424 0-8-3.576-8-8s3.576-8 8-8h8v-96h-96zM464 0c0-8.832-7.168-16-16-16h-240v200c0 4.128-3.576 8-8 8h-112c-4.424 0-8-3.576-8-8v-200h-16c-8.832 0-16 7.168-16 16v240.72c2.608-0.44 5.264-0.72 8-0.72 16.704 0 31.408 8.544 40 21.504 8.592-12.96 23.296-21.504 40-21.504s31.408 8.544 40 21.504c8.592-12.96 23.296-21.504 40-21.504s31.408 8.544 40 21.504c8.592-12.96 23.296-21.504 40-21.504s31.408 8.544 40 21.504c8.592-12.96 23.296-21.504 40-21.504s31.408 8.544 40 21.504c8.592-12.96 23.296-21.504 40-21.504 2.736 0 5.392 0.28 8 0.72v-240.72zM456 256c-17.672 0-32 14.328-32 32v176h48c8.832 0 16-7.16 16-16v-160c0-17.672-14.328-32-32-32z" />
<glyph unicode="&#xe6fa;" d="M424 192h-192c-4.424 0-8-3.576-8-8v-160c0-4.424 3.576-8 8-8h192c4.424 0 8 3.576 8 8v160c0 4.424-3.576 8-8 8zM416 32h-176v144h176v-144z" />
<glyph unicode="&#xe6fb;" d="M96-16h96v96h-8c-4.424 0-8 3.576-8 8s3.576 8 8 8h8v80h-96v-192z" />
<glyph unicode="&#xe6fc;" d="M240 176h176v-144h-176v144z" />
<glyph unicode="&#xe6fd;" d="M386.344 138.344c1.56-1.56 3.608-2.344 5.656-2.344s4.096 0.784 5.656 2.344c3.128 3.128 3.128 8.184 0 11.312l-8 8c-3.128 3.128-8.184 3.128-11.312 0s-3.128-8.184 0-11.312l8-8z" />
<glyph unicode="&#xe6fe;" d="M386.344 98.344c1.56-1.56 3.608-2.344 5.656-2.344s4.096 0.784 5.656 2.344c3.128 3.128 3.128 8.184 0 11.312l-48 48c-3.128 3.128-8.184 3.128-11.312 0s-3.128-8.184 0-11.312l48-48z" />
<glyph unicode="&#xe6ff;" d="M50.495 413.69h410.997v-410.997h-410.997c0 0 0 410.997 0 410.997z" />
<glyph unicode="&#xe700;" d="M50.495 271.422h410.997v-31.615h-410.997c0 0 0 31.615 0 31.615z" />
<glyph unicode="&#xe701;" d="M82.426 445.307h346.692l32.422-31.552h-411.077l31.963 31.552z" />
<glyph unicode="&#xe702;" d="M82.111 34.308h94.845v237.113h-94.845c0 0 0-237.113 0-237.113zM208.571 34.308h94.845v237.113h-94.845v-237.113zM335.033 271.422v-237.114h94.845v237.113h-94.845z" />
<glyph unicode="&#xe703;" d="M508.805 318.988l-50.727 47.313h-404.122l-50.758-47.313h-0.127v-31.662c0-8.741 7.098-15.839 15.808-15.839h474.228c8.741 0 15.808 7.099 15.808 15.839v31.662h-0.113z" />
<glyph unicode="&#xe704;" d="M287.609 81.731h15.808v-47.423h-15.808v47.423z" />
<glyph unicode="&#xe705;" d="M145.34 113.346v47.423h-63.23v-126.462h94.845v79.038z" />
<glyph unicode="&#xe706;" d="M208.571 113.346h31.615v-79.038h-31.615v79.038z" />
<glyph unicode="&#xe707;" d="M350.839 160.77v-79.038h-15.806v-47.423h94.845v126.462z" />
<glyph unicode="&#xe708;" d="M82.111 271.422h94.845v-31.615h-94.845v31.615z" />
<glyph unicode="&#xe709;" d="M335.033 271.422h94.845v-31.615h-94.845v31.615z" />
<glyph unicode="&#xe70a;" d="M208.571 271.422h94.845v-31.615h-94.845v31.615z" />
<glyph unicode="&#xe70b;" d="M113.725 97.538h-63.23c-17.451 0-31.615-14.164-31.615-31.615v-31.615c0-17.467 14.164-31.615 31.615-31.615h63.23c17.467 0 31.615 14.147 31.615 31.615v31.615c0 17.453-14.131 31.615-31.615 31.615zM461.492 97.538h-63.23c-17.451 0-31.615-14.164-31.615-31.615v-31.615c0-17.467 14.164-31.615 31.615-31.615h63.23c17.468 0 31.615 14.147 31.615 31.615v31.615c0 17.453-14.131 31.615-31.615 31.615z" />
<glyph unicode="&#xe70c;" d="M461.492 97.538h-63.23c-4.632 0-8.995-1.043-12.962-2.844-1.786-3.967-2.844-8.332-2.844-12.962v-31.615c0-17.468 14.164-31.615 31.615-31.615h63.23c4.632 0 8.995 1.043 12.962 2.844 1.786 3.967 2.844 8.332 2.844 12.962v31.615c0 17.453-14.131 31.615-31.615 31.615z" />
<glyph unicode="&#xe70d;" d="M113.725 97.538h-63.23c-4.633 0-8.995-1.043-12.962-2.844-1.786-3.967-2.844-8.332-2.844-12.962v-31.615c0-17.468 14.164-31.615 31.615-31.615h63.23c4.632 0 8.995 1.043 12.962 2.844 1.786 3.967 2.845 8.332 2.845 12.962v31.615c0 17.453-14.131 31.615-31.615 31.615z" />
<glyph unicode="&#xe70e;" d="M458.109 366.269h-404.183l-50.727-47.28h-0.127v-0.143l505.733 0.143z" />
<glyph unicode="&#xe70f;" d="M176.956 366.269l-15.806-47.423v-47.36h31.615v47.36l15.806 47.423z" />
<glyph unicode="&#xe710;" d="M508.805 318.988l-50.694 47.28h-28.217l47.423-47.423v-47.36h15.808c8.741 0 15.808 7.099 15.808 15.839v31.521l-0.094 0.142h-0.035z" />
<glyph unicode="&#xe711;" d="M366.647 366.269l31.615-47.423v-47.36h31.615v47.36l-31.615 47.423z" />
<glyph unicode="&#xe712;" d="M113.725 366.269l-31.615-47.423v-47.36h31.615v47.36l31.615 47.423z" />
<glyph unicode="&#xe713;" d="M18.881 271.485h15.808v47.36l47.423 47.423h-28.184l-50.852-47.422v-31.521c-0.004-8.743 7.108-15.841 15.805-15.841z" />
<glyph unicode="&#xe714;" d="M240.185 366.269h31.615v-94.781h-31.615v94.781z" />
<glyph unicode="&#xe715;" d="M350.839 271.485v47.36l-15.806 47.423h-31.615l15.807-47.423v-47.36z" />
</font>
</defs>
</svg>
