<?xml version="1.0" encoding="UTF-8" standalone="no"?>
<svg width="115px" height="23px" viewBox="0 0 115 23" version="1.1" xmlns="http://www.w3.org/2000/svg" xmlns:xlink="http://www.w3.org/1999/xlink" xmlns:sketch="http://www.bohemiancoding.com/sketch/ns">
    <!-- Generator: Sketch 3.2.2 (9983) - http://www.bohemiancoding.com/sketch -->
    <title>[ my - hub ]</title>
    <desc>Created with Sketch.</desc>
    <defs></defs>
    <g id="Page-1" stroke="none" stroke-width="1" fill="none" fill-rule="evenodd" sketch:type="MSPage">
        <g id="About_Desktop_Team" sketch:type="MSArtboardGroup" transform="translate(-1081.000000, -1470.000000)" fill="#2D343E">
            <g id="II_Fun-Facts" sketch:type="MSLayerGroup" transform="translate(0.000000, 1401.000000)">
                <g id="Myhub" transform="translate(1081.000000, 69.000000)" sketch:type="MSShapeGroup">
                    <path d="M0.0625,0.62890625 L5.65234375,0.62890625 L5.65234375,2.55078125 L2.37109375,2.55078125 L2.37109375,20.3632812 L5.65234375,20.3632812 L5.65234375,22.2851562 L0.0625,22.2851562 L0.0625,0.62890625 Z M20.4414062,5.84375 C21.2851605,5.84375 21.998044,6.04101365 22.5800781,6.43554688 C23.1621123,6.8300801 23.5976548,7.35937168 23.8867188,8.0234375 C24.5039093,7.26562121 25.1191376,6.71289236 25.7324219,6.36523438 C26.3457062,6.01757639 27.0195276,5.84375 27.7539062,5.84375 C28.910162,5.84375 29.8437464,6.22069936 30.5546875,6.97460938 C31.2656286,7.72851939 31.6210938,8.73436871 31.6210938,9.9921875 L31.6210938,17 L28.7382812,17 L28.7382812,10.4726562 C28.7382812,9.71483996 28.5761735,9.11718969 28.2519531,8.6796875 C27.9277328,8.24218531 27.4570343,8.0234375 26.8398438,8.0234375 C25.9570268,8.0234375 25.1093791,8.58983809 24.296875,9.72265625 L24.296875,17 L21.4257812,17 L21.4257812,10.4257812 C21.4257812,9.6757775 21.253908,9.08789275 20.9101562,8.66210938 C20.5664045,8.236326 20.1054716,8.0234375 19.5273438,8.0234375 C19.0585914,8.0234375 18.6289082,8.15820178 18.2382812,8.42773438 C17.8476543,8.69726697 17.4296897,9.12890328 16.984375,9.72265625 L16.984375,17 L14.1015625,17 L14.1015625,6.0546875 L16.984375,6.0546875 L16.984375,7.58984375 C17.5078151,6.99609078 18.0390598,6.55664205 18.578125,6.27148438 C19.1171902,5.9863267 19.7382777,5.84375 20.4414062,5.84375 L20.4414062,5.84375 Z M36.109375,6.0546875 L38.6992188,11.9375 L41.3242188,6.0546875 L44.4179688,6.0546875 L36.859375,22.5195312 L33.765625,22.5195312 L37.2460938,14.984375 L32.9921875,6.0546875 L36.109375,6.0546875 Z M52.0703125,10.5429688 L57.90625,10.5429688 L57.90625,12.828125 L52.0703125,12.828125 L52.0703125,10.5429688 Z M67,0.62890625 L69.1328125,0.62890625 L69.1328125,7.63671875 C70.023442,6.55077582 71.1288996,6.0078125 72.4492188,6.0078125 C73.1679723,6.0078125 73.8124971,6.1874982 74.3828125,6.546875 C74.9531279,6.9062518 75.3769517,7.40234059 75.6542969,8.03515625 C75.931642,8.66797191 76.0703125,9.60936875 76.0703125,10.859375 L76.0703125,17 L73.9375,17 L73.9375,10.3320312 C73.9375,9.5429648 73.7441426,8.90820553 73.3574219,8.42773438 C72.9707012,7.94726322 72.4609407,7.70703125 71.828125,7.70703125 C71.3593727,7.70703125 70.9179708,7.82812379 70.5039062,8.0703125 C70.0898417,8.31250121 69.632815,8.71484094 69.1328125,9.27734375 L69.1328125,17 L67,17 L67,0.62890625 Z M85.9140625,17 L85.9140625,15.6289062 C85.4609352,16.1210962 84.9433623,16.5039049 84.3613281,16.7773438 C83.779294,17.0507826 83.1992216,17.1875 82.6210938,17.1875 C81.9414029,17.1875 81.314456,17.0175798 80.7402344,16.6777344 C80.1660128,16.3378889 79.7324233,15.876956 79.4394531,15.2949219 C79.1464829,14.7128877 79,13.7461005 79,12.3945312 L79,6.21875 L81.1328125,6.21875 L81.1328125,12.3710938 C81.1328125,13.5039119 81.2949203,14.2949196 81.6191406,14.7441406 C81.943361,15.1933616 82.5117147,15.4179688 83.3242188,15.4179688 C84.3398488,15.4179688 85.2031214,14.92188 85.9140625,13.9296875 L85.9140625,6.21875 L88.046875,6.21875 L88.046875,17 L85.9140625,17 Z M90.953125,0.62890625 L93.0859375,0.62890625 L93.0859375,6.9921875 C94.0078171,6.32030914 94.9921823,5.984375 96.0390625,5.984375 C97.4062568,5.984375 98.5234332,6.49999484 99.390625,7.53125 C100.257817,8.56250516 100.691406,9.88671066 100.691406,11.5039062 C100.691406,13.2382899 100.173833,14.6191355 99.1386719,15.6464844 C98.1035104,16.6738333 96.7187587,17.1875 94.984375,17.1875 C94.289059,17.1875 93.5566445,17.113282 92.7871094,16.9648438 C92.0175743,16.8164055 91.4062523,16.6289074 90.953125,16.4023438 L90.953125,0.62890625 Z M93.0859375,9.03125 L93.0859375,14.8671875 C93.8125036,15.0859386 94.5585899,15.1953125 95.3242188,15.1953125 C96.269536,15.1953125 97.0410126,14.8593784 97.6386719,14.1875 C98.2363311,13.5156216 98.5351562,12.652349 98.5351562,11.5976562 C98.5351562,10.5273384 98.2558622,9.65625336 97.6972656,8.984375 C97.1386691,8.31249664 96.4101607,7.9765625 95.5117188,7.9765625 C94.7148398,7.9765625 93.9062541,8.32812148 93.0859375,9.03125 L93.0859375,9.03125 Z M114.132812,22.2851562 L108.566406,22.2851562 L108.566406,20.3632812 L111.824219,20.3632812 L111.824219,2.55078125 L108.566406,2.55078125 L108.566406,0.62890625 L114.132812,0.62890625 L114.132812,22.2851562 Z" id="[-my---hub-]"></path>
                </g>
            </g>
        </g>
    </g>
</svg>