<?xml version="1.0" encoding="utf-8"?>

<svg version="1.1" xmlns:sketch="http://www.bohemiancoding.com/sketch/ns"
	 xmlns="http://www.w3.org/2000/svg" xmlns:xlink="http://www.w3.org/1999/xlink" x="0px" y="0px" viewBox="-130 98 350 597"
	 enable-background="new -130 98 350 597" xml:space="preserve">
<title>Image</title>
<desc>Created with Sketch.</desc>
<g id="HP-Update" sketch:type="MSPage">
	<g id="HP_Desktop_Alt" transform="translate(-545.000000, -5463.000000)" sketch:type="MSArtboardGroup">
		<g id="VI_Get_Started" transform="translate(0.000000, 5052.000000)" sketch:type="MSLayerGroup">
			<g id="Image" transform="translate(545.000000, 411.000000)">
				<path id="iPhone_6-2" sketch:type="MSShapeGroup" fill="#9EA7B3" d="M217.9,301.9h0.6c0.8,0,1.5-0.7,1.5-1.5v-49.7
					c0-0.8-0.7-1.5-1.5-1.5h-0.6V140c0-23.2-18.8-42-42-42H-85.9c-23.2,0-42,18.8-42,42v48h-0.6c-0.8,0-1.5,0.7-1.5,1.5v25.8
					c0,0.8,0.7,1.5,1.5,1.5h0.6v32.3h-0.6c-0.8,0-1.5,0.7-1.5,1.5v49.7c0,0.8,0.7,1.5,1.5,1.5h0.6v12h-0.6c-0.8,0-1.5,0.7-1.5,1.5
					v49.7c0,0.8,0.7,1.5,1.5,1.5h0.6V769c0,23.2,18.8,42,42,42h261.8c23.2,0,42-18.8,42-42V301.9L217.9,301.9z M-106.8,184.5v538.6
					h303.5V184.5H-106.8z M44.6,789.2c14.8,0,26.8-12,26.8-26.7s-12-26.7-26.8-26.7s-26.8,12-26.8,26.7S29.9,789.2,44.6,789.2z
					 M44.6,786.4c13.2,0,23.9-10.7,23.9-23.9c0-13.2-10.7-23.9-23.9-23.9s-23.9,10.7-23.9,23.9C20.7,775.7,31.4,786.4,44.6,786.4z
					 M-10.3,148.6c3.1,0,5.6-2.5,5.6-5.6s-2.5-5.6-5.6-5.6c-3.1,0-5.6,2.5-5.6,5.6S-13.4,148.6-10.3,148.6z M45.4,124
					c1.9,0,3.5-1.6,3.5-3.5s-1.6-3.5-3.5-3.5c-1.9,0-3.5,1.6-3.5,3.5S43.4,124,45.4,124z M20,140.2c-1.6,0-2.8,1.3-2.8,2.8
					c0,1.6,1.3,2.8,2.8,2.8h50.7c1.6,0,2.8-1.3,2.8-2.8c0-1.6-1.3-2.8-2.8-2.8H20z"/>
				<rect id="Rectangle-50" x="-107" y="184" sketch:type="MSShapeGroup" fill="#FFFFFF" width="304" height="313">
				</rect>
				<g id="Event-I-2" transform="translate(36.000000, 102.000000)">
					<path id="Rectangle-47" sketch:type="MSShapeGroup" fill="#FFFFFF" d="M-126,252.3h270c2.2,0,4,1.8,4,4V310c0,2.2-1.8,4-4,4
						h-270c-2.2,0-4-1.8-4-4v-53.7C-130,254.1-128.2,252.3-126,252.3z"/>
					<path id="Rectangle-46" sketch:type="MSShapeGroup" fill="#9EA7B3" d="M-126,98h270c2.2,0,4,1.8,4,4v146.3c0,2.2-1.8,4-4,4
						h-270c-2.2,0-4-1.8-4-4V102C-130,99.8-128.2,98-126,98z"/>
					<ellipse id="Oval-43" sketch:type="MSShapeGroup" fill="#D8DEE6" cx="116.3" cy="248.4" rx="20.8" ry="20.8">
					</ellipse>
					<path id="Line" sketch:type="MSShapeGroup" fill="none" stroke="#323A45" stroke-width="10" stroke-linecap="square" d="
						M-76.3,272.3H75"/>
					<path id="Line-5" sketch:type="MSShapeGroup" fill="none" stroke="#9EA7B3" stroke-width="6" stroke-linecap="square" d="
						M-77.9,295.5H-20"/>
					<path id="Line-6" sketch:type="MSShapeGroup" fill="none" stroke="#9EA7B3" stroke-width="6" stroke-linecap="square" d="
						M-0.7,295.5h57.9"/>
					<path id="Line-7" sketch:type="MSShapeGroup" fill="none" stroke="#9EA7B3" stroke-width="6" stroke-linecap="square" d="
						M76.6,295.5h57.9"/>
					<g enable-background="new    ">
						<path fill="#323A45" d="M-112.3,265.2h0.9l4.2,9.4h-1.4l-1.2-2.8h-4l-1.2,2.8h-1.4L-112.3,265.2z M-110.3,270.6l-1.5-3.4
							l-1.4,3.4H-110.3z"/>
						<path fill="#323A45" d="M-106.2,274.5v-9.3h3c0.9,0,1.6,0.2,2.1,0.7c0.5,0.5,0.8,1.1,0.8,1.9c0,0.5-0.1,1-0.4,1.4
							c-0.3,0.4-0.6,0.7-1.1,0.9c-0.5,0.2-1.1,0.3-2,0.3h-1v4H-106.2z M-103.5,266.4h-1.4v2.9h1.5c0.5,0,1-0.1,1.3-0.4
							c0.3-0.3,0.4-0.6,0.4-1.1C-101.7,266.9-102.3,266.4-103.5,266.4z"/>
						<path fill="#323A45" d="M-99.2,274.5v-9.3h2.3c0.9,0,1.7,0.2,2.2,0.7s0.8,1.1,0.8,1.9c0,0.5-0.1,1-0.4,1.4
							c-0.3,0.4-0.7,0.7-1.2,0.9c0.3,0.2,0.6,0.5,0.9,0.8c0.3,0.3,0.7,0.9,1.2,1.8c0.3,0.5,0.6,0.9,0.8,1.2l0.5,0.7h-1.6l-0.4-0.6
							c0,0,0-0.1-0.1-0.1l-0.3-0.4l-0.4-0.7l-0.4-0.7c-0.3-0.4-0.5-0.7-0.8-0.9c-0.2-0.2-0.4-0.4-0.6-0.5s-0.5-0.1-0.9-0.1h-0.3v4.1
							H-99.2z M-97.4,266.4h-0.4v2.9h0.5c0.7,0,1.1-0.1,1.4-0.2c0.3-0.1,0.4-0.3,0.6-0.5c0.1-0.2,0.2-0.5,0.2-0.8
							c0-0.3-0.1-0.6-0.2-0.8c-0.2-0.2-0.4-0.4-0.7-0.5C-96.3,266.4-96.8,266.4-97.4,266.4z"/>
					</g>
					<g enable-background="new    ">
						<path fill="#FF6B42" d="M-110.1,273.8c1.5,0,2.8,0.8,3.8,2.4c1,1.6,1.5,3.6,1.5,6.1c0,2.5-0.5,4.6-1.5,6.1
							c-1,1.6-2.3,2.4-3.9,2.4c-1.6,0-2.9-0.8-3.9-2.3c-1-1.5-1.5-3.6-1.5-6.1c0-2.5,0.5-4.6,1.5-6.1
							C-113,274.6-111.7,273.8-110.1,273.8z M-110.1,276h-0.1c-0.9,0-1.6,0.6-2.2,1.7c-0.5,1.1-0.8,2.6-0.8,4.5c0,2,0.3,3.5,0.8,4.6
							c0.5,1.1,1.2,1.7,2.2,1.7c0.9,0,1.6-0.6,2.2-1.7s0.8-2.6,0.8-4.5c0-1.9-0.3-3.4-0.8-4.6S-109.2,276-110.1,276z"/>
						<path fill="#FF6B42" d="M-99.2,274h2.4v16.6h-2.4V274z"/>
					</g>
				</g>
				<g id="Event-I-3" transform="translate(37.000000, 344.000000)">
					<path id="Rectangle-47_1_" sketch:type="MSShapeGroup" fill="#FFFFFF" d="M-126,252.3h270c2.2,0,4,1.8,4,4V310c0,2.2-1.8,4-4,4
						h-270c-2.2,0-4-1.8-4-4v-53.7C-130,254.1-128.2,252.3-126,252.3z"/>
					<path id="Rectangle-46_1_" sketch:type="MSShapeGroup" fill="#9EA7B3" d="M-126,98h270c2.2,0,4,1.8,4,4v146.3c0,2.2-1.8,4-4,4
						h-270c-2.2,0-4-1.8-4-4V102C-130,99.8-128.2,98-126,98z"/>
					<ellipse id="Oval-43_1_" sketch:type="MSShapeGroup" fill="#D8DEE6" cx="116.3" cy="248.4" rx="20.8" ry="20.8">
					</ellipse>
					<path id="Line_1_" sketch:type="MSShapeGroup" fill="none" stroke="#323A45" stroke-width="10" stroke-linecap="square" d="
						M-76.3,272.3H75"/>
					<path id="Line-5_1_" sketch:type="MSShapeGroup" fill="none" stroke="#9EA7B3" stroke-width="6" stroke-linecap="square" d="
						M-77.9,295.5H-20"/>
					<path id="Line-6_1_" sketch:type="MSShapeGroup" fill="none" stroke="#9EA7B3" stroke-width="6" stroke-linecap="square" d="
						M-0.7,295.5h57.9"/>
					<path id="Line-7_1_" sketch:type="MSShapeGroup" fill="none" stroke="#9EA7B3" stroke-width="6" stroke-linecap="square" d="
						M76.6,295.5h57.9"/>
					<g enable-background="new    ">
						<path fill="#323A45" d="M-112.3,265.2h0.9l4.2,9.4h-1.4l-1.2-2.8h-4l-1.2,2.8h-1.4L-112.3,265.2z M-110.3,270.6l-1.5-3.4
							l-1.4,3.4H-110.3z"/>
						<path fill="#323A45" d="M-106.2,274.5v-9.3h3c0.9,0,1.6,0.2,2.1,0.7c0.5,0.5,0.8,1.1,0.8,1.9c0,0.5-0.1,1-0.4,1.4
							c-0.3,0.4-0.6,0.7-1.1,0.9c-0.5,0.2-1.1,0.3-2,0.3h-1v4H-106.2z M-103.5,266.4h-1.4v2.9h1.5c0.5,0,1-0.1,1.3-0.4
							c0.3-0.3,0.4-0.6,0.4-1.1C-101.7,266.9-102.3,266.4-103.5,266.4z"/>
						<path fill="#323A45" d="M-99.2,274.5v-9.3h2.3c0.9,0,1.7,0.2,2.2,0.7s0.8,1.1,0.8,1.9c0,0.5-0.1,1-0.4,1.4
							c-0.3,0.4-0.7,0.7-1.2,0.9c0.3,0.2,0.6,0.5,0.9,0.8c0.3,0.3,0.7,0.9,1.2,1.8c0.3,0.5,0.6,0.9,0.8,1.2l0.5,0.7h-1.6l-0.4-0.6
							c0,0,0-0.1-0.1-0.1l-0.3-0.4l-0.4-0.7l-0.4-0.7c-0.3-0.4-0.5-0.7-0.8-0.9c-0.2-0.2-0.4-0.4-0.6-0.5s-0.5-0.1-0.9-0.1h-0.3v4.1
							H-99.2z M-97.4,266.4h-0.4v2.9h0.5c0.7,0,1.1-0.1,1.4-0.2c0.3-0.1,0.4-0.3,0.6-0.5c0.1-0.2,0.2-0.5,0.2-0.8
							c0-0.3-0.1-0.6-0.2-0.8c-0.2-0.2-0.4-0.4-0.7-0.5C-96.3,266.4-96.8,266.4-97.4,266.4z"/>
					</g>
					<g enable-background="new    ">
						<path fill="#FF6B42" d="M-110.1,273.8c1.5,0,2.8,0.8,3.8,2.4c1,1.6,1.5,3.6,1.5,6.1c0,2.5-0.5,4.6-1.5,6.1
							c-1,1.6-2.3,2.4-3.9,2.4c-1.6,0-2.9-0.8-3.9-2.3c-1-1.5-1.5-3.6-1.5-6.1c0-2.5,0.5-4.6,1.5-6.1
							C-113,274.6-111.7,273.8-110.1,273.8z M-110.1,276h-0.1c-0.9,0-1.6,0.6-2.2,1.7c-0.5,1.1-0.8,2.6-0.8,4.5c0,2,0.3,3.5,0.8,4.6
							c0.5,1.1,1.2,1.7,2.2,1.7c0.9,0,1.6-0.6,2.2-1.7s0.8-2.6,0.8-4.5c0-1.9-0.3-3.4-0.8-4.6S-109.2,276-110.1,276z"/>
						<path fill="#FF6B42" d="M-99.2,274h2.4v16.6h-2.4V274z"/>
					</g>
				</g>
			</g>
		</g>
	</g>
</g>
</svg>
