<?xml version="1.0" encoding="utf-8"?>
<svg version="1.1" xmlns="http://www.w3.org/2000/svg" xmlns:xlink="http://www.w3.org/1999/xlink" x="0px" y="0px"
	 viewBox="0 0 511.5 167.3" enable-background="new 0 0 511.5 167.3" xml:space="preserve">
<path fill="#B1B1B1" d="M511.5,144.7c0,12.5-10.1,22.6-22.6,22.6H22.6C10.1,167.3,0,157.2,0,144.7V22.6C0,10.1,10.1,0,22.6,0h466.3
	c12.5,0,22.6,10.1,22.6,22.6V144.7z"/>
<path fill="#FFFFFF" d="M88.3,28.6H46.7c-5,0-9,4-9,9V130c0,5,4,9,9,9h41.7c5,0,9-4,9-9V37.7C97.4,32.7,93.3,28.6,88.3,28.6z
	 M67.5,132.4c-3.3,0-6-2.7-6-6c0-3.3,2.7-6,6-6c3.3,0,6,2.7,6,6C73.5,129.7,70.8,132.4,67.5,132.4z M90.3,117.4H44.7V49.3h45.5
	V117.4z"/>
<g>
	<path fill="#FFFFFF" d="M134.3,46.2l-3.8,9.4h-4.8L138,25.7h5.6L156,55.6h-5l-3.9-9.4H134.3z M146.2,43.2l-3.6-8.6
		c-0.8-2-1.3-3.7-1.8-5.5h-0.2c-0.5,1.7-1.1,3.6-1.8,5.4l-3.5,8.7H146.2z"/>
	<path fill="#FFFFFF" d="M160.8,34.1l5.1,12c0.9,2,1.6,3.8,2.1,5.5h0.2c0.6-1.8,1.3-3.6,2.2-5.5l5.1-12h4.9l-10.2,21.5h-4.5
		l-9.9-21.5H160.8z"/>
	<path fill="#FFFFFF" d="M202.2,50.5c0,1.9,0.1,3.7,0.4,5.1h-4.2l-0.4-2.7h-0.2c-1.4,1.7-4.2,3.2-8,3.2c-5.3,0-7.9-3.1-7.9-6.2
		c0-5.2,5.6-8,15.6-8v-0.4c0-1.8-0.6-5-5.9-5c-2.5,0-5,0.6-6.8,1.6l-1.1-2.6c2.2-1.1,5.3-1.9,8.6-1.9c8,0,9.9,4.5,9.9,8.8V50.5z
		 M197.5,44.6c-5.2-0.1-11,0.7-11,4.8c0,2.6,2,3.7,4.4,3.7c3.4,0,5.6-1.8,6.4-3.6c0.2-0.4,0.2-0.8,0.2-1.2V44.6z"/>
	<path fill="#FFFFFF" d="M211.7,30.2c-1.8,0-3-1.2-3-2.5c0-1.4,1.2-2.5,3.1-2.5c1.8,0,3,1.1,3,2.5C214.8,29,213.6,30.2,211.7,30.2
		L211.7,30.2z M209.5,55.6V34.1h4.7v21.5H209.5z"/>
	<path fill="#FFFFFF" d="M221.8,24.1h4.7v31.5h-4.7V24.1z"/>
	<path fill="#FFFFFF" d="M252.4,50.5c0,1.9,0.1,3.7,0.4,5.1h-4.2l-0.4-2.7h-0.2c-1.4,1.7-4.2,3.2-8,3.2c-5.3,0-7.9-3.1-7.9-6.2
		c0-5.2,5.6-8,15.6-8v-0.4c0-1.8-0.6-5-5.9-5c-2.5,0-5,0.6-6.8,1.6l-1.1-2.6c2.1-1.1,5.3-1.9,8.6-1.9c8,0,9.9,4.5,9.9,8.8V50.5z
		 M247.8,44.6c-5.2-0.1-11,0.7-11,4.8c0,2.6,2,3.7,4.4,3.7c3.4,0,5.6-1.8,6.4-3.6c0.2-0.4,0.2-0.8,0.2-1.2V44.6z"/>
	<path fill="#FFFFFF" d="M259.7,24.1h4.7v13.4h0.1c1.7-2.4,4.7-3.9,8.9-3.9c6.4,0,11,4.4,11,10.9c0,7.7-5.9,11.5-11.7,11.5
		c-3.8,0-6.7-1.2-8.7-4h-0.1l-0.3,3.6h-4.1c0.2-1.5,0.2-3.6,0.2-5.5V24.1z M264.4,47c0,0.5,0.1,1,0.2,1.4c0.9,2.7,3.7,4.6,7.1,4.6
		c5,0,7.9-3.3,7.9-8.3c0-4.4-2.7-8-7.7-8c-3.2,0-6.2,1.9-7.1,4.8c-0.2,0.5-0.3,1-0.3,1.6V47z"/>
	<path fill="#FFFFFF" d="M290,24.1h4.7v31.5H290V24.1z"/>
	<path fill="#FFFFFF" d="M304.9,45.5c0.1,5.3,4.1,7.5,8.9,7.5c3.4,0,5.5-0.5,7.2-1.1l0.9,2.8c-1.7,0.6-4.6,1.4-8.7,1.4
		c-7.9,0-12.8-4.4-12.8-10.8c0-6.5,4.7-11.6,12.3-11.6c8.5,0,10.7,6.2,10.7,10.1c0,0.8-0.1,1.4-0.2,1.9L304.9,45.5z M318.8,42.7
		c0.1-2.4-1.2-6.4-6.5-6.4c-4.8,0-6.9,3.6-7.2,6.4H318.8z"/>
	<path fill="#FFFFFF" d="M350.6,56.1c-7,0-12.5-4.3-12.5-11.1c0-7.2,5.8-11.4,12.9-11.4c7.5,0,12.5,4.5,12.5,11
		C363.5,52.6,356.8,56.1,350.6,56.1L350.6,56.1z M350.8,53.2c4.5,0,7.9-3.5,7.9-8.4c0-3.6-2.2-8.2-7.8-8.2c-5.5,0-7.9,4.3-7.9,8.3
		C342.9,49.6,346.1,53.2,350.8,53.2L350.8,53.2z"/>
	<path fill="#FFFFFF" d="M369.2,39.9c0-2.3-0.1-4-0.2-5.8h4.2l0.3,3.5h0.1c1.3-2,4.3-4,8.6-4c3.6,0,9.2,1.8,9.2,9.1v12.8h-4.7V43.2
		c0-3.5-1.6-6.4-6-6.4c-3.1,0-5.5,1.8-6.3,4c-0.2,0.5-0.3,1.2-0.3,1.8v13h-4.7V39.9z"/>
	<path fill="#FFFFFF" d="M415.6,29v5.1h6.8v3h-6.8v11.6c0,2.7,0.9,4.2,3.5,4.2c1.3,0,2-0.1,2.7-0.3l0.2,3c-0.9,0.3-2.4,0.5-4.2,0.5
		c-2.2,0-4-0.6-5.1-1.6c-1.3-1.2-1.8-3.1-1.8-5.6V37.1h-4v-3h4v-3.9L415.6,29z"/>
	<path fill="#FFFFFF" d="M427.4,24.1h4.7v13.4h0.1c0.8-1.1,1.9-2.1,3.4-2.8c1.4-0.7,3.1-1.1,4.8-1.1c3.5,0,9.1,1.8,9.1,9.2v12.8
		h-4.7V43.3c0-3.5-1.6-6.4-6-6.4c-3.1,0-5.4,1.8-6.3,3.9c-0.3,0.5-0.3,1.1-0.3,1.9v13h-4.7V24.1z"/>
	<path fill="#FFFFFF" d="M459.6,45.5c0.1,5.3,4.1,7.5,8.9,7.5c3.4,0,5.5-0.5,7.2-1.1l0.9,2.8c-1.7,0.6-4.6,1.4-8.7,1.4
		c-7.9,0-12.8-4.4-12.8-10.8c0-6.5,4.7-11.6,12.2-11.6c8.5,0,10.7,6.2,10.7,10.1c0,0.8-0.1,1.4-0.2,1.9L459.6,45.5z M473.4,42.7
		c0-2.4-1.2-6.4-6.5-6.4c-4.8,0-6.9,3.6-7.3,6.4H473.4z"/>
</g>
<g>
	<path fill="#FFFFFF" d="M146.5,69.3L125,132.4h9.8l6.4-19.4H162l6.6,19.4h10.1l-21.5-63.1H146.5z M151.6,79.6
		c0.7,2.8,1.5,5.7,2.5,8.9l5.8,16.7h-16.5l5.7-16.9C150,85.7,150.8,82.7,151.6,79.6z"/>
	<path fill="#FFFFFF" d="M206.5,85.6c-6.5,0-11.7,2.5-15.2,7.3l-0.4-6.3h-8.7l0.1,0.8c0.3,3.9,0.4,8.2,0.4,14.4v48.7h9.6v-22.7
		c3,3.5,7.7,5.6,13.1,5.6c5.6,0,10.7-2.2,14.5-6.2c4.2-4.4,6.4-10.8,6.4-18.4c0-6.7-1.9-12.5-5.6-16.8C217,87.9,212,85.6,206.5,85.6
		z M204.1,93.5c8.5,0,12.3,7.9,12.3,15.7c0,10.1-4.9,16.3-12.7,16.3c-5.3,0-10-3.6-11.3-8.9c-0.2-0.8-0.3-1.9-0.3-3.1v-7.7
		c0-0.7,0.2-1.5,0.3-2.4c0-0.3,0.1-0.5,0.1-0.8C194,97.3,198.7,93.5,204.1,93.5z"/>
	<path fill="#FFFFFF" d="M255.7,85.6c-6.5,0-11.7,2.5-15.2,7.3l-0.4-6.3h-8.7l0,0.8c0.3,3.9,0.4,8.2,0.4,14.4v48.7h9.6v-22.7
		c3,3.5,7.7,5.6,13.1,5.6c5.6,0,10.7-2.2,14.5-6.2c4.2-4.4,6.4-10.8,6.4-18.4c0-6.7-1.9-12.5-5.6-16.8
		C266.2,87.9,261.2,85.6,255.7,85.6z M253.3,93.5c8.5,0,12.3,7.9,12.3,15.7c0,10.1-4.9,16.3-12.7,16.3c-5.3,0-10-3.6-11.3-8.9
		c-0.2-0.8-0.3-1.9-0.3-3.1v-7.7c0-0.7,0.2-1.5,0.3-2.4c0-0.3,0.1-0.5,0.1-0.8C243.2,97.3,247.9,93.5,253.3,93.5z"/>
	<path fill="#FFFFFF" d="M317.3,96c-8.9-3.5-11.8-6.2-11.8-11.2c0-4.2,3.4-8.5,10.9-8.5c6.2,0,10.2,2.2,11.2,2.8l0.8,0.5l2.7-8
		l-0.5-0.3c-1.6-0.9-6.2-3.1-13.9-3.1c-12.2,0-20.7,7.2-20.7,17.5c0,8.3,5.3,14.1,16.8,18.3c8.1,3,11.1,6.1,11.1,11.5
		c0,6-4.7,9.8-12.1,9.8c-4.9,0-9.9-1.4-13.8-3.9l-0.8-0.5l-2.6,8.2l0.5,0.3c3.6,2.4,10.4,4.2,16.1,4.2c16.4,0,22.2-10,22.2-18.6
		C333.4,106,328.8,100.5,317.3,96z"/>
	<path fill="#FFFFFF" d="M350.6,75.7l-9.4,2.9v7.9h-6.9v7.6h6.9v23.4c0,5.7,1.1,9.6,3.3,12.1c2.1,2.3,5.4,3.6,9.2,3.6
		c3.6,0,6.2-0.7,7.4-1.1l0.5-0.2l-0.5-7.6l-0.9,0.3c-1.2,0.4-2.4,0.5-4.4,0.5c-3.7,0-5.3-2.3-5.3-7.8V94.3h11.5v-7.6h-11.5V75.7z"/>
	<path fill="#FFFFFF" d="M385.8,85.6c-13.4,0-22.7,10-22.7,24.3c0,13.9,9,23.5,22,23.5h0.1c10.9,0,22.7-7.6,22.7-24.3
		c0-6.8-2.1-12.6-6.1-16.9C397.8,87.9,392.3,85.6,385.8,85.6z M385.5,93.2c8.6,0,12.5,8.4,12.5,16.2c0,9.6-5.3,16.5-12.7,16.5h-0.1
		c-7.2,0-12.5-6.8-12.5-16.3C372.8,101.4,376.7,93.2,385.5,93.2z"/>
	<path fill="#FFFFFF" d="M437.1,86.1l-0.6-0.1c-0.8-0.2-1.5-0.3-2.4-0.3c-5,0-9.5,2.9-12,7.7l-0.3-6.7h-8.6l0.1,0.8
		c0.3,3.8,0.4,8,0.4,13.8l-0.1,31.2h9.6V108c0-1.3,0.1-2.6,0.3-3.7c1.1-5.9,5-9.6,10.1-9.6c1,0,1.7,0.1,2.6,0.2l1,0.1V86.1z"/>
	<path fill="#FFFFFF" d="M458.6,85.5c-12.7,0-21.6,10.2-21.6,24.7c0,14,8.8,23.1,22.5,23.1c7.2,0,12.2-1.6,15.1-2.9l0.6-0.3
		l-1.8-7.1l-0.8,0.3c-2.6,1.1-6.1,2.1-12,2.1c-4.2,0-13.7-1.4-14.3-13.9l30.8,0.1l0.1-0.6c0.2-1,0.3-2.3,0.3-4
		C477.6,97.2,472.6,85.5,458.6,85.5z M458,92.8c2.9,0,5.3,0.9,7,2.7c2.7,2.8,3.2,6.9,3.3,8.9h-21.8C447.4,98.8,450.8,92.8,458,92.8z
		"/>
</g>
<g>
</g>
<g>
</g>
<g>
</g>
<g>
</g>
<g>
</g>
<g>
</g>
<g>
</g>
<g>
</g>
<g>
</g>
<g>
</g>
<g>
</g>
<g>
</g>
<g>
</g>
<g>
</g>
<g>
</g>
</svg>
