<?xml version="1.0" encoding="utf-8"?>
<!-- Generator: Adobe Illustrator 17.0.2, SVG Export Plug-In . SVG Version: 6.00 Build 0)  -->
<!DOCTYPE svg PUBLIC "-//W3C//DTD SVG 1.1//EN" "http://www.w3.org/Graphics/SVG/1.1/DTD/svg11.dtd">
<svg version="1.1" id="Calque_1" xmlns="http://www.w3.org/2000/svg" xmlns:xlink="http://www.w3.org/1999/xlink" x="0px" y="0px"
	 width="512px" height="512px" viewBox="0 0 512 512" enable-background="new 0 0 512 512" xml:space="preserve">
<g>
	<g>
		<g>
			<path fill="#DDB843" d="M219.71,469.246c0,20.027,16.227,36.254,36.278,36.254l0,0c20.025,0,36.23-16.227,36.23-36.254l0,0
				c0-20.025-16.204-36.252-36.23-36.252l0,0C235.939,432.994,219.71,449.221,219.71,469.246L219.71,469.246z"/>
			<path opacity="0.17" fill="#18262D" enable-background="new    " d="M219.71,469.246c0,19.904,16.055,36.058,35.909,36.254
				c-15.321-25.028,13.996-54.367,13.996-54.367c-13.726-6.619-24.881-10.344-33.999-11.889
				C226.036,445.789,219.71,456.769,219.71,469.246z"/>
			<path fill="#2D343E" d="M409.58,328.892c0.049-1.226,0.099-2.475,0.099-3.726V198.734c0-84.172-68.264-152.44-152.464-152.44
				c-84.198,0-152.462,68.266-152.462,152.44v126.431c0,1.249,0.074,2.5,0.123,3.726H409.58z"/>
			<path fill="#323A45" d="M50.555,405.125c0,30.786,24.976,55.787,55.787,55.787h299.264c30.837,0,55.839-25.002,55.839-55.787
				v-22.307c0-30.811-25.002-55.787-55.839-55.787H106.343c-30.811,0-55.787,24.976-55.787,55.787V405.125z"/>
			<path fill="#1D2735" d="M257.213,14.652c6.154,0,11.155,5.001,11.155,11.178c0,6.153-5.001,11.153-11.155,11.153
				c-6.153,0-11.176-5.001-11.176-11.153C246.037,19.652,251.06,14.652,257.213,14.652 M257.213,3.5
				c-12.329,0-22.305,10-22.305,22.329c0,12.305,9.976,22.307,22.305,22.307c12.329,0,22.307-10.001,22.307-22.307
				C279.52,13.5,269.543,3.5,257.213,3.5L257.213,3.5z"/>
			<rect x="104.874" y="305.655" fill="#1D2735" width="304.559" height="21.276"/>
			<path fill="#FFFFFF" d="M346.658,205.722c-10.052,0-18.213-8.138-18.213-18.188c0-43.974-36.914-59.858-37.307-60.005
				c-9.267-3.873-13.653-14.512-9.806-23.801c3.873-9.265,14.512-13.629,23.801-9.78c2.427,1.005,59.686,25.639,59.686,93.586
				C364.821,197.582,356.682,205.722,346.658,205.722z"/>
		</g>
		<path opacity="0.9" fill="#1D2735" enable-background="new    " d="M106.147,327.054l-1.471,0.71
			c-0.024-0.637,0.074-1.961,0.074-2.597l0.049-125.648c0-34.439,11.153-67.187,31.106-92.949
			c13.261-17.108,30.273-32.038,49.564-42.356c17.109-9.168,36.031-14.51,55.69-16.987
			c-36.375,15.664-114.396,56.378-114.396,130.157c0,98.537,0,149.668,0,149.668s-74.368,59.491,2.796,131.997
			c0.662,0.637,1.275,1.226,1.886,1.862h-25.05c-30.811,0-55.812-25.002-55.812-55.788v-22.307
			C50.579,352.08,75.458,327.201,106.147,327.054z"/>
	</g>
</g>
</svg>
