<?xml version="1.0" encoding="utf-8"?>
<!-- Generator: Adobe Illustrator 17.0.2, SVG Export Plug-In . SVG Version: 6.00 Build 0)  -->
<!DOCTYPE svg PUBLIC "-//W3C//DTD SVG 1.1//EN" "http://www.w3.org/Graphics/SVG/1.1/DTD/svg11.dtd">
<svg version="1.1" id="Layer_1" xmlns="http://www.w3.org/2000/svg" xmlns:xlink="http://www.w3.org/1999/xlink" x="0px" y="0px"
	 width="200px" height="200px" viewBox="0 0 200 200" enable-background="new 0 0 200 200" xml:space="preserve">
<g>
	<g>
		<path fill="#5E6D81" d="M18.841,158.256c-0.554,0-1.105,0.209-1.527,0.629c-0.425,0.431-0.631,0.978-0.631,1.53v1.637h23.109
			v-1.637c0-0.552-0.212-1.101-0.637-1.53c-0.417-0.42-0.973-0.629-1.519-0.629H18.841z"/>
		<path fill="#5E6D81" d="M47.051,131.572c-0.548,0-1.102,0.209-1.522,0.629c-0.422,0.425-0.63,0.978-0.63,1.53v28.32h23.102v-28.32
			c0-0.552-0.206-1.106-0.63-1.53c-0.425-0.42-0.973-0.629-1.527-0.629H47.051z"/>
		<path fill="#5E6D81" d="M75.267,120.602c-0.553,0-1.103,0.206-1.527,0.627c-0.422,0.425-0.63,0.977-0.63,1.53v39.295h23.107
			v-39.295c0-0.553-0.21-1.105-0.631-1.53c-0.414-0.42-0.973-0.627-1.524-0.627H75.267z"/>
		<path fill="#5E6D81" d="M103.484,125.142c-0.554,0-1.106,0.204-1.524,0.629c-0.425,0.425-0.634,0.973-0.634,1.53v34.752h23.109
			v-34.752c0-0.557-0.206-1.106-0.637-1.53c-0.417-0.425-0.967-0.629-1.519-0.629C122.278,125.142,103.484,125.142,103.484,125.142z
			"/>
		<path fill="#5E6D81" d="M131.697,107.509c-0.557,0-1.109,0.212-1.53,0.63c-0.42,0.425-0.634,0.974-0.634,1.527v52.388h23.117
			v-52.389c0-0.552-0.215-1.102-0.64-1.527c-0.415-0.417-0.967-0.63-1.522-0.63h-18.792V107.509z"/>
		<path fill="#5E6D81" d="M159.91,85.499c-0.553,0-1.103,0.209-1.527,0.631c-0.417,0.42-0.629,0.974-0.629,1.524v74.396h23.106
			V87.657c0-0.55-0.206-1.106-0.633-1.524c-0.42-0.422-0.974-0.631-1.523-0.631H159.91V85.499z"/>
		<path fill="#00B284" d="M198.212,44.314c0.292-0.494,0.268-1.134-0.103-1.614c-0.373-0.476-0.992-0.655-1.539-0.494l-23.085,6.765
			c-0.439,0.131-0.813,0.465-0.967,0.938c-0.153,0.473-0.045,0.964,0.234,1.325l2.801,3.592l-69.922,54.542l-38.75-16.42
			L2.259,154.306c-0.399,0.384-0.655,0.911-0.673,1.509c-0.007,0.594,0.212,1.142,0.597,1.546l2.973,3.124
			c0.381,0.399,0.914,0.66,1.506,0.675c0.596,0.011,1.143-0.215,1.542-0.6l60.513-57.459l38.219,16.189l73.923-57.664l2.801,3.587
			c0.281,0.358,0.731,0.583,1.223,0.55c0.495-0.033,0.914-0.307,1.146-0.709L198.212,44.314z"/>
	</g>
</g>
</svg>
