<?xml version="1.0" encoding="utf-8"?>
<!-- Generator: Adobe Illustrator 17.0.2, SVG Export Plug-In . SVG Version: 6.00 Build 0)  -->
<!DOCTYPE svg PUBLIC "-//W3C//DTD SVG 1.1//EN" "http://www.w3.org/Graphics/SVG/1.1/DTD/svg11.dtd">
<svg version="1.1" id="Layer_1" xmlns="http://www.w3.org/2000/svg" xmlns:xlink="http://www.w3.org/1999/xlink" x="0px" y="0px"
	 width="252px" height="252px" viewBox="0 0 252 252" enable-background="new 0 0 252 252" xml:space="preserve">
<g>
	<g>
		<path fill="#9EA7B3" d="M126.007,1.015C56.959,1.015,1.015,56.959,1.015,126.007s55.944,124.992,124.992,124.992
			s124.992-55.944,124.992-124.992S194.954,1.015,126.007,1.015z M171.972,175.097l-3.629,3.629
			c-3.024,3.024-8.165,3.226-11.29,0.302l-47.174-41.227c-3.226-2.822-5.645-8.77-5.443-13.003l4.334-74.29
			c0.202-4.334,3.931-7.762,8.266-7.762h5.141c4.334,0,7.963,3.528,8.165,7.762l3.528,61.79c0.202,4.334,2.722,10.382,5.544,13.608
			l32.76,37.8C175.097,166.932,174.996,172.073,171.972,175.097z"/>
	</g>
</g>
</svg>
