<?xml version="1.0" encoding="utf-8"?>
<!-- Generator: Adobe Illustrator 17.0.2, SVG Export Plug-In . SVG Version: 6.00 Build 0)  -->
<!DOCTYPE svg PUBLIC "-//W3C//DTD SVG 1.1//EN" "http://www.w3.org/Graphics/SVG/1.1/DTD/svg11.dtd">
<svg version="1.1" id="Layer_1" xmlns="http://www.w3.org/2000/svg" xmlns:xlink="http://www.w3.org/1999/xlink" x="0px" y="0px"
	 width="48px" height="48px" viewBox="0 0 48 48" enable-background="new 0 0 48 48" xml:space="preserve">
<g>
	<polyline fill="none" stroke="#00B284" stroke-width="2" stroke-linejoin="round" stroke-miterlimit="10" points="26.451,21.516 
		18.005,26.154 1,15.539 30.649,1 47,10.231 38.33,14.992 	"/>
	<polyline fill="none" stroke="#00B284" stroke-width="2" stroke-linejoin="round" stroke-miterlimit="10" points="26.226,26.718 
		18.005,31.231 1,20.617 5.479,18.42 	"/>
	<polyline fill="none" stroke="#00B284" stroke-width="2" stroke-linejoin="round" stroke-miterlimit="10" points="42.288,12.647 
		47,15.308 38.352,20.058 	"/>
	<polyline fill="none" stroke="#00B284" stroke-width="2" stroke-linejoin="round" stroke-miterlimit="10" points="26.373,31.892 
		18.005,36.488 1,25.872 5.479,23.675 	"/>
	<polyline fill="none" stroke="#00B284" stroke-width="2" stroke-linejoin="round" stroke-miterlimit="10" points="42.288,17.903 
		47,20.564 38.372,25.303 	"/>
	<polyline fill="none" stroke="#00B284" stroke-width="2" stroke-linejoin="round" stroke-miterlimit="10" points="26.179,37.255 
		18.005,41.743 1,31.128 5.479,28.932 	"/>
	<polyline fill="none" stroke="#00B284" stroke-width="2" stroke-linejoin="round" stroke-miterlimit="10" points="42.288,23.159 
		47,25.819 38.71,30.373 	"/>
	<polyline fill="none" stroke="#00B284" stroke-width="2" stroke-linejoin="round" stroke-miterlimit="10" points="42.288,28.415 
		47,31.075 18.005,47 1,36.384 5.479,34.188 	"/>
	<polyline fill="none" stroke="#00B284" stroke-width="2" stroke-linejoin="round" stroke-miterlimit="10" points="38.366,35.817 
		38.366,14.822 22.863,4.774 	"/>
	<polyline fill="none" stroke="#00B284" stroke-width="2" stroke-linejoin="round" stroke-miterlimit="10" points="26.36,42.349 
		26.36,21.353 10.352,10.954 	"/>
	<path fill="none" stroke="#00B284" stroke-miterlimit="10" d="M29.136,15.05c1.14-1.063,0.826-2.178-0.297-2.844
		c-1.266-0.751-2.702-0.726-4.682-0.16c-1.679,0.473-2.547,0.584-3.286,0.146c-0.568-0.337-0.833-0.983,0.201-1.672
		c0.859-0.571,1.724-0.752,2.176-0.838l-0.604-0.78c-0.63,0.116-1.409,0.347-2.242,0.866L19.023,8.95L18.19,9.502l1.436,0.852
		c-1.022,0.948-0.918,2.007,0.262,2.706c1.236,0.735,2.735,0.56,4.675-0.013c1.42-0.408,2.426-0.469,3.208-0.006
		c0.811,0.481,0.749,1.255-0.204,1.89c-0.753,0.5-1.721,0.804-2.546,0.923l0.63,0.779c0.826-0.102,1.889-0.485,2.682-0.995
		l1.437,0.852l0.845-0.562L29.136,15.05z"/>
</g>
</svg>
