<?xml version="1.0" encoding="utf-8"?>

<svg version="1.1" xmlns:sketch="http://www.bohemiancoding.com/sketch/ns"
	 xmlns="http://www.w3.org/2000/svg" xmlns:xlink="http://www.w3.org/1999/xlink" x="0px" y="0px" viewBox="-222 372 167 50"
	 enable-background="new -222 372 167 50" xml:space="preserve">
<title>Dutch</title>
<desc>Created with Sketch.</desc>
<g id="Page-1" sketch:type="MSPage">
	<g id="About_Desktop" sketch:type="MSArtboardGroup">
		<g id="Colors" sketch:type="MSShapeGroup">
			<path id="Rectangle-23" fill="#323A45" d="M-220,372h46.1c1.1,0,2,0.9,2,2v46c0,1.1-0.9,2-2,2H-220c-1.1,0-2-0.9-2-2v-46
				C-222,372.9-221.1,372-220,372z"/>
			<path id="Rectangle-28" fill="#FF6B42" d="M-161.6,372h46.1c1.1,0,2,0.9,2,2v46c0,1.1-0.9,2-2,2h-46.1c-1.1,0-2-0.9-2-2v-46
				C-163.6,372.9-162.7,372-161.6,372z"/>
			<path id="Rectangle-29" fill="#F4F5F7" d="M-103.1,372H-57c1.1,0,2,0.9,2,2v46c0,1.1-0.9,2-2,2h-46.1c-1.1,0-2-0.9-2-2v-46
				C-105.1,372.9-104.2,372-103.1,372z"/>
		</g>
	</g>
</g>
</svg>
