<?xml version="1.0" encoding="utf-8"?>
<!-- Generator: Adobe Illustrator 17.0.2, SVG Export Plug-In . SVG Version: 6.00 Build 0)  -->
<!DOCTYPE svg PUBLIC "-//W3C//DTD SVG 1.1//EN" "http://www.w3.org/Graphics/SVG/1.1/DTD/svg11.dtd">
<svg version="1.1" id="Layer_1" xmlns="http://www.w3.org/2000/svg" xmlns:xlink="http://www.w3.org/1999/xlink" x="0px" y="0px"
	 width="250px" height="250px" viewBox="0 0 250 250" enable-background="new 0 0 250 250" xml:space="preserve">
<g>
	<path fill="#9EA7B3" d="M217.27,200.608c0,14.693-11.957,26.752-26.752,26.752H51.388c-14.795,0-26.752-11.957-26.752-26.752
		V61.478c0-14.693,11.957-26.752,26.752-26.752h109.237c0.203-0.203,0.304-0.507,0.608-0.709l16.011-16.011H51.388
		c-24.016,0-43.472,19.456-43.472,43.472v139.13c0,23.915,19.456,43.472,43.472,43.472h139.13c23.915,0,43.472-19.456,43.472-43.472
		V75.563l-16.72,16.72V200.608z"/>
	<path fill="#9EA7B3" d="M248.278,34.016L218.385,4.123c-2.331-2.331-6.08-2.331-8.411,0l-4.155,4.155l-9.525,9.525l-0.507,0.507
		l-121.6,121.6c-0.507,0.608-1.013,1.216-1.317,1.925l-20.267,50.16c-0.912,2.229-0.405,4.763,1.317,6.384
		c1.115,1.115,2.635,1.723,4.155,1.723c0.709,0,1.52-0.101,2.229-0.405l31.92-12.869l18.341-7.397
		c0.709-0.304,1.419-0.709,1.925-1.317l135.28-135.28l0.507-0.507c1.115-1.115,1.723-2.635,1.723-4.155
		C250.001,36.651,249.393,35.131,248.278,34.016z"/>
</g>
</svg>
