<?xml version="1.0" encoding="utf-8"?>
<!-- Generator: Adobe Illustrator 17.0.2, SVG Export Plug-In . SVG Version: 6.00 Build 0)  -->
<!DOCTYPE svg PUBLIC "-//W3C//DTD SVG 1.1//EN" "http://www.w3.org/Graphics/SVG/1.1/DTD/svg11.dtd">
<svg version="1.1" id="Layer_1" xmlns:sketch="http://www.bohemiancoding.com/sketch/ns"
	 xmlns="http://www.w3.org/2000/svg" xmlns:xlink="http://www.w3.org/1999/xlink" x="0px" y="0px" width="252px" height="252px"
	 viewBox="0 0 252 252" enable-background="new 0 0 252 252" xml:space="preserve">
<title></title>
<path fill="#2E97E9" d="M126,1.21C57.053,1.21,1.21,57.053,1.21,126S57.053,250.79,126,250.79S250.79,194.947,250.79,126
	S194.947,1.21,126,1.21z M197.971,78.019L126,140.414L54.029,78.019H197.971z M49.19,82.858l52.819,45.562L49.19,173.981
	C49.19,173.981,49.19,82.858,49.19,82.858z M54.029,178.819l52.517-45.259L126,149.587l19.152-16.027l52.819,45.259H54.029z
	 M202.81,173.981l-52.819-45.562l52.819-45.562L202.81,173.981L202.81,173.981z"/>
</svg>
