<?xml version="1.0" encoding="utf-8"?>
<!-- Generator: Adobe Illustrator 17.0.2, SVG Export Plug-In . SVG Version: 6.00 Build 0)  -->
<!DOCTYPE svg PUBLIC "-//W3C//DTD SVG 1.1//EN" "http://www.w3.org/Graphics/SVG/1.1/DTD/svg11.dtd">
<svg version="1.1" id="Layer_1" xmlns="http://www.w3.org/2000/svg" xmlns:xlink="http://www.w3.org/1999/xlink" x="0px" y="0px"
	 width="500px" height="500px" viewBox="0 0 500 500" enable-background="new 0 0 500 500" xml:space="preserve">
<g>
	<path fill="#FF6B42" d="M249.916,1.303c-137.878,0-249.65,111.336-249.65,248.674s111.772,248.674,249.651,248.674
		s249.651-111.335,249.651-248.674S387.794,1.303,249.916,1.303z M94.382,344.768c-40.206,7.155-40.455-165.022-20.787-164.525
		c19.673,0.511,93.9,23.154,125.602,46.314c-1.218,44.962,8.539,61.288,8.539,61.288
		C207.992,287.583,127.676,339.715,94.382,344.768z M281.719,285.099c-14.337,5.549-47.91,5.827-61.125-0.145
		c-6.349-8.208-9.632-27.878-8.899-58.704c0,0,35.39-16.742,77.032-0.205C291.726,249.293,287.21,274.732,281.719,285.099z
		 M406.75,344.913c-33.265-5.053-113.537-57.14-113.273-56.863c0,0,9.749-16.326,8.531-61.23
		c31.695-23.124,105.87-45.759,125.529-46.263C447.19,180.06,446.956,352.04,406.75,344.913z"/>
</g>
</svg>
