<?xml version="1.0" encoding="utf-8"?>
<!-- Generator: Adobe Illustrator 17.0.2, SVG Export Plug-In . SVG Version: 6.00 Build 0)  -->
<!DOCTYPE svg PUBLIC "-//W3C//DTD SVG 1.1//EN" "http://www.w3.org/Graphics/SVG/1.1/DTD/svg11.dtd">
<svg version="1.1" id="Layer_1" xmlns="http://www.w3.org/2000/svg" xmlns:xlink="http://www.w3.org/1999/xlink" x="0px" y="0px"
	 width="512px" height="512px" viewBox="0 0 512 512" enable-background="new 0 0 512 512" xml:space="preserve">
<g>
	<path fill="#4A525F" d="M326.949,76.888v136.815c0,24.373-20.278,44.123-45.279,44.123H95.892l-58.738,56.005v-57.043
		c-20.303-4.36-35.482-21.987-35.482-43.085V76.888c0-24.363,20.269-44.123,45.28-44.123h234.717
		C306.671,32.766,326.949,52.525,326.949,76.888z"/>
	<polygon fill="#F56F6C" points="469.796,483.007 393.691,408.547 469.796,347.292 	"/>
	<path fill="#F56F6C" d="M141.47,366.595c0,28.333,22.967,51.301,51.3,51.301h265.927c28.333,0,51.301-22.968,51.301-51.301V207.52
		c0-28.333-22.968-51.301-51.301-51.301H192.77c-28.333,0-51.3,22.968-51.3,51.301V366.595z"/>
	<circle fill="#FFFFFF" cx="330.496" cy="285.07" r="31.223"/>
	<circle fill="#FFFFFF" cx="411.191" cy="285.07" r="31.223"/>
	<circle fill="#FFFFFF" cx="249.691" cy="285.07" r="31.223"/>
</g>
</svg>
