<?xml version="1.0" encoding="utf-8"?>
<!-- Generator: Adobe Illustrator 17.0.2, SVG Export Plug-In . SVG Version: 6.00 Build 0)  -->
<!DOCTYPE svg PUBLIC "-//W3C//DTD SVG 1.1//EN" "http://www.w3.org/Graphics/SVG/1.1/DTD/svg11.dtd">
<svg version="1.1" id="Layer_1" xmlns="http://www.w3.org/2000/svg" xmlns:xlink="http://www.w3.org/1999/xlink" x="0px" y="0px"
	 width="252px" height="252px" viewBox="0 0 252 252" enable-background="new 0 0 252 252" xml:space="preserve">
<g>
	<g>
		<path fill="#00B284" d="M126.788,15.575c29.706,0,57.634,11.568,78.639,32.573S238,97.082,238,126.788
			s-11.568,57.634-32.573,78.639S156.493,238,126.788,238s-57.634-11.568-78.639-32.573s-32.573-48.933-32.573-78.639
			s11.568-57.634,32.573-78.639S97.082,15.575,126.788,15.575 M126.788,1.575c-69.153,0-125.213,56.06-125.213,125.212
			S57.635,252,126.788,252S252,195.94,252,126.788S195.94,1.575,126.788,1.575L126.788,1.575z"/>
	</g>
	<path fill="#00B284" d="M178.073,147.558c0-7.481-1.969-13.978-5.709-19.392c-3.741-5.414-8.564-9.352-14.273-11.616
		c-6.103-2.363-16.537-5.217-30.909-8.466c-9.253-2.067-12.009-3.741-13.387-5.02c-2.067-2.067-3.15-4.627-3.15-7.481
		c0-4.331,2.067-11.517,15.947-11.517c7.088,0,12.895,2.067,17.227,6.005c1.477,1.378,2.658,2.953,3.741,4.725l0,0l0.197,0.394
		c0.492,0.886,1.378,1.378,2.461,1.378h22.247c1.575,0,2.855-1.28,2.855-2.855c0-0.492-0.394-1.87-0.788-3.052
		c-5.906-15.455-17.522-24.412-35.536-27.366V50.498c0-2.362-1.969-4.331-4.331-4.331h-17.522c-2.362,0-4.331,1.969-4.331,4.331
		v13.289c-10.73,2.166-18.9,6.497-24.216,12.797c-6.005,7.383-8.958,15.356-8.958,24.609c0,8.367,2.658,15.455,8.17,21.853
		c5.414,6.398,18.998,11.812,40.458,16.242c6.103,1.28,10.434,2.756,13.092,4.627c3.15,2.166,4.823,5.414,4.823,9.253
		c0,5.217-3.15,11.32-17.817,11.32c-5.02,0-9.253-0.788-12.895-2.363c-5.119-2.166-9.056-5.906-11.616-11.222l-0.197-0.295
		l-0.098-0.197c-0.492-0.886-1.477-1.477-2.461-1.477H76.486c-1.575,0-2.855,1.28-2.855,2.756c0,0.394,0.197,1.28,0.197,1.378
		c5.906,19.195,18.703,30.122,39.08,33.469v13.584c0,2.363,1.969,4.331,4.331,4.331h17.423c2.363,0,4.331-1.969,4.331-4.331v-13.486
		c11.616-1.87,21.066-6.103,27.858-12.6C174.333,166.852,178.073,158.189,178.073,147.558z"/>
</g>
</svg>
