<?xml version="1.0" encoding="utf-8"?>
<!-- Generator: Adobe Illustrator 17.0.2, SVG Export Plug-In . SVG Version: 6.00 Build 0)  -->
<!DOCTYPE svg PUBLIC "-//W3C//DTD SVG 1.1//EN" "http://www.w3.org/Graphics/SVG/1.1/DTD/svg11.dtd">
<svg version="1.1" id="Layer_1" xmlns="http://www.w3.org/2000/svg" xmlns:xlink="http://www.w3.org/1999/xlink" x="0px" y="0px"
	 width="128px" height="128px" viewBox="0 0 128 128" enable-background="new 0 0 128 128" xml:space="preserve">
<g>
	<defs>
		<circle id="SVGID_1_" cx="64" cy="64" r="64"/>
	</defs>
	<clipPath id="SVGID_2_">
		<use xlink:href="#SVGID_1_"  overflow="visible"/>
	</clipPath>
	<g clip-path="url(#SVGID_2_)">
		<path fill="#DF5A48" d="M40.383,65.528c-16.473,6.045-30.103,44.566-16.818,42.994c5.388-0.637,10.04-5.548,22.423-5.548
			c-0.026,0.044-2.672-1.814-2.803-6.933C42.014,85.088,40.34,65.569,40.383,65.528z"/>
		<path fill="#BD3E25" d="M43.186,96.04c-1.172-10.952-2.846-30.471-2.803-30.513c-1.38,0.505-2.735,1.256-4.061,2.175
			c0.34,17.709,2.416,27.395,3.014,30.251c0.425,2.027,0.882,3.804,1.828,5.298c1.473-0.172,3.063-0.279,4.824-0.279
			C45.963,103.018,43.317,101.159,43.186,96.04z"/>
		<path fill="#EFC84A" d="M63.921,104.399c4.984,0,9.833,3.346,9.833,8.33c0,4.984-4.734,15.271-9.718,15.271
			s-9.718-10.287-9.718-15.271C54.319,107.745,58.937,104.399,63.921,104.399z"/>
		<path fill="#DF5A48" d="M87.637,65.528c16.318,6.051,29.82,44.611,16.659,43.037c-5.338-0.637-9.944-5.553-22.212-5.553
			c0.028,0.044,2.647-1.817,2.777-6.941C86.023,85.108,87.68,65.569,87.637,65.528z"/>
		<path fill="#BD3E25" d="M88.708,97.723c0.603-2.79,2.692-12.314,3.039-29.958c-1.338-0.948-2.713-1.72-4.109-2.238
			c0.043,0.042-1.615,19.58-2.777,30.542c-0.129,5.124-2.749,6.986-2.777,6.941c1.605,0,3.072,0.087,4.433,0.236
			C87.648,101.712,88.245,99.864,88.708,97.723z"/>
		<path fill="#D7B442" d="M64.037,107.176c5.367,0,9.718,2.175,9.718,4.859c0,2.685-4.351,4.859-9.718,4.859
			s-9.718-2.174-9.718-4.859C54.319,109.351,58.669,107.176,64.037,107.176z"/>
		<path fill="#323A45" d="M63.342,1.667c3.432-0.086,25.683,27.349,25.683,61.084c0,20.892-2.436,31.928-3.094,34.972
			c-1.506,6.968-4.408,10.841-22.589,10.841c-18.127,0-19.841-3.986-21.23-10.611c-0.651-3.113-3.065-14.31-3.065-35.203
			C39.048,29.016,59.859,1.862,63.342,1.667z"/>
		<path fill="#2D343E" d="M64.037,29.432c6.901,0,12.494,5.593,12.494,12.494s-5.593,12.495-12.494,12.495
			c-6.9,0-12.494-5.593-12.494-12.495S57.137,29.432,64.037,29.432z"/>
		<path fill="#F4F5F7" d="M64.037,33.597c4.601,0,8.33,3.73,8.33,8.33c0,4.601-3.729,8.33-8.33,8.33c-4.599,0-8.33-3.729-8.33-8.33
			C55.707,37.327,59.437,33.597,64.037,33.597z"/>
		<path fill="#2D343E" d="M63.342,1.667c-0.312,0.018-0.769,0.261-1.333,0.697c5.996,4.462,24.239,29.841,24.239,60.387
			c0,20.892-2.436,31.928-3.094,34.972c-1.467,6.782-4.312,10.616-21.184,10.83l1.372,0.011c18.181,0,21.082-3.873,22.589-10.841
			c0.658-3.044,3.094-14.08,3.094-34.972C89.026,29.016,66.774,1.581,63.342,1.667z"/>
		<path fill="#DF5A48" d="M63.95,65.528c3.45,0,7.027,6.401,7.027,19.436c0,13.036-3.578,27.766-7.027,27.766
			c-3.45,0-6.855-14.73-6.855-27.766C57.095,71.929,60.499,65.528,63.95,65.528z"/>
		<path fill="#C95140" d="M64.037,65.528c3.45,0,6.941,6.401,6.941,19.436c0,13.036-3.492,27.766-6.941,27.766"/>
	</g>
</g>
</svg>
