<?xml version="1.0" encoding="utf-8"?>
<!-- Generator: Adobe Illustrator 17.0.2, SVG Export Plug-In . SVG Version: 6.00 Build 0)  -->
<!DOCTYPE svg PUBLIC "-//W3C//DTD SVG 1.1//EN" "http://www.w3.org/Graphics/SVG/1.1/DTD/svg11.dtd">
<svg version="1.1" id="Layer_1" xmlns="http://www.w3.org/2000/svg" xmlns:xlink="http://www.w3.org/1999/xlink" x="0px" y="0px"
	 width="250px" height="250px" viewBox="-109 -109 250 250" enable-background="new -109 -109 250 250" xml:space="preserve">
<g>
	<path fill="#48C108" d="M138.49,114.285l-19.17-52.397c5.971-14.121,9.268-29.659,9.268-45.96
		c0.009-65.27-52.9-118.179-118.179-118.179c-65.27,0-118.188,52.909-118.188,118.188S-54.869,134.126,10.41,134.126
		c28.001,0,53.691-9.79,73.942-26.054l43.203,16.916C137.093,128.733,142.021,123.908,138.49,114.285z M-48.386,31.065
		c-8.356,0-15.137-6.781-15.137-15.137s6.781-15.137,15.137-15.137s15.137,6.781,15.137,15.137
		C-33.249,24.284-40.03,31.065-48.386,31.065z M7.504,31.065c-8.356,0-15.137-6.781-15.137-15.137S-0.852,0.792,7.504,0.792
		s15.137,6.781,15.137,15.137C22.641,24.284,15.859,31.065,7.504,31.065z M63.393,31.065c-8.355,0-15.137-6.781-15.137-15.137
		S55.038,0.792,63.393,0.792S78.53,7.573,78.53,15.929C78.53,24.284,71.749,31.065,63.393,31.065z"/>
</g>
</svg>
