<?xml version="1.0" encoding="utf-8"?>
<!-- Generator: Adobe Illustrator 17.0.2, SVG Export Plug-In . SVG Version: 6.00 Build 0)  -->
<!DOCTYPE svg PUBLIC "-//W3C//DTD SVG 1.1//EN" "http://www.w3.org/Graphics/SVG/1.1/DTD/svg11.dtd">
<svg version="1.1" id="Layer_1" xmlns="http://www.w3.org/2000/svg" xmlns:xlink="http://www.w3.org/1999/xlink" x="0px" y="0px"
	 width="252px" height="252px" viewBox="0 0 252 252" enable-background="new 0 0 252 252" xml:space="preserve">
<path fill="#2E97E9" d="M143.338,76.205c-10.886,3.931-17.842,14.213-17.035,25.402l0.302,4.334l-4.334-0.504
	c-15.926-2.016-29.736-8.87-41.53-20.462l-5.746-5.746l-1.512,4.234c-3.125,9.475-1.109,19.454,5.443,26.107
	c3.528,3.73,2.722,4.234-3.326,2.016c-2.117-0.706-3.931-1.21-4.133-1.008c-0.605,0.605,1.512,8.669,3.125,11.794
	c2.318,4.435,6.854,8.77,11.995,11.29l4.234,2.016l-5.04,0.101c-4.838,0-5.04,0.101-4.536,1.915
	c1.714,5.746,8.669,11.794,16.33,14.515l5.443,1.814l-4.738,2.822c-6.955,4.032-15.221,6.35-23.386,6.552
	c-3.931,0.101-7.157,0.403-7.157,0.706c0,0.907,10.685,5.846,16.834,7.762c18.547,5.746,40.723,3.226,57.254-6.552
	c11.794-6.955,23.587-20.866,29.03-34.272c2.923-7.157,5.947-20.261,5.947-26.51c0-4.032,0.302-4.637,5.141-9.475
	c2.923-2.822,5.544-5.947,6.149-6.754c0.907-1.714,0.806-1.714-3.629-0.202c-7.459,2.621-8.467,2.318-4.838-1.714
	c2.722-2.822,5.947-7.963,5.947-9.475c0-0.302-1.31,0.202-2.822,1.008c-1.613,0.907-5.04,2.218-7.661,3.024l-4.738,1.714
	l-4.234-2.923c-2.318-1.613-5.645-3.326-7.459-3.931C154.224,74.592,147.37,74.794,143.338,76.205z M126,249.984
	c-69.048,0-124.992-55.944-124.992-124.992S56.952,0,126,0s124.992,55.944,124.992,124.992S195.048,249.984,126,249.984z"/>
</svg>
