<?xml version="1.0" encoding="utf-8"?>
<!-- Generator: Adobe Illustrator 17.0.2, SVG Export Plug-In . SVG Version: 6.00 Build 0)  -->
<!DOCTYPE svg PUBLIC "-//W3C//DTD SVG 1.1//EN" "http://www.w3.org/Graphics/SVG/1.1/DTD/svg11.dtd">
<svg version="1.1" id="Layer_1" xmlns="http://www.w3.org/2000/svg" xmlns:xlink="http://www.w3.org/1999/xlink" x="0px" y="0px"
	 width="252px" height="252px" viewBox="0 0 252 252" enable-background="new 0 0 252 252" xml:space="preserve">
<path display="none" fill="#323A46" d="M65.373,73.122c0-14.133-5.735-26.9-14.952-36.117c-9.285-9.285-22.053-15.02-36.185-15.02
	s-26.9,5.735-36.117,14.952s-14.952,22.053-14.952,36.117s5.735,26.9,14.952,36.117c9.217,9.354,21.984,15.089,36.117,15.089
	s26.9-5.735,36.185-15.02C59.637,100.022,65.373,87.254,65.373,73.122z"/>
<path display="none" fill="#323A46" d="M-67.216,208.441c0,13.518,14.679,13.587,80.905,13.518c60.491,0,82.202-0.341,82.202-13.86
	c0-26.968-33.045-70.391-82.202-70.391C-36.834,137.709-67.216,181.404-67.216,208.441z"/>
<path display="none" fill="#FFFFFF" d="M75.136,155.733c12.494,16.386,19.185,34.547,19.185,49.021
	c0,15.02-13.996,17.273-72.098,17.546C28.027,199.429,47.007,172.529,75.136,155.733z"/>
<path fill="#D8DEE6" d="M190.109,65.68c0-17.683-7.169-33.659-18.707-45.266C159.796,8.807,143.82,1.639,126.137,1.639
	S92.477,8.807,80.871,20.414S62.095,47.997,62.095,65.68s7.169,33.659,18.707,45.266c11.607,11.607,27.583,18.775,45.266,18.775
	s33.659-7.169,45.266-18.775S190.109,83.363,190.109,65.68z"/>
<path fill="#D8DEE6" d="M24.135,235.068c0,16.864,18.366,17,101.319,16.932c75.716,0,102.957-0.478,102.957-17.342
	c0-33.796-41.374-88.142-102.957-88.142C62.164,146.516,24.135,201.272,24.135,235.068z"/>
</svg>
