<?xml version="1.0" encoding="utf-8"?>
<svg version="1.1" xmlns="http://www.w3.org/2000/svg" xmlns:xlink="http://www.w3.org/1999/xlink" x="0px" y="0px"
	 viewBox="0 199.5 612 394.2" enable-background="new 0 199.5 612 394.2" xml:space="preserve">
<g>
	<path fill="#414B57" d="M13,571.1h11l6.6-23.7h0.2l7.3,23.7h10.9l12.7-35.6H50.5l-6.7,22.3h-0.2L37,535.5H24.9l-6.1,22.3h-0.2
		l-7.3-22.3H0L13,571.1L13,571.1z M91.4,559.3c-0.9,1.2-2,2.3-3.2,3.1c-1.2,0.8-2.8,1.2-4.6,1.2c-2.1,0-4-0.6-5.5-1.8
		s-2.4-2.9-2.9-5h25.7v-3.5c0-2.9-0.5-5.4-1.2-7.6c-0.8-2.3-1.8-4.3-3.4-6c-1.4-1.7-3.2-2.9-5.4-3.8c-2.1-0.9-4.4-1.4-6.9-1.4
		c-2.8,0-5.4,0.5-7.8,1.4c-2.4,0.9-4.6,2.1-6.3,3.8c-1.8,1.7-3.2,3.7-4.3,6c-1.1,2.3-1.5,4.9-1.5,7.6c0,2.9,0.5,5.4,1.5,7.6
		c1.1,2.3,2.4,4.3,4.3,6c1.8,1.7,3.8,2.9,6.3,3.8c2.4,0.9,5,1.4,7.8,1.4c2.9,0,5.7-0.6,8.4-1.8c2.8-1.2,4.9-2.9,6.7-5.2L91.4,559.3
		L91.4,559.3z M75.2,549.2c0-0.9,0.3-1.7,0.6-2.6c0.3-0.9,0.9-1.5,1.5-2.1c0.6-0.6,1.5-1.1,2.4-1.5c0.9-0.5,2-0.6,3.2-0.6
		c2,0,3.7,0.6,4.9,2c1.2,1.4,1.8,2.9,1.8,4.7H75.2V549.2z"/>
	<g>
		<g>
			<defs>
				<rect id="SVGID_1_" x="-1.2" y="199.5" width="613.2" height="393"/>
			</defs>
			<clipPath id="SVGID_2_">
				<use xlink:href="#SVGID_1_"  overflow="visible"/>
			</clipPath>

				<line clip-path="url(#SVGID_2_)" fill="none" stroke="#414B57" stroke-width="3" stroke-miterlimit="10" x1="297" y1="584.1" x2="536.1" y2="584.1"/>
		</g>
	</g>
	<path fill="#414B57" d="M304.8,571.1h11v-26.9h8.1v-8.9h-8.1v-5.5c0-2.3,0.5-4,1.4-4.6c0.9-0.8,2.1-1.1,4-1.1c0.6,0,1.2,0,1.8,0.2
		c0.6,0.2,1.1,0.3,1.8,0.6l0.5-9.3c-1.1-0.3-2.1-0.5-3.2-0.5c-1.1-0.2-2.1-0.2-3.4-0.2c-3.1,0-5.4,0.3-7.2,1.1
		c-1.8,0.8-3.2,1.8-4.3,3.1c-0.9,1.4-1.7,2.9-2,4.6c-0.3,1.7-0.5,3.5-0.5,5.5v6.3h-7.3v8.9h7.3L304.8,571.1L304.8,571.1z M328,571.1
		h11v-14.8c0-1.8,0.2-3.4,0.3-4.9c0.2-1.5,0.6-2.8,1.2-3.8c0.6-1.1,1.5-1.8,2.8-2.4c1.2-0.6,2.9-0.9,5-0.9c0.8,0,1.7,0,2.4,0.2
		c0.8,0.2,1.5,0.3,2.3,0.6v-10.1c-0.6-0.2-1.1-0.3-1.8-0.3c-0.6,0-1.2,0-1.8,0c-2.4,0-4.4,0.6-6.1,1.7c-1.7,1.1-3.1,2.8-4.1,4.9H339
		v-5.7h-11V571.1L328,571.1z M358.1,571.1h11v-35.6h-11V571.1L358.1,571.1z M359.1,528.7c1.2,1.2,2.8,1.8,4.6,1.8
		c1.8,0,3.2-0.6,4.6-1.8c1.2-1.2,1.8-2.8,1.8-4.6c0-1.8-0.6-3.2-1.8-4.6c-1.2-1.2-2.8-1.8-4.6-1.8c-1.8,0-3.2,0.6-4.6,1.8
		c-1.4,1.2-1.8,2.8-1.8,4.6C357.2,526,357.8,527.5,359.1,528.7L359.1,528.7z M403.1,559.3c-0.9,1.2-2,2.3-3.2,3.1
		c-1.2,0.8-2.8,1.2-4.6,1.2c-2.1,0-4-0.6-5.5-1.8s-2.4-2.9-2.9-5h25.5v-3.5c0-2.9-0.5-5.4-1.2-7.6c-0.8-2.3-1.8-4.3-3.4-6
		c-1.4-1.7-3.2-2.9-5.4-3.8c-2.1-0.9-4.4-1.4-6.9-1.4c-2.8,0-5.4,0.5-7.8,1.4c-2.4,0.9-4.6,2.1-6.3,3.8c-1.8,1.7-3.2,3.7-4.3,6
		c-1.1,2.3-1.5,4.9-1.5,7.6c0,2.9,0.5,5.4,1.5,7.6c1.1,2.3,2.4,4.3,4.3,6c1.8,1.7,3.8,2.9,6.3,3.8c2.4,0.9,5,1.4,7.8,1.4
		c2.9,0,5.7-0.6,8.4-1.8c2.8-1.2,4.9-2.9,6.7-5.2L403.1,559.3L403.1,559.3z M386.9,549.2c0-0.9,0.3-1.7,0.6-2.6
		c0.3-0.9,0.9-1.5,1.5-2.1c0.6-0.6,1.5-1.1,2.4-1.5c0.9-0.5,2-0.6,3.2-0.6c2,0,3.7,0.6,4.9,2c1.2,1.4,1.8,2.9,1.8,4.7h-14.5V549.2z
		 M419.2,571.1h11v-17.7c0-1.2,0-2.3,0.2-3.4c0.2-1.1,0.5-2,0.9-2.9c0.5-0.9,1.1-1.5,2-2c0.9-0.5,2-0.8,3.5-0.8
		c1.4,0,2.4,0.3,3.2,0.9s1.4,1.4,1.7,2.3c0.3,0.9,0.6,2,0.6,3.1c0,1.1,0.2,2.1,0.2,3.2v17.3h11v-19.7c0-2.4-0.2-4.6-0.5-6.7
		c-0.3-2-0.9-3.8-2-5.4c-0.9-1.5-2.3-2.8-4-3.5c-1.7-0.9-4-1.2-6.7-1.2c-1.4,0-2.6,0.2-3.7,0.5c-1.1,0.3-2.1,0.8-3.1,1.4
		c-0.9,0.6-1.7,1.2-2.3,1.8c-0.6,0.6-1.1,1.4-1.5,2h0v-4.9h-10.6V571.1L419.2,571.1z M498.7,515.6h-11v23.7h-0.2
		c-1.2-1.7-2.9-2.9-4.9-3.7c-2-0.8-4.1-1.1-6.4-1.1c-2.6,0-4.9,0.5-6.9,1.5c-2,1.1-3.7,2.4-5,4.3c-1.4,1.8-2.4,3.8-3.2,6.1
		c-0.8,2.3-1.1,4.6-1.1,7.2c0,2.8,0.5,5.2,1.2,7.3c0.8,2.3,2,4.1,3.5,5.8s3.4,2.9,5.5,3.8c2.1,0.9,4.6,1.4,7.2,1.4
		c1.2,0,2.4-0.2,3.5-0.5c1.2-0.3,2.1-0.8,3.2-1.4c0.9-0.6,1.8-1.1,2.4-1.8c0.8-0.6,1.2-1.4,1.7-2h0.2v4.7h10.1v-55.5H498.7z
		 M486.3,559.8c-1.5,1.7-3.7,2.4-6.4,2.4c-2.8,0-4.9-0.8-6.4-2.4c-1.5-1.7-2.3-3.8-2.3-6.6s0.8-4.9,2.3-6.6c1.5-1.7,3.7-2.4,6.4-2.4
		s4.9,0.8,6.4,2.4c1.5,1.7,2.3,3.8,2.3,6.6S487.8,558.1,486.3,559.8L486.3,559.8z M534.5,539.3c-1.7-1.8-3.7-3.1-6.1-3.7
		s-4.7-1.1-7.2-1.1c-1.8,0-3.7,0.3-5.5,0.8s-3.4,1.2-4.7,2.1s-2.4,2.3-3.4,3.7c-0.9,1.5-1.2,3.4-1.2,5.5c0,2.3,0.5,4,1.4,5.4
		c0.9,1.4,2,2.4,3.5,3.1c1.4,0.8,2.9,1.2,4.4,1.7c1.5,0.3,3.1,0.8,4.4,1.1c1.4,0.3,2.6,0.8,3.5,1.2c0.9,0.5,1.4,1.2,1.4,2.1
		s-0.5,1.7-1.5,2s-2.1,0.6-3.5,0.6c-1.7,0-3.1-0.3-4.4-0.9c-1.2-0.6-2.4-1.7-3.4-2.9l-6.7,7.3c1.8,1.8,4,3.1,6.4,3.8
		c2.6,0.8,5,1.1,7.5,1.1c1.8,0,3.8-0.2,5.8-0.6c2-0.3,3.7-1.1,5.4-1.8c1.5-0.9,2.9-2.1,3.8-3.7c1.1-1.5,1.5-3.4,1.5-5.7
		c0-2.3-0.5-4-1.4-5.4c-0.9-1.4-2-2.4-3.5-3.2c-1.4-0.8-2.9-1.4-4.4-1.7c-1.5-0.3-3.1-0.8-4.4-1.1c-1.4-0.3-2.6-0.6-3.5-1.1
		c-0.9-0.5-1.4-1.1-1.4-2c0-1.1,0.5-1.8,1.4-2.3c0.9-0.5,1.8-0.6,2.8-0.6c2.6,0,4.7,1.1,6.4,3.1L534.5,539.3L534.5,539.3z"/>
	<path fill="#414B57" d="M13,421.2h11l6.6-23.7h0.2l7.3,23.7h10.9l12.7-35.6H50.5l-6.7,22.3h-0.2L37,385.6H24.9l-6.1,22.3h-0.2
		l-7.3-22.3H0L13,421.2L13,421.2z M91.4,409.5c-0.9,1.2-2,2.3-3.2,3.1c-1.2,0.8-2.8,1.2-4.6,1.2c-2.1,0-4-0.6-5.5-1.8
		s-2.4-2.9-2.9-5h25.7v-3.5c0-2.9-0.5-5.4-1.2-7.6s-1.8-4.3-3.4-6c-1.4-1.7-3.2-2.9-5.4-3.8c-2.1-0.9-4.4-1.4-6.9-1.4
		c-2.8,0-5.4,0.5-7.8,1.4c-2.4,0.9-4.6,2.1-6.3,3.8c-1.8,1.7-3.2,3.7-4.3,6s-1.5,4.9-1.5,7.6c0,2.9,0.5,5.4,1.5,7.6s2.4,4.3,4.3,6
		s3.8,2.9,6.3,3.8c2.4,0.9,5,1.4,7.8,1.4c2.9,0,5.7-0.6,8.4-1.8c2.8-1.2,4.9-2.9,6.7-5.2L91.4,409.5L91.4,409.5z M75.2,399.4
		c0-0.9,0.3-1.7,0.6-2.6c0.3-0.8,0.9-1.5,1.5-2.1c0.6-0.6,1.5-1.1,2.4-1.5s2-0.6,3.2-0.6c2,0,3.7,0.6,4.9,2c1.2,1.4,1.8,2.9,1.8,4.7
		H75.2V399.4z"/>
	<g>
		<g>
			<defs>
				<rect id="SVGID_3_" x="-1.2" y="199.5" width="613.2" height="393"/>
			</defs>
			<clipPath id="SVGID_4_">
				<use xlink:href="#SVGID_3_"  overflow="visible"/>
			</clipPath>

				<line clip-path="url(#SVGID_4_)" fill="none" stroke="#414B57" stroke-width="3" stroke-miterlimit="10" x1="297" y1="434.2" x2="612" y2="434.2"/>
		</g>
	</g>
	<path fill="#414B57" d="M301.1,411.1c1.1,2.3,2.4,4.3,4.3,6c1.8,1.7,3.8,2.9,6.3,3.8s5,1.4,7.8,1.4s5.4-0.5,7.8-1.4
		c2.4-0.9,4.6-2.1,6.3-3.8c1.8-1.7,3.2-3.7,4.3-6s1.5-4.9,1.5-7.6c0-2.9-0.5-5.4-1.5-7.6s-2.4-4.3-4.3-6c-1.8-1.7-3.8-2.9-6.3-3.8
		c-2.4-0.9-5-1.4-7.8-1.4s-5.4,0.5-7.8,1.4s-4.6,2.1-6.3,3.8c-1.8,1.7-3.2,3.7-4.3,6c-1.1,2.3-1.5,4.9-1.5,7.6
		C299.6,406.2,300.2,408.8,301.1,411.1L301.1,411.1z M312.9,396.9c1.5-1.7,3.7-2.4,6.4-2.4s4.9,0.8,6.4,2.4c1.5,1.7,2.3,3.8,2.3,6.6
		s-0.8,4.9-2.3,6.6c-1.5,1.7-3.7,2.4-6.4,2.4s-4.9-0.8-6.4-2.4c-1.5-1.7-2.3-3.8-2.3-6.6S311.4,398.6,312.9,396.9L312.9,396.9z
		 M380,385.6h-11v17.7c0,1.2,0,2.3-0.2,3.4s-0.5,2-0.9,2.9s-1.1,1.5-2,2c-0.9,0.5-2,0.8-3.5,0.8c-1.4,0-2.4-0.3-3.2-0.9
		c-0.8-0.6-1.4-1.4-1.7-2.3c-0.3-0.9-0.6-2-0.6-3.1c0-1.1-0.2-2.1-0.2-3.2v-17.4h-11v19.7c0,2.4,0.2,4.6,0.5,6.7
		c0.3,2,0.9,3.8,1.8,5.4c0.9,1.5,2.3,2.8,4,3.5c1.7,0.9,4,1.2,6.7,1.2c1.4,0,2.6-0.2,3.7-0.5s2.1-0.8,3.1-1.4
		c0.9-0.6,1.7-1.2,2.3-1.8c0.6-0.6,1.1-1.4,1.5-2h0.2v4.9H380L380,385.6L380,385.6z M412.1,385.6h-9.6V375h-11v10.6h-7v8.9h7v17
		c0,2,0.3,3.7,0.9,5c0.6,1.4,1.5,2.4,2.8,3.4c1.2,0.9,2.6,1.5,4.1,1.8c1.5,0.5,3.2,0.6,5.2,0.6c1.2,0,2.6,0,3.8-0.2
		c1.4-0.2,2.6-0.5,3.8-0.9v-9.2c-0.5,0.5-1.2,0.8-2.1,0.9c-0.9,0.2-1.7,0.2-2.3,0.2c-1.2,0-2.1-0.2-2.8-0.5
		c-0.8-0.3-1.2-0.8-1.5-1.4c-0.3-0.6-0.6-1.2-0.6-2.1c-0.2-0.8-0.2-1.7-0.2-2.8v-11.9h9.6v-8.9H412.1z M455.1,365.7h-11v23.7h-0.2
		c-1.2-1.7-2.9-2.9-4.9-3.7c-2-0.8-4.1-1.1-6.4-1.1c-2.6,0-4.9,0.5-6.9,1.5c-2,1.1-3.7,2.4-5,4.3c-1.4,1.8-2.4,3.8-3.2,6.1
		s-1.1,4.6-1.1,7.2c0,2.8,0.5,5.2,1.2,7.3c0.8,2.3,2,4.1,3.5,5.8c1.5,1.7,3.4,2.9,5.5,3.8c2.1,0.9,4.6,1.4,7.2,1.4
		c1.2,0,2.4-0.2,3.5-0.5c1.2-0.3,2.1-0.8,3.2-1.4c0.9-0.6,1.8-1.1,2.4-1.8c0.8-0.6,1.2-1.4,1.7-2h0.2v4.7h10.1v-55.5H455.1z
		 M442.7,409.9c-1.5,1.7-3.7,2.4-6.4,2.4c-2.8,0-4.9-0.8-6.4-2.4s-2.3-3.8-2.3-6.6s0.8-4.9,2.3-6.6s3.7-2.4,6.4-2.4
		c2.8,0,4.9,0.8,6.4,2.4s2.3,3.8,2.3,6.6S444.2,408.2,442.7,409.9L442.7,409.9z M464.1,411.1c1.1,2.3,2.4,4.3,4.3,6
		c1.8,1.7,3.8,2.9,6.3,3.8s5,1.4,7.8,1.4c2.8,0,5.4-0.5,7.8-1.4c2.4-0.9,4.6-2.1,6.3-3.8c1.8-1.7,3.2-3.7,4.3-6
		c1.1-2.3,1.5-4.9,1.5-7.6c0-2.9-0.5-5.4-1.5-7.6c-1.1-2.3-2.4-4.3-4.3-6c-1.8-1.7-3.8-2.9-6.3-3.8c-2.4-0.9-5-1.4-7.8-1.4
		c-2.8,0-5.4,0.5-7.8,1.4s-4.6,2.1-6.3,3.8c-1.8,1.7-3.2,3.7-4.3,6c-1.1,2.3-1.5,4.9-1.5,7.6C462.6,406.2,463.2,408.8,464.1,411.1
		L464.1,411.1z M475.9,396.9c1.5-1.7,3.7-2.4,6.4-2.4c2.8,0,4.9,0.8,6.4,2.4c1.5,1.7,2.3,3.8,2.3,6.6s-0.8,4.9-2.3,6.6
		c-1.5,1.7-3.7,2.4-6.4,2.4c-2.8,0-4.9-0.8-6.4-2.4c-1.5-1.7-2.3-3.8-2.3-6.6S474.4,398.6,475.9,396.9L475.9,396.9z M508.9,411.1
		c1.1,2.3,2.4,4.3,4.3,6c1.8,1.7,3.8,2.9,6.3,3.8c2.4,0.9,5,1.4,7.8,1.4s5.4-0.5,7.8-1.4c2.4-0.9,4.6-2.1,6.3-3.8
		c1.8-1.7,3.2-3.7,4.3-6c1.1-2.3,1.5-4.9,1.5-7.6c0-2.9-0.5-5.4-1.5-7.6s-2.4-4.3-4.3-6s-3.8-2.9-6.3-3.8c-2.4-0.9-5-1.4-7.8-1.4
		s-5.4,0.5-7.8,1.4c-2.4,0.9-4.6,2.1-6.3,3.8c-1.8,1.7-3.2,3.7-4.3,6c-1.1,2.3-1.5,4.9-1.5,7.6C507.4,406.2,507.9,408.8,508.9,411.1
		L508.9,411.1z M520.7,396.9c1.5-1.7,3.7-2.4,6.4-2.4s4.9,0.8,6.4,2.4c1.5,1.7,2.3,3.8,2.3,6.6s-0.8,4.9-2.3,6.6
		c-1.5,1.7-3.7,2.4-6.4,2.4c-2.8,0-4.9-0.8-6.4-2.4c-1.5-1.7-2.3-3.8-2.3-6.6S519.2,398.6,520.7,396.9L520.7,396.9z M553.4,421.2h11
		v-14.8c0-1.8,0.2-3.4,0.3-4.9s0.6-2.8,1.2-3.8s1.5-1.8,2.8-2.4c1.2-0.6,2.9-0.9,5-0.9c0.8,0,1.7,0,2.4,0.2c0.8,0.2,1.5,0.3,2.3,0.6
		V385c-0.6-0.2-1.1-0.3-1.8-0.3c-0.6,0-1.2,0-1.8,0c-2.4,0-4.4,0.6-6.1,1.7c-1.7,1.1-3.1,2.8-4.1,4.9h-0.2v-5.7h-11L553.4,421.2
		L553.4,421.2z M610.3,389.4c-1.7-1.8-3.7-3.1-6.1-3.7c-2.4-0.6-4.7-1.1-7.2-1.1c-1.8,0-3.7,0.3-5.5,0.8c-1.8,0.5-3.4,1.2-4.7,2.1
		s-2.4,2.3-3.4,3.7c-0.9,1.5-1.2,3.4-1.2,5.5c0,2.3,0.5,4,1.4,5.4c0.9,1.4,2,2.4,3.5,3.1c1.4,0.8,2.9,1.2,4.4,1.7
		c1.5,0.3,3.1,0.8,4.4,1.1c1.4,0.3,2.6,0.8,3.5,1.2c0.9,0.5,1.4,1.2,1.4,2.1s-0.5,1.7-1.5,2s-2.1,0.6-3.5,0.6
		c-1.7,0-3.1-0.3-4.4-0.9c-1.2-0.6-2.4-1.7-3.4-2.9l-6.7,7.3c1.8,1.8,4,3.1,6.4,3.8c2.6,0.8,5,1.1,7.5,1.1c1.8,0,3.8-0.2,5.8-0.6
		c2-0.3,3.7-1.1,5.4-1.8c1.5-0.9,2.9-2.1,3.8-3.7c1.1-1.5,1.5-3.4,1.5-5.7s-0.5-4-1.4-5.4c-0.9-1.4-2-2.4-3.5-3.2
		c-1.4-0.8-2.9-1.4-4.4-1.7c-1.5-0.3-3.1-0.8-4.4-1.1c-1.4-0.3-2.6-0.6-3.5-1.1c-0.9-0.5-1.4-1.1-1.4-2c0-1.1,0.5-1.8,1.4-2.3
		s1.8-0.6,2.8-0.6c2.6,0,4.7,1.1,6.4,3.1L610.3,389.4L610.3,389.4z"/>
	<path fill="#414B57" d="M13,262.2h11l6.6-23.7h0.2l7.6,23.7h10.9l12.7-35.6H50.8L44,248.9h-0.2l-6.6-22.3H25.2l-6.1,22.3H19
		l-7.2-22.3H0L13,262.2L13,262.2z M91.4,250.4c-0.9,1.2-2,2.3-3.2,3.1c-1.2,0.8-2.8,1.2-4.6,1.2c-2.1,0-4-0.6-5.5-1.8
		s-2.4-2.9-2.9-5h25.7v-3.5c0-2.9-0.5-5.4-1.2-7.6s-1.8-4.3-3.4-6c-1.4-1.7-3.2-2.9-5.4-3.8c-2.1-0.9-4.4-1.4-6.9-1.4
		c-2.8,0-5.4,0.5-7.8,1.4c-2.4,0.9-4.6,2.1-6.3,3.8c-1.8,1.7-3.2,3.7-4.3,6s-1.5,4.9-1.5,7.6c0,2.9,0.5,5.4,1.5,7.6s2.4,4.3,4.3,6
		s3.8,2.9,6.3,3.8c2.4,0.9,5,1.4,7.8,1.4c2.9,0,5.7-0.6,8.4-1.8c2.8-1.2,4.9-2.9,6.7-5.2L91.4,250.4L91.4,250.4z M75.2,240.3
		c0-0.9,0.3-1.7,0.6-2.6s0.9-1.5,1.5-2.1c0.6-0.6,1.5-1.1,2.4-1.5s2-0.6,3.2-0.6c2,0,3.7,0.6,4.9,2c1.2,1.4,1.8,2.9,1.8,4.7H75.2
		V240.3z"/>
	<line fill="none" stroke="#414B57" stroke-width="3" stroke-miterlimit="10" x1="297" y1="275.2" x2="445" y2="275.2"/>
	<path fill="#414B57" d="M325.3,226.6h-9.6V216h-11v10.6h-7v8.9h7v17c0,2,0.3,3.7,0.9,5s1.5,2.4,2.8,3.4s2.6,1.5,4.1,1.8
		c1.5,0.5,3.2,0.6,5.2,0.6c1.2,0,2.6,0,3.8-0.2c1.4-0.2,2.6-0.5,3.8-0.9V253c-0.5,0.5-1.2,0.8-2.1,0.9c-0.9,0.2-1.7,0.2-2.3,0.2
		c-1.2,0-2.1-0.2-2.8-0.5c-0.8-0.3-1.2-0.8-1.5-1.4s-0.6-1.2-0.6-2.1c-0.2-0.8-0.2-1.7-0.2-2.8v-11.9h9.6v-8.9H325.3z M356.9,250.4
		c-0.9,1.2-2,2.3-3.2,3.1s-2.8,1.2-4.6,1.2c-2.1,0-4-0.6-5.5-1.8s-2.4-2.9-2.9-5h25.5v-3.5c0-2.9-0.5-5.4-1.2-7.6s-1.8-4.3-3.4-6
		c-1.4-1.7-3.2-2.9-5.4-3.8c-2.1-0.9-4.4-1.4-6.9-1.4c-2.8,0-5.4,0.5-7.8,1.4c-2.4,0.9-4.6,2.1-6.3,3.8c-1.8,1.7-3.2,3.7-4.3,6
		s-1.5,4.9-1.5,7.6c0,2.9,0.5,5.4,1.5,7.6s2.4,4.3,4.3,6s3.8,2.9,6.3,3.8c2.4,0.9,5,1.4,7.8,1.4c2.9,0,5.7-0.6,8.4-1.8
		c2.8-1.2,4.9-2.9,6.7-5.2L356.9,250.4L356.9,250.4z M340.7,240.3c0-0.9,0.3-1.7,0.6-2.6c0.3-0.9,0.9-1.5,1.5-2.1
		c0.6-0.6,1.5-1.1,2.4-1.5c0.9-0.5,2-0.6,3.2-0.6c2,0,3.7,0.6,4.9,2s1.8,2.9,1.8,4.7h-14.5V240.3z M404.3,230.4
		c-1.7-1.8-3.7-3.1-6.1-3.7c-2.3-0.8-4.6-1.1-6.6-1.1c-2.8,0-5.4,0.5-7.8,1.4s-4.6,2.1-6.3,3.8c-1.8,1.7-3.2,3.7-4.3,6
		s-1.5,4.9-1.5,7.6c0,2.9,0.5,5.4,1.5,7.6s2.4,4.3,4.3,6c1.8,1.7,3.8,2.9,6.3,3.8c2.4,0.9,5,1.4,7.8,1.4c2.1,0,4.3-0.3,6.6-1.1
		s4.3-2,6.1-3.7l-7.3-7.6c-0.6,0.8-1.4,1.4-2.3,1.8c-0.9,0.6-2,0.8-3.2,0.8c-2.8,0-4.9-0.8-6.4-2.4c-1.5-1.7-2.3-3.8-2.3-6.6
		c0-2.8,0.8-4.9,2.3-6.6s3.7-2.4,6.4-2.4c1.1,0,2.1,0.3,3.2,0.8c0.9,0.5,1.7,1.2,2.3,2L404.3,230.4L404.3,230.4z M408.3,206.7v55.5
		h11v-17.7c0-1.2,0-2.3,0.2-3.4c0.2-1.1,0.5-2,0.9-2.9c0.5-0.9,1.1-1.5,2-2c0.9-0.5,2-0.8,3.5-0.8c1.4,0,2.4,0.3,3.2,0.9
		s1.4,1.4,1.7,2.3c0.3,0.9,0.6,2,0.6,3.1s0.2,2.1,0.2,3.2v17.3h11v-19.7c0-2.4-0.2-4.6-0.5-6.7c-0.3-2-0.9-3.8-2-5.4
		c-0.9-1.5-2.3-2.8-4-3.5c-1.7-0.9-4-1.2-6.7-1.2c-1.4,0-2.6,0.2-3.7,0.5c-1.1,0.3-2.1,0.8-2.9,1.4c-0.8,0.6-1.5,1.2-2.1,1.8
		c-0.6,0.6-1.1,1.4-1.2,2h-0.2v-24.6H408.3L408.3,206.7z"/>
	<path fill="#FF6A97" d="M216.3,366.2c-8.6,0-16.4,4.2-20,10.8c-3.6-6.6-11.5-10.8-20.1-10.8c-13.5,0-31.6,10.2-23.3,37.9
		c9.4,27.1,43.5,43.1,43.5,43.1c0,0,34-15.9,43.4-43.1C247.9,376.4,229.8,366.2,216.3,366.2z"/>
	<g>
		<path fill="#FF6A97" d="M216.3,512.7c-8.6,0-16.4,4.2-20,10.8c-3.6-6.6-11.5-10.8-20.1-10.8c-13.5,0-31.6,10.2-23.3,37.9
			c9.4,27.1,43.5,43.1,43.5,43.1c0,0,34-15.9,43.4-43.1C247.9,522.9,229.8,512.7,216.3,512.7z"/>
	</g>
	<path fill="#FF6A97" d="M217.8,199.5c-8.6,0-16.4,4.2-20,10.8c-3.6-6.6-11.5-10.8-20.1-10.8c-13.5,0-31.6,10.2-23.3,37.9
		c9.4,27.1,43.5,43.1,43.5,43.1c0,0,34-15.9,43.4-43.1C249.4,209.7,231.3,199.5,217.8,199.5z"/>
</g>
</svg>
